<?xml version="1.0" encoding="utf-8"?>
<!-- Generator: Adobe Illustrator 26.5.1, SVG Export Plug-In . SVG Version: 6.00 Build 0)  -->
<svg version="1.1" id="Layer_1" xmlns="http://www.w3.org/2000/svg" xmlns:xlink="http://www.w3.org/1999/xlink" x="0px" y="0px"
	 viewBox="0 0 1418.8 546.3" style="enable-background:new 0 0 1418.8 546.3;" xml:space="preserve">
<style type="text/css">
	.st0{fill:#4A8BEE;}
	.st1{fill:#74A9FE;}
	.st2{fill:#9EB5FE;}
	.st3{fill:#0045B4;}
	.st4{fill:#FEBAAE;}
	.st5{fill:#FEE3DF;}
	.st6{fill:#68D5FE;}
	.st7{fill:#FEFEFE;}
	.st8{fill:#FDFDFE;}
	.st9{fill:#F4C8FE;}
	.st10{fill:#BCA7FE;}
	.st11{fill:#8B51FE;}
	.st12{fill:#F67B8B;}
	.st13{fill:#FEF6FE;}
	.st14{fill:#FEF6F6;}
	.st15{fill:#FEFEF6;}
	.st16{fill:#F6FEF6;}
	.st17{fill:#F6F9FE;}
	.st18{fill:#F8FE96;}
</style>
<path class="st0" d="M642.8,206c-0.1-11.2,1-22.5-0.8-33.4c-1.3-7.8,7.9-7.2,7.4-13.5c-0.5-6.9,0-13.9-0.1-20.8
	c-0.3-15,7-26.6,17.5-36.1c10.3-9.3,22.1-15.7,36.9-14.1c2.6,0.3,6.8,1.7,7.7-2.6c1.3-5.9,5.7-4.1,9.1-4.1
	c160.5-0.1,321.1-0.1,481.6,0c3.5,0,7.7-1.5,9,4.4c0.9,4.1,5.1,2.4,7.9,2.4c10.8,0.2,21.6-0.6,32.3,0.3c8.1,0.7,18.3-5.2,24.2,6.2
	c0.6,1.2,5.1,0.5,7.8,0.5c13.9,0,27.7-0.3,41.6,0.2c6.8,0.2,15.3-3.9,19.6,6.1c0.5,1.1,5,0.8,7.7,0.7c6.6-0.4,12.8-0.6,11.1,9.1
	c-0.9,5.3,4.8,3.9,6.4,6.5c5.9,9.1,9.5,19.7,15,28.5c12.3,19.7,3.4,40.1,6,60c-4.3,4.3-9.9,3.8-15.2,3.8c-89.5,0.1-179,0.1-268.6,0
	c-4.2,0-8.5-0.1-12.5-1.7c-4.6-4.7-10.1-5.9-16.6-5.7c-10.7,0.3-21.5,0.6-32.2-0.2c-4.2-0.3-9.2-0.9-9.2-6.5c0-5.7,5-6.3,9.2-6.6
	c11.1-0.8,22.3,0,33.4-0.5c4.6-0.2,9.8-0.2,9.8-6.9c0.1-6.8-5.2-6.7-9.8-6.8c-14.4-0.3-28.8-0.1-43.3,0c10.7,0,21.5-0.3,32.2,0.2
	c5,0.2,12.3-0.6,12.1,7.1c-0.2,6.8-6.9,6.1-11.7,6.3c-9.2,0.4-18.4,0-27.6,0.2c-11.9,0.2-11.9,0.3-9,11.8c0.6,2.4,0.4,4.5-1.2,6.5
	c-9,3.9-18.1,3.6-27.2,0.4c-4.6-4.2-3.8-9.8-3.9-15.1c-0.2-19.3,0-38.5-0.1-57.8c0-4.4,0.8-9.1-3.1-13.4c-5.2,4.1-3.5,9.4-3.8,14
	c-0.3,5,0.2,10-0.5,15c-0.5,3.8-1.2,8.3-6.1,8.5c-5.8,0.2-6.4-4.7-6.8-8.9c-0.8-6.9,0-13.9-0.5-20.8c-0.3-4.2-0.2-9.4-7.1-6.5
	c-9.1,3.5-0.4,7.7-0.4,11.5c1.8,21.2,0.8,42.3,0.7,63.5c0,3.5-0.7,6.9-3.2,9.6c-5.2,3.4-11,2.9-16.8,2.9
	c-97.1,0.1-194.2,0.1-291.4,0C654.2,209.8,647.8,210.8,642.8,206z"/>
<path class="st1" d="M642.8,206c108.5,0,217.1,0.1,325.6,0.1c3.8-3.4,8.5-3.2,13.2-3.1c2.6-0.1,5.3-0.1,7.9,0
	c4.7-0.1,9.4-0.3,13.2,3.2c9.4,0,18.7,0,28.1,0c2.3-2.2,5.2-3.2,8.3-3.3c15.2-0.2,30.3-0.3,45.5,0c3.1,0.1,6,1,8.3,3.3
	c99.3,0,198.6-0.1,297.9-0.1c-2.8,15.7,10.2,28.3,7.8,44.6c-2.3,15.7-0.5,32-0.5,48c0,3.8-0.2,7.6-0.3,11.4
	c-3.6,3.7-8.3,3.8-12.9,3.8c-62.1,0-124.2,0.5-186.3-0.3c-5.1,0.1-10.2,0.3-15.3-0.1c-11.4,0.2-22.9,0.4-34.3,0
	c-2.9,0.2-5.9,0-8.8,0c-32,0.8-63.9,0.4-95.8,0.3c-94.3-0.1-188.6,0.6-282.9-0.4c-9.7,0.4-19.4,0.4-29.1,0
	c-27.1,0.7-54.1,0.2-81.2,0.3c-5.3,0-10.8,0.4-15.1-3.8C650.2,276.2,638.3,240.5,642.8,206z"/>
<path class="st2" d="M1148.1,310.3c11.7,0,23.4,0,35.2,0c3.3,5.5-0.7,8.8-4,11.8c-5.7,5.1-7.2,11.2-6.9,18.5
	c0.4,11.4,0,22.8,0.3,34.2c0.5-16.2,2.9-19.3,14.3-19.2c10.8,0.1,12.8,3.1,13.3,19.1c0.2-11,0.2-22,0.2-33.1c0-6.1,0-12-4.1-17.4
	c-3.2-4.2-3.3-9.3,0.2-13.9c67-0.1,134-0.2,200.9-0.3c0.1,25.4,0.1,50.8,0.2,76.3c-2,2.5-4.5,4.6-6.5,7.1c-0.1,4.6-0.3,9.1-0.4,13.7
	c-2.2,2.2-4.9,3.1-8,3.3c-20.4,0.9-40.7,0.5-61.1,0.2c-28.1,0.4-56.2,0.5-84.2,0.1c-12.3-0.2-15.8-3.4-16.1-13.2
	c-0.3-8,2.6-12.8,11.2-14.7c14.1-3.1,16.2-6.3,16.3-20.4c0-2.7,0-5.4,0-8.1c-0.1-17-10-22.9-24.7-14.7c-3.5,1.9-2.7,5.2-2.8,8.1
	c-0.7,14.6,0.2,29.3-0.2,43.9c-0.4,16.9-2.3,19.1-19.7,19.1c-79.2,0.2-158.5,0.1-237.7-0.2c-15.2-0.1-30.7,2.5-45.1-5.6
	c-4.2-2.4-9.8-1.1-14.8-1.1c-57.3-0.1-114.6,0.2-171.9-0.2c-5.3,0-9.8,0.8-13.4,5c-11.6,4.2-23.6,1.8-35.4,2.2
	c-11.5,0.4-23,0.2-34.5,0c-4.6-0.1-9.3-0.1-12.9-3.7c0-32.4,0.1-64.8,0.1-97.2c32.3,0.1,64.6,0.2,97,0.3c1.8,2.5,2,5.7-0.3,7.4
	c-13.4,9.6-9.9,23.6-10.9,36.8c-0.8,10.5,3.6,17.6,11.1,23.8c9.9,8.2,21.3,6.8,30.4-4.8c-4.5,0.3-7.9,2.1-11.6,2.1
	c-4.2,0-8.6,0.6-12.7-0.4c-10.4-2.5-17.9-8.1-16.5-31c0.8-13.8,6.4-21.7,17.5-23.2c3.1-0.4,6.1-0.3,9.2-0.2
	c7.6,0.3,14.9,0.8,12.5,12.6c3.1-5.4,2.7-9.6-0.2-13.7c-2-2.9-3.9-5.9-1.4-9.4c127.2,0,254.5,0,381.7,0c5.5,13.7,4,18.2-8.2,24.9
	c-13.7,7.5-20.1,22.2-16.2,37c2.2,8.3,11,12.9,19.1,9.4c4.5-1.9,8.4-5.3,12.5-3.1C1143.4,355.5,1143.1,333,1148.1,310.3z"/>
<path class="st3" d="M531.3,524.9c-75.8,0.1-151.6,0.3-227.4,0.3c-67.3,0-134.7-0.2-202-0.3c-3.6-4.6-10.1-2.7-14.1-6.3
	c-2.2-0.2-4.4-0.4-6.7-0.7c-2.5-2-4.6-4.4-7.2-6.3c-4.4-1.3-11.2,2.1-13-1.8c-5.1-10.8-18.8-14-21.8-26.2c-1.9-2.6-4.3-4.7-6.3-7.2
	c-0.2-2.2-0.4-4.4-0.7-6.7c-3.6-4-1.7-10.5-6.3-14.1c0-113.2,0-226.5,0-339.7c2-2.5,4.4-4.6,6.3-7.2c0.2-4.5,0.4-9.1,0.7-13.6
	c2-2.5,4.4-4.6,6.3-7.2c2.3-10,11.8-13.9,18-20.4C59.6,65,60,57.4,67,60c2.6-1.9,4.7-4.3,7.2-6.3c4.5-0.2,9.1-0.4,13.6-0.7
	c4-3.6,10.5-1.7,14.1-6.3c66.6-0.1,133.1-0.3,199.7-0.3c74.3,0,148.5,0.2,222.8,0.3c3.6,4.6,10.1,2.7,14.1,6.3
	c4.5,0.2,9.1,0.4,13.6,0.7c2.5,2,4.6,4.4,7.2,6.3c14.2-2.8,18.6,10.8,27.3,16.8c4.3,3,7.3,8.1,11.8,11.4c4.9,3.6,1.1,9.2,2.7,13.6
	c1.9,2.6,4.3,4.7,6.3,7.2c0.2,4.5,0.4,9.1,0.7,13.6c3.6,4,1.7,10.5,6.3,14.1c0,99.4,0,198.7,0,298.1c-4.5,3.6-2.7,10.1-6.3,14.1
	c-0.2,4.5-0.4,9.1-0.7,13.6c-4.5,3.6-2.7,10.1-6.3,14.1c-1.1,9.8-10.6,14-16.2,19.5c-5.5,5.3-8.9,14.9-18.7,15.5
	c-2.6,1.9-4.7,4.3-7.2,6.3c-4.5,0.2-9.1,0.4-13.6,0.7C541.4,522.3,535,520.4,531.3,524.9z"/>
<path class="st4" d="M635.7,407.3c27.6-0.1,55.3-0.2,82.9-0.2c4.1-3.2,8.9-3.6,13-1c7.7,4.9,16.1,4.6,24.5,4.5
	c83.1-0.1,166.2,0.2,249.3,0.2c7.7,0,15.3,0.1,22.3,4.4c4.4,2.8,9.7,2.3,14.6,2.3c82.3,0,164.6,0,247,0.1c12,0,21.9-5.7,32.4-9.9
	c20.8,0,41.6,0,62.3,0c2,2.2,1.8,4.4,0.2,6.8c-0.1,4.5-0.2,9.1-0.4,13.6c-2.1,2.5-4.6,4.6-6.6,7.2c-4.5,9.5-11.4,16.4-20.9,20.9
	c-2.6,2-4.8,4.4-7.1,6.7l0,0c-5.8,5.9-15.4,0.3-20.9,6.8c-4.5,0.1-9,0.2-13.6,0.4c-4.2,3.6-9.3,3.2-14.3,3.2c-187,0-373.9,0-560.9,0
	c-5,0-10.1,0.4-14.3-3.2c-4.5-0.1-9-0.2-13.6-0.4c-5.7-6.5-15.1-1.1-21.1-6.6c-4.5-0.1-9-0.2-13.6-0.4c-3.4-4.8-10.3-2.6-13.9-7
	c0.4-5-1.9-7.3-6.9-6.9c-2.5-2.1-4.8-4.5-7-7c-0.1-2.2-0.2-4.4-0.4-6.6c-2-2.6-4.5-4.7-6.6-7.2c-0.1-2.2-0.2-4.4-0.4-6.6
	c-2-2.6-4.5-4.7-6.6-7.2C635.6,411.8,635.7,409.5,635.7,407.3z"/>
<path class="st5" d="M725.4,470c120.3-0.1,240.7-0.2,361-0.2c76.1,0,152.3,0.1,228.4,0.2c-0.1,3.8-1,6.9-5.8,6.7
	c-2.3-0.1-4.6,0-6.9,0c-188,0-376,0-564-0.1C733.2,476.6,725.6,479.9,725.4,470z"/>
<path class="st5" d="M690.8,463c4.9-0.1,9.7,0,14.6-0.2c5-0.3,6.6,2.4,6.5,6.8c-4.8,0-9.7-0.1-14.5,0.2
	C692.4,470,690.7,467.5,690.8,463z"/>
<path class="st5" d="M1328.4,469.6c-0.2-5.3,2.5-7.1,7.6-6.8c4.4,0.3,8.9,0,13.4,0c0.3,4.5-1.2,7.2-6.3,7
	C1338.2,469.6,1333.3,469.6,1328.4,469.6z"/>
<path class="st6" d="M531.3,524.9c0.4-11.7,9.1-4.9,14.1-6.3C545,530.3,536.4,523.5,531.3,524.9z"/>
<path class="st6" d="M101.9,46.8c-0.4,11.7-9.1,4.9-14.1,6.3C88.2,41.4,96.9,48.2,101.9,46.8z"/>
<path class="st6" d="M538.5,53.1c-5-1.4-13.7,5.5-14.1-6.3C529.4,48.2,538.1,41.4,538.5,53.1z"/>
<path class="st6" d="M608.1,449.1c1.4-5-5.5-13.7,6.3-14.1C613,439.9,619.7,448.6,608.1,449.1z"/>
<path class="st6" d="M25.8,455.7c11.7,0.4,4.9,9.1,6.3,14.1C20.4,469.4,27.2,460.8,25.8,455.7z"/>
<path class="st5" d="M663.3,455.7c4.9,1.7,13.5-3.9,13.9,7C672.1,461.2,663.2,467.5,663.3,455.7z"/>
<path class="st6" d="M601.1,476.8c1.4-5-5.5-13.7,6.3-14.1C606,467.7,612.8,476.4,601.1,476.8z"/>
<path class="st6" d="M614.4,136.8c-11.7-0.4-4.9-9.1-6.3-14.1C619.7,123.1,613,131.8,614.4,136.8z"/>
<path class="st6" d="M87.8,518.7c5,1.4,13.7-5.5,14.1,6.3C96.9,523.5,88.2,530.3,87.8,518.7z"/>
<path class="st6" d="M74.2,53.7c0.4,5.4-1.8,7.6-7.2,6.3C66.5,54.7,68.9,52.5,74.2,53.7z"/>
<path class="st6" d="M559.3,60c-5.4,1.4-7.6-0.9-7.2-6.3C557.4,52.5,559.8,54.7,559.3,60z"/>
<path class="st6" d="M39,88c1.4,5.4-0.9,7.6-6.3,7.2C31.5,89.9,33.7,87.6,39,88z"/>
<path class="st6" d="M607.4,109.1c-5.4,0.4-7.6-1.8-6.3-7.2C606.5,101.4,608.6,103.8,607.4,109.1z"/>
<path class="st6" d="M32.1,108.8c1.4,5.4-0.9,7.6-6.3,7.2C24.6,110.7,26.7,108.4,32.1,108.8z"/>
<path class="st5" d="M1391.3,393.5c-1.2-5.5,1.5-7.3,6.5-7.1C1398.5,391.3,1396.6,393.9,1391.3,393.5z"/>
<path class="st5" d="M1384.3,414.4c-0.1-2.3-0.2-4.5-0.2-6.8c2.3-0.2,4.6-0.3,6.8-0.5C1391.6,412.2,1389.4,414.7,1384.3,414.4z"/>
<path class="st5" d="M635.6,414.1c5.1-0.2,7.5,2,6.6,7.2C637,421.6,634.8,419.2,635.6,414.1z"/>
<path class="st5" d="M642.5,427.9c5.1-0.2,7.5,2,6.6,7.2C644,435.5,641.8,433.1,642.5,427.9z"/>
<path class="st5" d="M1377.3,435.2c-0.9-5.3,1.5-7.4,6.6-7.2C1384.7,433.1,1382.5,435.5,1377.3,435.2z"/>
<path class="st5" d="M649.5,441.8c4.9-0.3,7.3,2,7,7C651,449.5,648.7,447.2,649.5,441.8z"/>
<path class="st5" d="M1349.4,462.8c-0.4-5.2,1.8-7.6,7.1-6.7C1356.8,461.1,1354.4,463.4,1349.4,462.8z"/>
<path class="st6" d="M32.7,476.5c5.4-0.4,7.6,1.8,6.3,7.2C33.7,484.2,31.5,481.8,32.7,476.5z"/>
<path class="st6" d="M73.9,511.7c5.4-1.4,7.6,0.9,7.2,6.3C75.8,519.2,73.5,517.1,73.9,511.7z"/>
<path class="st6" d="M559.1,518c-0.4-5.4,1.8-7.6,7.2-6.3C566.7,517.1,564.3,519.2,559.1,518z"/>
<path class="st7" d="M1002.7,206c-4.5,0-9,0-13.5,0c-6.7-9.8-1.8-21-3.7-30.3c-1.8,9.3,3,20.5-3.6,30.3c-4.5,0-9,0-13.5,0
	c-0.2-25.4-0.3-50.7-0.5-76.1c-1.6-2.5-1.6-4.9,0-7.4c-0.7-7,3.9-6.7,8.8-6.8c6.2-0.1,5.3,4,5.4,7.8c0,9.6,0,19.2,0.1,28.9
	c0,2.3,0.2,4.8,3.4,4.8c3.3,0,3.4-2.5,3.4-4.8c0.1-9.2,0.1-18.5,0-27.7c0-4.7-0.8-8.9,6.6-9.1c8-0.2,7.3,4.4,7.3,9.6
	C1002.7,152.2,1002.7,179.1,1002.7,206z"/>
<path class="st7" d="M1092.8,206c-20.7,0-41.4,0-62,0c-0.3-1.9-0.2-5.3-0.8-5.4c-7.4-1.7-7.6-7.3-5.8-12.3c2-5.8,7.9-2.8,12-2.9
	c11.9-0.4,23.9-0.1,35.8-0.2c2.7,0,7.1,1.5,6.8-3.6c-0.2-4.8-4.5-3.2-7.2-3.2c-13.9-0.2-27.7,0-41.6-0.1c-2.5,0-5.9,0.8-6.1-3.3
	c-0.2-4.2,3.3-3.6,5.8-3.6c18.9-0.1,37.7,0.2,56.6-0.1c9.6-0.2,6.2,6.6,6.6,11.2c0.4,4.9,1.4,10.1-6.9,9.8
	c-13.8-0.5-27.7-0.2-41.6-0.1c-2.7,0-6.9-1.3-6.6,3.8c0.3,4.1,3.9,3,6.3,3c13.9,0.1,27.7,0.2,41.6,0
	C1090.9,198.9,1093.9,200.1,1092.8,206z"/>
<path class="st7" d="M1065.2,140.1c0,24.3,0,24.3-24.6,24.3c-21.7,0-23.9-2.3-23.9-24.3c0-5.4,0.2-10.8-0.1-16.1
	c-0.3-5.4,0.7-8.5,7.3-8.4c6.2,0.1,6.5,3.1,6.7,7.9c0.2,4.3-2.7,11.1,2.4,12.3c7.2,1.8,15.3,1.2,22.8,0.1c4.2-0.6,1.6-5.9,2.4-9
	c0.9-3.7-2.5-10.4,3.1-10.4c7.3-0.1,2.8,7.1,3.6,10.9C1065.8,131.6,1065.2,135.9,1065.2,140.1z"/>
<path class="st7" d="M954.3,154.5c0,3.9-0.9,8,0.2,11.5c4.5,15.3-7.3,23-15.3,31.7c-3.7,4-11.7,1.7-17.8,0.7
	c-1.8-0.3-1.8-2.3-1.4-3.8c0.5-2.5,2.6-2.3,4.5-2.5c11.8-1.3,16.4-8.1,16-19.6c-0.4-11.5-0.5-23.1,0.1-34.7c0.3-6.8-2.3-8.8-8.6-8.3
	c-4.6,0.4-9.2,0.1-13.8,0c-2.2,0-4.9,0.2-5.1-3.1c-0.3-4.2,3-3.8,5.5-3.8c10-0.1,20,0.1,30-0.1c4.7-0.1,5.9,2.2,5.8,6.3
	C954.2,137.6,954.3,146.1,954.3,154.5z"/>
<path class="st7" d="M1092.7,115.9c0.1,2.3,0.5,4.7,0.1,6.9c-1.6,10.4,1.3,16.1,13.1,14c2.5-0.4,7-1.8,7.3,2.9
	c0.4,5.9-4.8,4.1-7.5,3.8c-10.6-1.5-14.6,2.7-12.9,13.1c0.7,4.5,0.1,8-6.3,8.1c-6.3,0.1-7.8-2.4-7.6-8.1c0.4-9.2,0.9-18.5-0.1-27.6
	c-1.4-11.7,3.4-15.1,14-12.9L1092.7,115.9z"/>
<path class="st2" d="M1092.9,116.1c1.4-4.6-3.2-11.1,3.9-13.7c2.6-1,6.2-1.3,8.6,1.1c2.4,2.4,1.5,5.7,1.2,8.6
	c-0.5,4.3-4.1,3.7-7,3.8c-2.3,0.1-4.5,0.1-6.8,0.1C1092.7,115.9,1092.9,116.1,1092.9,116.1z"/>
<path class="st2" d="M690.8,143.7c0.5,4.8-1.6,6.8-6.4,6.9c-5.2,0.1-7.5-1.7-7.4-7.2c0.1-4.7,1.7-6.8,6.6-6.8
	C688.8,136.6,691.5,138.2,690.8,143.7z"/>
<path class="st2" d="M808.4,105.3c-0.3,2.3-1.4,3.4-3.7,3.2c-1.9-0.2-2.6-1.5-2.5-3c0.1-2.2,1.3-3.3,3.6-3
	C807.7,102.6,808.1,104,808.4,105.3z"/>
<path class="st2" d="M1286.7,119.3c-0.3,2.2-1.4,3.3-3.7,3c-1.9-0.2-2.6-1.5-2.5-3c0.1-2.2,1.3-3.3,3.6-3
	C1286,116.5,1286.4,117.8,1286.7,119.3z"/>
<path class="st2" d="M967.9,122.6c0,2.5,0,4.9,0,7.4c-2.6-0.6-6.7,0.5-6.2-4.2C962.1,122,965.6,123.2,967.9,122.6z"/>
<path class="st2" d="M1318.4,157.2c-2.3-0.3-3.4-1.4-3.2-3.7c0.2-1.9,1.5-2.6,3-2.5c2.2,0.1,3.3,1.4,3,3.6
	C1321.1,156.5,1319.7,156.8,1318.4,157.2z"/>
<path class="st8" d="M760,310.3c1.8,7.4,10.6,12.4,7.3,21.9c-1.6,4.7-8.4,8-12.2,4.8c-2.2-1.9-2-4.2,0.5-5.5
	c2.4-1.3,5.6-1.9,3.9-5.5c-1.4-3-4.8-2.2-7.2-1.9c-7.7,0.8-16.3-3.3-22.2,6.3c-3.6,5.8-6.6,29.9-2.1,34.8
	c8.7,9.3,23.3,10.5,32.8,2.5c1.7-1.4,3.6-2.4,5-0.9c2.6,2.8,2.2,6.8,1.1,9.8c-3.8,10.2-25.8,12.7-34.5,6.3
	c-12.4-9.2-14.2-20.6-13.9-34.7c0.3-13.4-0.4-26,13.7-33.4c0.8-0.4,0.5-2.9,0.8-4.4C741.8,310.3,750.9,310.3,760,310.3z"/>
<path class="st8" d="M1196.6,310.3c0.8,5.6-1.8,12.5,6.1,15.5c0.9,0.3,1,3.5,1,5.4c0.1,16.2,0.1,32.3,0,48.5c0,2.5,0.7,6-3.2,6.3
	c-4,0.3-3.5-3.2-3.6-5.8c-0.1-3.8-0.5-7.7,0-11.5c1.1-8.6-3.1-10-10.6-10.1c-8.1-0.1-10.4,2.4-10.6,10.5c-0.1,5.5,4.9,15.7-3.7,16.1
	c-5.5,0.2-2.2-10.4-2.7-16.1c-0.6-6.5,0.1-13.1-0.2-19.6c-0.7-13.6-1.3-26.9,13.4-34.6c0.8-0.4,0.5-2.9,0.8-4.4
	C1187.7,310.3,1192.2,310.3,1196.6,310.3z"/>
<path class="st8" d="M1148.1,310.3c0.1,15.7,0,31.5,0.4,47.2c0.1,5.9-2.7,12.8,5.6,16.9c2.7,1.4,2.6,7.7,0,10.5
	c-3.2,3.5-4.8,0-6.2-3.1c-1.2-2.5-4.2-3.1-5.4-0.7c-4.5,9.5-13.7,6.4-18.7,4.3c-6.4-2.7-9.5-9.8-10.6-18.7
	c-1.9-15.5,5.9-24.8,15.2-34.3c0.3-0.3,0.6-0.7,0.9-0.7c17.8,0.7,10.8-12.9,12.5-21.5C1143.9,310.3,1146,310.3,1148.1,310.3z"/>
<path class="st0" d="M981.9,206c0.1-11.8,0.1-23.7,0.2-35.5c0-2.5-0.7-5.9,3.4-5.9c4.1,0,3.4,3.4,3.4,5.9
	c0.1,11.8,0.2,23.7,0.2,35.5C986.7,206,984.3,206,981.9,206z"/>
<path class="st2" d="M781,233.7c-4.8,0.4-6.9-1.7-7-6.6c-0.1-5.6,2.3-7.3,7.6-7.2c5.2,0.1,6.3,2.8,6.3,7.3
	C788,232.2,785.8,234.2,781,233.7z"/>
<path class="st2" d="M1127.4,268.4c-4.9,0.5-6.8-1.9-6.7-6.7c0-4.6,1.5-7,6.5-7.1c5.4-0.1,7.5,2.1,7.4,7.4
	C1134.5,267.1,1132.1,268.9,1127.4,268.4z"/>
<path class="st2" d="M1075.9,247.3c-1.6-0.1-3-0.6-3.2-2.5c-0.3-2.4,0.9-3.6,3.2-3.5c1.8,0,2.7,1.4,2.7,3
	C1078.6,245.9,1077.7,247.1,1075.9,247.3z"/>
<path class="st2" d="M1304.8,248.2c1.8,0.2,2.7,1.5,2.6,3.1c-0.2,2.3-1.7,3.3-3.9,2.7c-1.7-0.5-2.3-1.8-2-3.5
	C1301.8,248.7,1303.1,248.2,1304.8,248.2z"/>
<path class="st2" d="M704.4,265c-0.2,1.6-0.8,3-2.7,3.1c-2.3,0.1-3.5-1.1-3.3-3.4c0.1-1.9,1.6-2.6,3.1-2.5
	C703.2,262.1,704.1,263.3,704.4,265z"/>
<path class="st2" d="M870.6,279.3c-0.2,1.8-1.5,2.7-3.1,2.6c-2.3-0.2-3.3-1.7-2.7-3.9c0.5-1.7,1.8-2.3,3.5-2
	C870.2,276.4,870.7,277.7,870.6,279.3z"/>
<path class="st8" d="M1321.7,407.6c-0.2,1.5-0.4,4.3-0.6,4.3c-9,0.3-14.2,9.4-23.6,9.4c-87.7-0.2-175.5-0.1-263.2-0.2
	c-4.4,0-8.7,1.1-11.6-4.8c-2-4.2-7.7-2-11.8-2c-85.8-0.1-171.6,0-257.5-0.2c-8,0-17.4,3.8-23.7-6.1c-1.2-1.9-7.3-0.7-11.1-1
	c-0.7-8.4,5.5-6.6,10.2-6.6c36.9-0.1,73.8,0,110.8,0c22.7,0,45.4-0.3,68.1,0.2c7.3,0.2,16.2-3.9,21.3,5.9c0.7,1.3,5,0.8,7.7,0.8
	c90.4,0,180.8-0.1,271.1,0.2c8.4,0,10.3-2.9,10.1-10.7c-0.5-19.2-0.2-38.5-0.1-57.7c0-2.5-1.1-5.8,1.9-7.2c3.6-1.7,4.1,1.5,5.5,3.8
	c1.8,3,4.9,3,6-0.4c2-6.1,7.8-5.5,10.2-3.7c4.4,3.1,10.6,5.8,10.9,12.5c0.3,9.6,1.2,19.4-0.2,28.8c-1.3,8.4-7,14.6-16.7,13.6
	c-8.8-0.9-11,2.5-11,11c0,8.5,3.2,10.2,10.8,10.1C1264,407.2,1292.8,407.5,1321.7,407.6z"/>
<path class="st8" d="M808.7,360.5c-1.6,6.6,2.6,14.3-5.9,21.7c-6.9,6.1-13.5,5-18.4,3.2c-4.2-1.5-11-5.8-10.5-13.7
	c0.5-8.4,0-16.9,0.2-25.4c0.2-9.1,7.6-15.4,17.6-15.3c10.2,0.1,16.8,6.2,17,15.9C808.8,351.1,808.7,355.4,808.7,360.5z"/>
<path class="st8" d="M822.6,358.7c0-7.3-0.1-14.6,0-21.9c0-3.2,2.5-8,4.7-4.8c5.1,7.5,6.4,5.6,11.5-0.1c4.6-5.1,18.1,4.4,18.3,13
	c0.3,11.5,0.1,23.1,0.1,34.6c0,3.1,0.2,6.5-4.2,6.8c-3,0.2-6.9,1.4-8.6-1.5c-2.4-4,3.2-4.2,4.1-6.3c3.6-7.5,2.7-16,1-23.6
	c-1.4-6.1-8.5-2.5-13.1-3.1c-5.8-0.8-7.1,2.6-7,7.7c0.2,6.9,0.1,13.8,0,20.8c0,2.6,0.3,5.9-3.8,5.6c-3.1-0.2-3-3-3-5.3
	C822.6,373.4,822.6,366,822.6,358.7z"/>
<path class="st8" d="M1287.1,358.7c0.8,6.9-3.7,7.3-8.7,7.1c-2.4-0.1-4.9,0.4-4.8,3.5c0.1,3.1,2.9,3.7,5.1,3.2
	c5.3-1.2,12.6,4.1,15.8-4.7c0.7-2,3.6-2.5,4.8-1c2.6,3.2,2.7,7.9,0.6,10.8c-5.3,7.3-13.1,11.9-22.1,8.5c-7.1-2.7-12.8-8-11.8-17.6
	c0.8-8-0.1-16.2,0.3-24.2c0.4-7.1,6.2-10.6,11.6-13c7.9-3.5,12,4.9,14.7,8.9c3,4.5,3.8,12.4-1.2,17.9c-0.8,0.9-2.9,0.5-4.5,0.7
	c-2.4-2.2-2.3-5.6-4.1-8.1c-1.2-1.7-3.2-2.6-4.9-0.9c-1.6,1.6-0.8,3.6,0.9,4.9C1281.5,356.3,1284.9,356.2,1287.1,358.7z"/>
<path class="st8" d="M1086.1,358.7c0.8,6.9-3.7,7.3-8.7,7.1c-2.4-0.1-4.9,0.4-4.8,3.5c0.1,3.1,2.9,3.7,5.1,3.2
	c5.3-1.2,12.6,4.1,15.8-4.7c0.7-2,3.6-2.5,4.8-1c2.6,3.2,2.7,7.9,0.6,10.8c-5.3,7.3-13.1,11.9-22.1,8.5c-7.1-2.7-12.8-8-11.8-17.6
	c0.8-8-0.2-16.2,0.3-24.2c0.4-7.1,6.2-10.6,11.6-13c7.9-3.5,12,4.9,14.7,8.9c3,4.5,3.8,12.4-1.2,17.9c-0.8,0.9-2.9,0.5-4.5,0.7
	c-2.4-2.2-2.3-5.6-4.1-8.1c-1.2-1.7-3.2-2.6-4.9-0.9c-1.6,1.6-0.8,3.6,0.9,4.9C1080.4,356.3,1083.9,356.2,1086.1,358.7z"/>
<path class="st8" d="M940.5,358.7c0.8,6.9-3.7,7.3-8.7,7.1c-2.4-0.1-4.9,0.4-4.8,3.5c0.1,3.1,2.9,3.7,5.1,3.2
	c5.3-1.2,12.6,4.1,15.8-4.7c0.7-2,3.6-2.5,4.8-1c2.6,3.2,2.7,7.9,0.6,10.8c-5.3,7.3-13.1,11.9-22.1,8.5c-7.1-2.7-12.8-8-11.8-17.6
	c0.8-8-0.2-16.2,0.3-24.2c0.4-7.1,6.2-10.6,11.6-13c7.9-3.5,12,4.9,14.7,8.9c3,4.5,3.8,12.4-1.2,17.9c-0.8,0.9-2.9,0.5-4.5,0.7
	c-2.4-2.2-2.3-5.6-4.1-8.1c-1.2-1.7-3.2-2.6-4.9-0.9c-1.6,1.6-0.8,3.6,0.9,4.9C934.9,356.3,938.3,356.2,940.5,358.7z"/>
<path class="st8" d="M898.9,351.9c-0.2-11.9-9.3-5.8-14.5-6.8c-6.2-1.2-6.5,3.6-6.4,8.1c0.1,3.1-0.3,6.2,0.1,9.2
	c0.4,3.5-2.1,8.8,3.3,9.7c5.4,0.9,11.7,2.6,16.5-1.4c2.1-1.7,2.6-6.8,6.3-3.8c3.1,2.5,2.7,7.8,0.6,10.7c-5.3,7.3-13.2,11.8-22.1,8.5
	c-7.1-2.7-12.9-8-11.8-17.6c0.8-6.8,0.6-13.9,0-20.8c-0.7-9,5.2-14,11.8-16.3c9.4-3.4,17.7,1.4,22.3,9.7c2.1,3.9,3,11.4-6.3,10.7
	L898.9,351.9z"/>
<path class="st8" d="M1016.7,357.7c0-6.9,0-13.9,0-20.8c0-3.2,2.5-8,4.6-4.8c5,7.4,6.5,5.8,11.5-0.1c4.1-4.8,17.9,4,18.3,11.9
	c0.5,12.3,0.2,24.6,0.1,36.9c0,2.3,0,5-3.1,5.2c-4.1,0.2-3.7-3.2-3.7-5.8c-0.1-9.2,0-18.5-0.1-27.7c0-2.9,0.8-6.9-3.5-7.3
	c-3.5-0.3-6.7-0.8-10.4,2.4c-6.3,5.4-6.7,11.4-7.1,18.7c-0.4,6.5,4.5,17.9-3.6,18.5c-6.1,0.4-1.8-11.6-3-18
	C1016.2,363.9,1016.7,360.7,1016.7,357.7z"/>
<path class="st8" d="M968.2,357.9c0-5,0-10,0-14.9c0-10,0-10,8.5-5.8c1.9,0.9,4.2,0.7,4.8-1.3c2.2-7.4,10-6.1,11.8-3.9
	c3.5,4.5,11.7,6.6,9.5,14.8c-0.5,1.8-0.1,3.9-2.6,4.5c-1.7,0.4-3.4-0.1-3.8-1.6c-1.7-6.8-8.6-6.2-10.8-4.1
	c-3.9,3.6-10.7,5.5-10.6,12.8c0.2,6.9,0.1,13.8,0,20.7c-0.1,2.8,1.1,7.1-3.6,6.8c-4.4-0.3-3.1-4.5-3.2-7.3
	C968.1,371.7,968.2,364.8,968.2,357.9z"/>
<path class="st8" d="M898.8,351.7c-0.3,2.7,1.1,6.5-3.7,6.6c-1.7,0.1-2.9-1.1-2.8-2.8c0.2-4.8,3.9-3.4,6.6-3.7
	C898.9,351.9,898.8,351.7,898.8,351.7z"/>
<path class="st6" d="M184.9,490.5c0.5,4.5-0.5,7.2-6,7.1c-21.2-0.2-42.3-0.1-63.5-0.1c-6.9-10-19.7-5.2-29.2-11.8
	c-7.1-5-14.2-10.6-21.6-15c-7.5-4.6-0.3-16.3-11-17c3.9-12.5-7.9-21-7.7-33.2c0.9-37.4,0.2-74.8,0.4-112.1c0-4.6-2.9-10.6,5.2-13.2
	c3.3-1,1.5-7.1,1.5-10.8c0.1-51.3,0.1-102.5,0-153.8C53.2,116,62,106,70,95c10.7-14.7,25.2-14.4,40.8-14.1c7,0.2,16.1,4.4,20.9-5.9
	c0.5-1.2,5-0.7,7.7-0.7c120.5,0,241,0,361.5,0c4.3,0,7.2,0.7,11.1,4.8c5.3,5.5,15.4,0.9,23.2,2.2c15.8,2.5,29.4,11.2,36.6,24
	c3,5.5,10.7,11.6,8.6,21.1c-1.7,7.7-0.7,16.1-0.2,24.2c0.3,5.4-3.2,12.5,5.6,15.3c1.1,0.3,1.2,4.9,1.2,7.5
	c0.1,79.8,0.1,159.5,0,239.3c0,3.6,0.9,7.1-4.5,9.1c-4.8,1.8-2.7,7.6-2.3,11.4c2.3,21.8-10.2,36-23.6,50.5c-7.2,7.9-15.5,6-24,7
	c-8.2,1-18.5-5.2-24.2,6.2c-0.4,0.9-3.6,0.5-5.5,0.5c-15.8,0-31.6-0.2-47.3,0.1c-5.4,0.1-8.1-1.4-7.2-7.1c0.3-0.4,0.6-0.9,0.9-1.3
	c2.5-1.9,4.1-4.6,6.3-6.8c3.4-2.2,5.1-6,8-8.7c3.8-5.6,1.8-11.9,2-17.8c0.6-14.8,2.7-17.4,17.8-17.1c11,0.2,22.2-2.4,32.9,2.1
	c2.9,3.2,6.3,4.9,10.8,4.8c4.4-0.1,9,0.2,12.2,4.2c3.7,8.8,4.1,17.6-0.4,26.4c-5.8,5.1-12.3,4.3-19,2.3c-7.7-5.1-4.5-11.8-3.6-18.4
	c-3,5.5-4.2,11,1.2,16.4c7.1,5.7,14.1,5.7,21.1-0.1c5.6-9.5,6.1-18.8-0.7-28c-5.7-6.3-15.8-0.3-21.2-7.4c-5.4-4.6-11.8-2.1-17.8-2.5
	c-6.5-0.4-13.1,0.1-19.6-0.2c-6.5-0.3-12.7-1.4-12.8-9.9c-0.2-9.1,6.3-10.4,13.3-10.7c6.2-0.2,12.3,0,18.5-0.2
	c3.8-0.1,7.8,0.9,11-2.1c3.6-5.4,11.2-3.2,15.1-8.1c6.5-9.1,6.1-18.4,0.5-27.8c-6.9-5.9-13.9-5.9-21-0.3c-1.5,1.6-3.4,2.9-3.6,7.3
	c1.5-4.6,2.9-7.3,5.7-8.9c6.6-2.2,12.9-2.7,18.8,1.9c4.9,8.5,4.2,17.2,1.1,26c-3.6,6.2-12.5,3.5-16.2,9.5
	c-11.5,4.5-23.4,2.2-35.1,1.7c-8.8-0.4-7.2-9.8-11.5-14.1c-2.7-3-4.9-6.6-8.4-8.9c-2.3-3.6-6.4-5.6-8.2-9.6
	c-1.9-10.7-2.7-21.3,0.7-31.9c6.9-9.5,15.7-13.6,27.2-9c3.4,5.1,9.6,4.8,14.3,7.1c0.7,0.6,1.1,0.9,1,0.9c0-0.5-0.3-0.8-0.9-0.9
	c-3.9-3.9-10.5-1.9-13.7-6.8c-2.2-2.7-5.6-2.3-8.5-3.2c-5.2-1.6-7.2-5.4-7-10.6c0.2-5.6,3.6-7.9,8.7-9c7-1.4,14.8,2.1,21-3.4
	c5.5-6.6,15-0.8,20.7-6.8c6.4-6.7,6.4-13.7,1.2-21c-2.5-2.5-4.9-5-7.5-7.5c-4.7-5-9.3-4.9-13.8,0.1c-4.6,4.3-5,8.8-0.5,13.3
	c0,0,0.1,0.2,0.2,0.2c-0.5-0.5-1-1.1-1.4-1.8c-1.6-4.3-1.3-8.3,1.8-11.8c4-3.1,8.1-3.5,12.5-1c3.2,3,6.4,6.1,9.3,9.4
	c2.9,6.3,3.2,12.6-0.5,18.8c-3.1,3.6-7.3,3.9-11.5,3.9c-4.5,0-8.2,1.2-11.1,4.7c-10.6,3.9-21.3,3.1-32,0.6c-6-3.7-3.4-12.7-9.7-16.2
	c-2.6-6.5-2.6-13,0-19.5c4.5-3.9,5.2-9,5-14.5c-0.1-4.6-0.2-9.3,2.1-13.5c6.5-8.6,7-31.9,0.7-41.1c-4.9-5.9,0.3-15.1-6.6-20.3
	c-2.3-3.2-5-5.8-8.2-8.1c-13.1-6.2-26.1-6.2-39.1,0.1c-4,3.5-10.6,1.7-13.8,6.9c-2.8,2.1-5.5,4.4-7.6,7.3c-2.8,2.1-5.2,4.7-7.3,7.5
	c-5.1,3.1-3.6,9.4-6.6,13.5c-5.4,3.9-4.1,9.6-4.2,15c0,4.5,0.3,9-2.6,12.9c-4.3,2.9-8.7,2.7-13.3,0.9c-4-5.7-11.4-4.7-16.4-8.5
	c-3.7-4.8-9-3.2-13.9-3.4c-3.8-0.2-7.7,0-11.5-0.1c-17.3-0.3-20.5-4.6-16.3-22.2c5.7-3.6,4.3-10.9,8.2-15.5
	c5.5-3.6,2.8-11.7,8.5-15.3c8.3-3.4,16.5-3.3,24.8-0.2c3.5,3,6.7,6.2,9.7,9.6c3.1,6.7,3.2,13.2-1.2,19.5c-6.4,4.4-13,4.3-19.7,0.8
	c-4-3.3-4.3-7.5-3-12c0.5-0.9,1.9-2.4,1.7-2.6c-1-1.1,0.5-0.5-0.7,0.7c-4.2,4.8-3.3,9.1,1.1,13.1c6.9,5.6,13.8,5.6,20.6-0.1
	c5.8-6.8,5.8-13.7,0.3-20.6c-2.5-2.6-5-5.1-7.6-7.6c-9.1-5.3-18.2-5.6-27.2,0.3c-5.1,3.2-3,10.1-6.9,13.9
	c-5.3,3.4-2.7,10.9-7.6,14.5c-2.3,1.5-4.5,1.1-6.5-0.7c-3.8-4.4-2.8-9.9-3.1-15c-0.3-4.4,0.8-9.2-3.5-12.4c-6.1-5.7-0.2-15.4-7-20.9
	c-5.8-5.5-0.5-14.5-6.2-20.1c-2.5-2.6-5-5.2-7.7-7.7c-2.5-2.5-5-5-7.5-7.5c-3.4-4.7-10.2-2.3-13.7-6.8c-11.3-5.5-22.7-5.4-34,0
	c-6.7,9-5.8,18.2-0.9,27.6c2.5,2.6,5.1,5.1,7.7,7.7c6.9,5.6,13.8,5.6,20.6-0.2c5.6-6.9,5.6-13.8,0.1-20.7c-5-3-5-3-10.1-0.3
	c4.3-0.7,9-3.1,11.7,2.3c2.1,6.4,2.7,12.7-1.6,18.6c-6.1,4.5-12.6,4.3-19.3,1.3c-3.5-3-6.8-6.3-9.8-9.9c-3-8.9-3.8-17.6,1.3-26.1
	c10.4-5.8,21.3-3.6,32.2-1.9c3.7,5.2,10.1,5.3,15.2,7.8c2.7,2.6,5.3,5.3,8,7.9c2.6,2.7,5.3,5.3,7.9,8c4.4,6-0.7,15,6.4,20.2
	c5.4,6-0.3,15.7,7.1,21c3.7,4.6,2.4,10.1,2.7,15.3c0.3,4.5-0.4,9.2,4,12.3c5.7,10.6,3,19.4-5.7,27c-4,4.1-11.2,2.2-14.6,7.6
	c-3.2,2.1-5.5,5.3-8.4,7.8c-6.2,3.7-15-0.5-20.1,6.6c-3.7,2.2-7.6,2.3-11.6,1.2c-3.7-1.2-5-5.3-8.3-6.9c-0.8-0.6-1.5-1.3-2.1-2.1
	c-1.4-2.6-3.5-4.5-6-6c-0.7-0.7-1.2-1.6-1.6-2.5c-1.1-4.2-0.9-8.9-5.3-11.5c-2-2.7-4.3-5.1-7.1-7.2c-2-2.7-4.4-5-7.1-7.1
	c-2-2.8-4.6-5-7.3-7.1c-6.8-6.5-13.3-5.6-19.7,0.6c-4.2,3-10.7,1.4-13.5,7c-5.5,3.1-3.8,10-7.3,14.2c-1.4,1.7-3.8,2.9-3.5,5.5
	c1.2,13.6-4.2,27.6,3.3,40.7c3.7,4.1,1.9,10.9,7.1,14.2c2.2,3.1,4.9,5.6,7.8,8c4.8,5.9,11.6,9.9,15.1,16.9c0.2,0.7,0.5,1.5,0.6,2.2
	c2.5,23.2,0,26.1-22.9,25.9c-8.7-0.1-17.5,1.4-26-1.4c-3.8-2.8-6.8-6.5-10.2-9.7c-2.9-4.4-2.6-8.7,0.5-12.9
	c3.7-3.3,7.8-3.7,12.2-1.8c2.5,1.7,4.2,3.9,4.5,7.4c1.5-3.3-1.4-4.1-2.4-5.7c-4.6-5-9.3-5.4-14-0.2c-5.2,4.8-4.9,9.5,0.2,14.2
	c2.8,2.9,5.6,5.7,8.5,8.4c8.1,3.6,16.7,1.1,25,1.8c3.8,0.3,7.7,0,11.5,0.2c6.5,0.3,12.7,1.4,12.8,9.9c0.1,9.1-6.4,10.1-13.3,10.7
	c-5.2,0.5-10.8-1.6-15.6,2.2c-14.3,9.7-14.8,10.9-8.6,21.9c6.8,5.9,13.8,5.9,20.9,0.4c3.2-3.1,5.5-6.2-0.5-12.5
	c1.4,6.5,4.1,11.2-1.3,13.9c-6.3,2.2-12.6,2.9-18.4-1.3c-7.9-10.8,0.7-16,7.3-21.9c10.6-4.6,21.5-3.2,32.3-1.1
	c3.9,2.6,6.9,6.2,10,9.6c2.9,8.4,2.6,16.8,0.4,25.2c-4.6,4.1-5.7,10.1-7.8,15.4c-5.4,3.6-4.2,10.6-7.7,15.1
	c-5.3,3.9-3.4,9.7-3.7,14.9c-0.8,12.3-2,14-13.9,14.9c-4.4,0.4-8.3,0.9-11.2,4.6c-10.5,4-21.1,3.4-31.8,0.6c-3.5-3-6.7-6.3-9.9-9.7
	c-3.2-6.6-3.3-13.1,1-19.4c5.8-4.6,12.2-4,18.7-1.9c7.6,6,2.6,9.1-4.7,12.9c10.1-0.8,13.9-3.1,7.1-11c-6.9-5.8-13.8-5.7-20.8-0.2
	c-5.7,6.8-5.7,13.8-0.3,20.7c2.6,2.7,5.2,5.3,7.9,7.9c11.8,4.3,23.4,6,34.7-1.5c11.5-3.7,22.7-5.4,32.1,4.8c3,2.2,4.4,6.1,7.8,7.8
	c0.8,0.6,1.5,1.3,2.2,2.1c1.3,2.1,2.9,3.9,4.8,5.5C184.3,489.7,184.6,490.1,184.9,490.5z"/>
<path class="st9" d="M233.3,497.1c-2.2,0-4.5,0-6.7,0c-5.6-6.2-16.1-8.7-14.8-20c2.4-2.8,5.5-5.3,4.6-9.7c0-7.5-0.1-15.1,0-22.6
	c0.5-3.8-0.6-6.9-3.9-9.1c-2.1-2.8-4.4-5.1-8.3-5c-2.2-0.3-4.2-0.8-5.9-2.3c-1.3-1.9-1.5-3.9-0.6-6c0-0.2,0.5-0.7,0.2-0.6
	c-0.7,0.2-1.3,0.6-2.1,0.7c-10.7-4.3-6.6-12.7-5.8-20.2c1.7-3.7,5.6-5.5,7.7-8.9c5.5-3.5,0.7-6.2-0.8-9.2
	c-5.9-11.7-11.2-23.5-7-37.1c0.9-3.1,6.7-5.6,1-9.4c-9-6.7-9.2-19.8-19-25.9c-2.4-2.4-4.1-5.5-7.2-7.2c-0.8-0.6-1.5-1.3-2.1-2.1
	c-1.4-2.7-4-4.4-6.1-6.4c-4-4.7-8.6-8.7-13.2-12.8c-0.8-0.8-1.4-1.8-1.8-2.9c-0.8-2.3-1-4.7-1.2-7.1c-0.3-10.1-0.3-20.1-0.1-30.2
	c0.1-2.4,0.3-4.8,1-7.1c0.4-1.1,0.9-2.1,1.6-3c2.6-1.9,5.1-4,6.9-6.6c2.4-2,4.8-4.2,6.5-6.8c0.8-0.8,1.7-1.3,2.8-1.7
	c5.4-1.3,10.9-1.2,16.3-0.3c1,0.3,2,0.7,2.8,1.3c2,2.1,3.4,4.9,6.1,6.2c0.8,0.6,1.5,1.3,2.1,2c1.3,2.1,2.9,3.8,5.1,5
	c0.8,0.6,1.5,1.3,2.1,2.1c1.4,2.8,4.3,4.2,6.4,6.3c1.9,2.4,3.5,5.1,5.8,7.1l-0.2-0.2c2.4,2.3,4.8,4.7,7.1,7.1l-0.2-0.2
	c1.7,1.4,2.4,3.3,2.7,5.3c0.2,3,1.1,5.6,4,7.1c0.8,0.6,1.4,1.4,1.8,2.3c0.8,1.8,1,3.7,1.3,5.6c0.9,2.8,2.1,1.4,3.4,0.3
	c0.8-0.7,1.7-1.2,2.6-1.5c2.1-0.7,4.2-0.9,6.3-1c8.8,0.9,15.8-4.9,21.7-9c8.3-5.7,17-11,25.4-16.6c5-2.4,11.1-2.7,14.7-7.7
	c5.9-2.3,11.8-2,17.8-0.7c3.8,0.8,4.8,5.9,9,6.1c2,0.3,4.1,0.6,6,1.4c0.9,0.4,1.7,1,2.5,1.8c1.4,2,2.9,3.9,5.7,4.1
	c2,0.3,4,0.5,5.9,1.2c0.9,0.4,1.7,1.1,2.4,1.8c1.4,2.1,3,3.9,5.2,5.1c0.8,0.6,1.5,1.3,2.1,2.1c1.4,2.7,4,4.2,6.2,6.1
	c1.9,2.3,3.3,4.9,5.6,6.7c-0.1-0.1-0.1-0.1-0.1-0.1c-0.4-0.5-0.8-1.1-1.2-1.7c-2-5.7-1.3-11.6-1.3-17.4c0-2.4-0.1-4.8,0.1-7.2
	c0.1-4,0-8.1,0.9-12.1c0.3-1,0.8-2,1.4-2.9c2-2,5-3.3,5-6.8c0.2-2,0.4-3.9,1.2-5.8c0.4-0.9,1-1.7,1.8-2.4c2.1-1.4,3.8-2.9,4-5.7
	c0.2-2,0.4-4,1.2-5.8c0.4-0.9,1-1.7,1.8-2.3c2-1.4,3.9-2.9,5.1-5.1c0.6-0.8,1.2-1.5,2-2.1c3.2-1.5,4.5-5.1,7.4-6.9
	c1.9-0.9,4-1.2,6.1-1.3c2.1-0.1,4.1-0.1,6.2-0.2c4.4,0.6,5.6-3.9,8.7-5.5c3.7-1.5,7.5-1.5,11.3-0.3c3.4,1.1,4.3,5.9,8.5,5.9
	c2,0.3,4,0.6,5.9,1.3c0.9,0.5,1.8,1.1,2.5,1.9c1.7,3.4,5.7,4.7,7.3,8.1c1.4,3.8,1.2,7.7,1.3,11.7c0,2.2,0,4.4,0,6.5
	c-0.8,4.6,3.8,6,5.4,9.1c1.6,3.9,1.6,7.8,0.1,11.7c-1.5,3.3-6.3,4.6-5.5,9.2c0,2.2,0,4.4,0,6.7c0,4,0.2,8.1-1.4,12
	c-1.7,3.2-6.3,4.7-5.5,9.4c0,2.3,0,4.6,0,6.9c0.2,6.2,0.2,12.5,0,18.7c0,2.5,0.1,4.9,0,7.4c0.6,8.1-1.4,15.2-8.2,20.4
	c-5.8,3.2-2.4,6.5,0,9.8c0.9,5.8,2.8,12.1-6.2,13.2c-0.9-0.3-1.8-0.7-2.5-1.5c0.3,0.4,0.7,1,1.2,1.7c0.6,2,0.5,4-0.8,5.4
	c-5.8,6.1-2.8,10.8,2.2,15.3c5.4,4.8,8.9,10.3,5.9,17.8c-2.8,3-4.1,6-0.4,9.3c0.8,2.1,0.8,4.2-0.4,6.2c-4,3.8-11.1,1.6-14.2,7.2
	c-1.8,1.3-3.8,1.9-5.9,2.2c-4.6,0-5.7,2.8-5.3,6.7c0,5.7,0.2,11.3,0,17c0,2.1,0,4.3-0.1,6.4c-0.5,4.2,1.4,6.2,5.7,5.8
	c2.2-0.1,4.4-0.1,6.6-0.1c6.3-0.2,12.5-0.2,18.8-0.1c2.6,0,5.2-0.1,7.8,0.2c8.9,0.8,9.7,7.2,9.7,14.2c-0.1,2.4-0.2,4.8-0.9,7.1
	c-0.3,1-0.8,2-1.4,2.9c-2.2,1.9-4.8,3.4-6.2,6.2c-0.5,0.8-1.2,1.5-2,2c-2.3,1.5-4.6,3-6.1,5.5c0.8,8.1-4.9,6.8-9.7,6.8
	c-45,0-90,0-135,0c-18.8,0-37.7-0.2-56.5-0.4C238.1,494.5,235.7,494.5,233.3,497.1z"/>
<path class="st10" d="M212.8,477.2c-0.3,7.6,6.8,9.4,10.9,13.3c2.2,2.2,2.6,4.1,2.9,6.6c-9.2,0-18.5,0-27.7,0
	c-2.5-2.1-4.8-4.4-7.1-6.6l0.1,0.1c-1.7-1.9-2-4-1.2-6.4c3.2-5,10.7-2,13.7-7.3c1.7-1.5,3.7-2.2,6-1.8
	C211.5,475.5,212.3,476.2,212.8,477.2z"/>
<path class="st11" d="M192,483.6c0,2.4-0.1,4.7-0.1,7.1c-2.3-0.1-4.7-0.1-7-0.2c0,0,0.1,0.2,0.1,0.2c-2.3-2.4-4.7-4.8-7.1-7.1
	l0.2,0.2c-1.9-2.3-2-4.7-0.4-7.1c2-2,4.5-2.6,7.2-2.7c2.7,0,5.3,0.5,7.4,2.3C194,478.7,193.7,481.2,192,483.6z"/>
<path class="st11" d="M441.7,490.7c-1.2-5.7,1.2-7.8,6.7-6.9c1.9,2.3,1.7,4.6-0.2,6.9c0,0,0.1-0.2,0.1-0.2
	C446.2,490.6,443.9,490.6,441.7,490.7z"/>
<path class="st11" d="M191.8,490.6c4.9-0.6,7.6,1.3,7.1,6.6C193.2,498.5,191.3,495.8,191.8,490.6z"/>
<path class="st10" d="M233.3,497.1c0.4-2.7-0.5-6.5,4.1-6.1c3.6,0.4,2.6,3.7,3,6.1C238.1,497.1,235.7,497.1,233.3,497.1z"/>
<path class="st0" d="M1044.6,157.8c-4.1-0.3-8.6,0.2-12.3-1.2c-3.2-1.2-1.4-5.4-1.6-8.3c-0.3-3.5,1.8-4.6,5-4.6c4.6,0,9.2,0,13.7,0
	c4.5,0,9-1.1,9.1,6.4c0.2,7.7-3.9,7.8-9.3,7.5c-1.5-0.1-3.1,0-4.6,0C1044.6,157.6,1044.6,157.7,1044.6,157.8z"/>
<path class="st2" d="M1186.9,344.8c-6.2,0.2-11.2,0.9-10.9-7.1c0.3-7.1,7.5-8.3,10-13.3c4.1,4.1,10.7,5.9,10.9,13.4
	C1197.3,347.1,1190.7,344.3,1186.9,344.8z"/>
<path class="st2" d="M1141.1,357.1c1.1,9.7,1.6,16.5-10.6,15.8c-8.4-0.5-10.3-3.3-9.9-10.9c0.5-9.1,7.1-17.5,14.5-17.2
	C1146.2,345.3,1139.3,354.1,1141.1,357.1z"/>
<path class="st2" d="M1245.5,357.4c-0.6,7.4,3.3,16.2-10.2,15.6c-8.6-0.4-11.2-2.7-10.8-11.2c0.4-9.6,5.5-15.3,13.8-16.6
	C1249.1,343.4,1244.1,352.9,1245.5,357.4z"/>
<path class="st2" d="M801.7,359.5c0.8,7.9,0.8,13.5-10.5,13.6c-13.3,0.1-9.7-8.2-10.2-15.1c-0.6-7.7-0.7-13.4,10.6-13.5
	C805,344.3,801.3,352.6,801.7,359.5z"/>
<path class="st2" d="M1287.1,358.7c-5.1-1.4-13.9,4.5-14-7.2c0-4.8,1.8-6.7,6.7-6.7c11.7,0,5.7,8.9,7.2,14
	C1286.9,358.8,1287.1,358.7,1287.1,358.7z"/>
<path class="st2" d="M1086.1,358.7c-5.1-1.4-13.9,4.5-14-7.2c0-4.8,1.8-6.7,6.7-6.7c11.7,0,5.7,8.9,7.2,14
	C1085.9,358.8,1086.1,358.7,1086.1,358.7z"/>
<path class="st2" d="M940.5,358.7c-5.1-1.4-13.9,4.5-14-7.2c0-4.8,1.8-6.7,6.7-6.7c11.7,0,5.7,8.9,7.2,14
	C940.4,358.8,940.5,358.7,940.5,358.7z"/>
<path class="st3" d="M517.7,441.9c-12.6,0-25.2,0.5-37.8-0.1c-8.2-0.4-12.1,1.5-11,10.6c0.7,6-0.2,12.2,0.2,18.3
	c0.3,5.5-2.6,6.4-7,6c-0.5-0.5-0.9-1-1.4-1.5c-1.4-2.4-1.6-5.1-1.8-7.8c-0.4-12.8-0.3-25.6-0.1-38.4c0-6.6-0.1-13.1,0.1-19.7
	c0.1-2.6,0.4-5.2,1.7-7.6c0.4-0.5,0.9-0.9,1.4-1.4c3.4,0,7.6-0.6,6.8,4.8c-1.3,9.4,4.3,9.4,11,9.2c10.3-0.3,20.5,0,30.8,0l-0.2-0.2
	c0.9,5.7-1.7,7.3-7.1,7.1c-9.2-0.3-18.4,0.2-27.6-0.2c-5.9-0.2-6.9,2.5-6.9,7.6c0,5.3,2.3,6.5,7,6.4c11.5-0.2,23,0.2,34.5-0.1
	c5.4-0.1,8,1.4,7.1,7.1L517.7,441.9z"/>
<path class="st3" d="M136.5,372.7c-0.5-4.4,0.3-7.5,5.9-7.1c5,0.3,10-0.1,14.9,0.1c4.7,0.2,6.9-1.3,6.9-6.5c0-5.2-1.2-7.7-7-7.6
	c-11.5,0.3-23-0.1-34.5,0.2c-5.4,0.1-8-1.5-7.1-7.1l-0.2,0.2c13.4,0,26.8-0.3,40.2,0c6.4,0.2,9-1.7,8.5-8.4
	c-0.5-6.5-0.1-13-0.1-19.5c0.5-0.4,1-0.8,1.5-1.2c2.6-0.8,4.9-0.6,6.7,1.8c2.1,4.1,1.8,8.5,1.8,12.9c0.1,2.5,0.1,5,0,7.5
	c0.2,2.5,0,5.1,0,7.6c-0.4,8.5,1.5,17.1-1.8,25.4c-0.5,0.5-0.9,1-1.4,1.4c-11.6,0-23.2,0-34.8-0.1L136.5,372.7z"/>
<path class="st3" d="M171.1,476.7c-10.2-9.2-22.8-6.5-34.8-7l0.2,0.2c-1-5.7,1.8-8,7.1-7c12.9,2.6,14.4-4.3,13.9-14.8
	c-0.2-4.6-4.9-13.6,6.6-13c0.4,0.4,0.8,0.7,1.2,1.1c2.9,5.7,1.3,11.9,2,17.6c2.8-4.6-1.9-16.8,11.4-11.6c4,7.5,2.3,15.4,2,23.2
	c-0.2,1.1-0.5,2.1-1,3.2c-1.9,3-5.5,4.2-7.4,7.3C171.9,476.1,171.5,476.4,171.1,476.7z"/>
<path class="st3" d="M455.2,317.1c11.6,0,23.2,0,34.8,0.1l-0.2-0.2c0.5,4.4-0.3,7.5-5.9,7.1c-4.2-0.3-8.4-0.1-12.6,0
	c-4.4,0.1-9.3-1.3-9.3,6.3c0,6.3,2.3,8.3,8.1,7.6c5.5-0.7,6.4,2.6,5.9,7l0.2-0.2c-10.4-2-19.2,2-27.8,7c-0.4-0.4-0.8-0.8-1.2-1.2
	c-1.1-2.1-1.4-4.4-1.4-6.7c0.1-2.3,0.6-4.5,1.9-6.5c7.3-4.6,2.9-13.2,6.4-19.1C454.4,317.9,454.8,317.5,455.2,317.1z"/>
<path class="st3" d="M316.5,241.1c-6.9,0-13.7,0-20.6,0c-3.7,2.9-8.1,2.7-12.4,2.6c-2.5-0.1-4.9-0.4-7.1-1.6
	c-0.4-0.4-0.9-0.9-1.3-1.3c4.9-8.6,9-17.5,7-27.9l-0.2,0.2c2.4,0,4.7,0,7.1,0l-0.2-0.2c0.2,20.9,0.2,20.9,20.9,20.9
	c4.9,0,9.9,0.3,14.8-0.1c5.5-0.4,6.3,2.7,5.9,7c-0.4,0.4-0.8,0.8-1.2,1.2c-2,1.1-4.2,1.4-6.5,1.4
	C320.4,243.4,318.4,242.5,316.5,241.1z"/>
<path class="st3" d="M136.4,282.4c-5.6,0.8-7.2-1.7-7.1-7.1c0.3-11.4,0.3-22.9,0-34.3c-0.2-5.4,1.5-7.9,7.1-7.1
	c0.4,0.5,0.9,0.9,1.3,1.4c1.3,2.3,1.6,4.9,1.7,7.5c0.3,10.2,0.3,20.5,0,30.8c-0.1,2.6-0.4,5.2-1.7,7.5
	C137.3,281.4,136.9,281.9,136.4,282.4z"/>
<path class="st3" d="M427.4,185.6c-4.6,0-9.1,0-13.7,0c-1.9,1.4-3.9,2.2-6.2,2.2c-2.3,0.1-4.5-0.2-6.5-1.3c-0.4-0.4-0.8-0.8-1.2-1.2
	c-0.4-4.4,0.4-7.2,5.9-7c9.9,0.3,19.8,0.3,29.7,0c5.5-0.2,6.3,2.7,5.9,7c-0.4,0.4-0.8,0.8-1.2,1.2c-2,1.1-4.2,1.4-6.5,1.4
	C431.3,187.8,429.3,187,427.4,185.6z"/>
<path class="st3" d="M454.9,240.7c0-4.6,0-9.1,0-13.7c-1.4-1.9-2.2-3.9-2.2-6.2c-0.1-2.3,0.2-4.5,1.3-6.5c0.4-0.4,0.8-0.8,1.2-1.2
	c4.3-0.4,7.2,0.4,7,5.9c-0.3,9.9-0.3,19.8,0,29.7c0.2,5.5-2.7,6.3-7,5.9c-0.4-0.4-0.8-0.8-1.2-1.2c-1.1-2-1.4-4.3-1.4-6.5
	C452.7,244.6,453.5,242.5,454.9,240.7z"/>
<path class="st3" d="M101.7,469.8c11.6,0,23.2,0,34.8,0c0,0-0.2-0.2-0.2-0.2c-3.1,15.4-14.7,4.2-22,6.5c-3.8,1.2-13.3,4.9-12.5-6.5
	L101.7,469.8z"/>
<path class="st3" d="M448.3,351.8c0,11.6,0,23.2,0,34.8c-0.6,0.4-1.1,0.7-1.7,1.1c-11-0.3-7.3-8.9-8.4-14.8
	c-0.1-4.6-0.2-9.3,0.1-13.9c0.1-2.8,0.7-5.4,2.5-7.6C443.5,349.7,445.9,349.9,448.3,351.8C448.3,351.8,448.3,351.8,448.3,351.8z"/>
<path class="st3" d="M233.5,122.7c-11.6,0-23.2,0-34.8,0l0.2,0.2c2.7-14.7,13.8-5,20.8-6.5c4.1-0.9,14.2-5.9,13.7,6.5L233.5,122.7z"
	/>
<path class="st3" d="M136.5,95.1c0.4-2.7-1.3-6.7,3.6-6.8c6.8-0.2,13.6-0.2,20.5,0c4.8,0.1,3.2,4.1,3.6,6.8
	c-0.5,0.4-0.9,0.9-1.4,1.3c-8.3,2.6-16.5,2.6-24.8,0C137.4,96,136.9,95.6,136.5,95.1z"/>
<path class="st3" d="M344.4,95.1c0.4-2.7-1.3-6.7,3.6-6.8c6.8-0.2,13.6-0.2,20.5,0c4.8,0.1,3.2,4.1,3.6,6.8
	c-0.5,0.4-0.9,0.9-1.4,1.3c-8.3,2.6-16.5,2.6-24.8,0C345.3,96,344.9,95.6,344.4,95.1z"/>
<path class="st3" d="M136.4,122.8c-2.7-0.4-6.7,1.3-6.8-3.6c-0.2-6.8-0.2-13.7,0-20.5c0.1-4.8,4.1-3.2,6.8-3.6c0,0-0.1-0.1-0.1-0.1
	c5.3,8.5,4,17.3,1.6,26.2C137.4,121.7,136.9,122.2,136.4,122.8z"/>
<path class="st3" d="M164.1,95.1c2.7,0.4,6.7-1.3,6.8,3.6c0.2,6.8,0.2,13.7,0,20.5c-0.1,4.8-4.1,3.2-6.8,3.6c-0.5-0.5-0.9-1-1.4-1.6
	c-2.5-8.9-3.7-17.8,1.6-26.2L164.1,95.1z"/>
<path class="st3" d="M344.4,122.8c-2.7-0.4-6.7,1.3-6.8-3.6c-0.2-6.8-0.2-13.7,0-20.5c0.1-4.8,4.1-3.2,6.8-3.6c0,0-0.1-0.1-0.1-0.1
	c5.3,8.5,4,17.3,1.6,26.2C345.4,121.7,344.9,122.2,344.4,122.8z"/>
<path class="st3" d="M372,95.1c2.7,0.4,6.7-1.3,6.8,3.6c0.2,6.8,0.2,13.7,0,20.5c-0.1,4.8-4.1,3.2-6.8,3.6c-0.5-0.5-0.9-1-1.4-1.6
	c-2.5-8.9-3.7-17.8,1.6-26.2L372,95.1z"/>
<path class="st3" d="M538.3,449c2.7,0.3,6.7-1.3,6.8,3.5c0.2,6.8,0.2,13.7,0,20.5c-0.1,4.8-4.1,3.2-6.8,3.5l0.2,0.2
	c0-9.3,0-18.6,0-27.9L538.3,449z"/>
<path class="st3" d="M517.7,476.6c-3.4,0-7.4,0.8-6.9-4.7c0.4-5.2-2.4-11.3,1.8-15.2c2.3-2.1,8-2.3,10.7,0.4c3,3-0.1,4.4-3.1,6.2
	c-5.2,3.1-1.6,9-2.7,13.5L517.7,476.6z"/>
<path class="st3" d="M420.6,115.9c0.4-2.7-1.3-6.7,3.6-6.8c6.8-0.2,13.6-0.2,20.5,0c4.8,0.1,3.2,4.1,3.6,6.8
	c-0.5,0.4-0.9,0.9-1.4,1.3c-8.3,2.6-16.5,2.6-24.8,0C421.6,116.8,421.1,116.4,420.6,115.9z"/>
<path class="st3" d="M420.6,143.6c-2.7-0.4-6.7,1.3-6.8-3.6c-0.2-6.8-0.2-13.7,0-20.5c0.1-4.8,4.1-3.2,6.8-3.6c0,0-0.1-0.1-0.1-0.1
	c5.3,8.5,4.1,17.3,1.6,26.2C421.6,142.5,421.1,143.1,420.6,143.6z"/>
<path class="st3" d="M448.3,115.9c2.7,0.4,6.7-1.3,6.8,3.6c0.2,6.8,0.2,13.7,0,20.5c-0.1,4.8-4.1,3.2-6.8,3.6
	c-0.5-0.5-0.9-1-1.4-1.6c-2.5-8.9-3.7-17.8,1.6-26.2L448.3,115.9z"/>
<path class="st3" d="M490,122.9c0.4-2.7-1.3-6.7,3.6-6.8c6.8-0.2,13.6-0.2,20.5,0c4.8,0.1,3.2,4.1,3.6,6.8c-0.5,0.4-0.9,0.9-1.4,1.3
	c-8.3,2.6-16.5,2.6-24.8,0C490.9,123.8,490.4,123.3,490,122.9z"/>
<path class="st3" d="M164.1,122.8c-0.4,2.7,1.3,6.7-3.6,6.8c-6.8,0.2-13.6,0.2-20.5,0c-4.8-0.1-3.2-4.1-3.6-6.8c0,0-0.1,0.1-0.1,0.1
	c9.3-5.4,18.6-5.4,27.9,0L164.1,122.8z"/>
<path class="st3" d="M198.7,122.7c0,9.3,0,18.6,0,27.9l0.2-0.2c-2.7-0.3-6.7,1.3-6.8-3.5c-0.2-6.8-0.2-13.7,0-20.5
	c0.1-4.8,4.1-3.2,6.8-3.5C198.9,122.9,198.7,122.7,198.7,122.7z"/>
<path class="st3" d="M372,122.8c-0.4,2.7,1.3,6.7-3.6,6.8c-6.8,0.2-13.6,0.2-20.5,0c-4.8-0.1-3.2-4.1-3.6-6.8c0,0-0.1,0.1-0.1,0.1
	c9.3-5.4,18.6-5.4,27.9,0L372,122.8z"/>
<path class="st3" d="M490,150.5c-2.7-0.4-6.7,1.3-6.8-3.6c-0.2-6.8-0.2-13.7,0-20.5c0.1-4.8,4.1-3.2,6.8-3.6c0,0-0.1-0.1-0.1-0.1
	c5.3,8.5,4.1,17.3,1.6,26.3C490.9,149.5,490.4,150,490,150.5z"/>
<path class="st3" d="M517.6,122.9c2.7,0.4,6.7-1.3,6.8,3.6c0.2,6.8,0.2,13.7,0,20.5c-0.1,4.8-4.1,3.2-6.8,3.6
	c-0.5-0.5-0.9-1-1.4-1.6c-2.5-8.9-3.7-17.8,1.6-26.2L517.6,122.9z"/>
<path class="st3" d="M81,268.5c-2.7-0.4-6.7,1.3-6.8-3.6c-0.2-6.8-0.2-13.7,0-20.5c0.1-4.8,4.1-3.2,6.8-3.6c0.4,0.5,0.9,0.9,1.3,1.4
	c2.6,8.3,2.6,16.5,0,24.8C81.9,267.5,81.5,268,81,268.5z"/>
<path class="st3" d="M108.6,240.8c2.7,0.4,6.7-1.3,6.8,3.6c0.2,6.8,0.2,13.7,0,20.5c-0.1,4.8-4.1,3.2-6.8,3.6
	c-0.4-0.5-0.9-0.9-1.3-1.4c-2.6-8.3-2.6-16.5,0-24.8C107.7,241.8,108.2,241.3,108.6,240.8z"/>
<path class="st3" d="M448.3,143.6c-0.4,2.7,1.3,6.7-3.6,6.8c-6.8,0.2-13.6,0.2-20.5,0c-4.8-0.1-3.2-4.1-3.6-6.8c0,0-0.1,0.1-0.1,0.1
	c9.3-5.4,18.6-5.4,27.9,0L448.3,143.6z"/>
<path class="st3" d="M81,157.5c0.4-2.7-1.3-6.7,3.6-6.8c6.8-0.2,13.6-0.2,20.5,0c4.8,0.1,3.2,4.1,3.6,6.8c-0.5,0.4-0.9,0.9-1.4,1.3
	c-8.3,2.6-16.5,2.6-24.8,0C81.9,158.5,81.5,158,81,157.5z"/>
<path class="st3" d="M517.6,150.5c-0.4,2.7,1.3,6.7-3.6,6.8c-6.8,0.2-13.6,0.2-20.5,0c-4.8-0.1-3.2-4.1-3.6-6.8c0,0-0.1,0.1-0.1,0.1
	c9.3-5.4,18.6-5.4,27.9,0L517.6,150.5z"/>
<path class="st3" d="M81,185.2c-2.7-0.4-6.7,1.3-6.8-3.6c-0.2-6.8-0.2-13.7,0-20.5c0.1-4.8,4.1-3.2,6.8-3.6c0,0-0.1-0.1-0.1-0.1
	c5.3,8.5,4.1,17.3,1.6,26.3C82,184.2,81.5,184.7,81,185.2z"/>
<path class="st3" d="M108.6,157.5c2.7,0.4,6.7-1.3,6.8,3.6c0.2,6.8,0.2,13.7,0,20.5c-0.1,4.8-4.1,3.2-6.8,3.6
	c-0.5-0.5-0.9-1-1.4-1.6c-2.5-8.9-3.7-17.8,1.6-26.2L108.6,157.5z"/>
<path class="st3" d="M330.6,185.2c-9.3,0-18.6,0-27.9,0l0.2,0.2c0.3-2.7-1.3-6.7,3.5-6.8c6.8-0.2,13.7-0.2,20.5,0
	c4.8,0.1,3.2,4.1,3.5,6.8C330.4,185.3,330.6,185.2,330.6,185.2z"/>
<path class="st3" d="M108.6,185.2c-0.4,2.7,1.3,6.7-3.6,6.8c-6.8,0.2-13.6,0.2-20.5,0c-4.8-0.1-3.2-4.1-3.6-6.8c0,0-0.1,0.1-0.1,0.1
	c9.3-5.4,18.6-5.4,27.9,0L108.6,185.2z"/>
<path class="st3" d="M219.6,192.2c0.4-2.7-1.3-6.7,3.6-6.8c6.8-0.2,13.6-0.2,20.5,0c4.8,0.1,3.2,4.1,3.6,6.8
	c-0.5,0.4-0.9,0.9-1.4,1.3c-8.3,2.6-16.5,2.6-24.8,0C220.6,193.2,220.1,192.7,219.6,192.2z"/>
<path class="st3" d="M282,212.9c-4.4,0.5-7.4-0.3-7.1-5.9c0.4-7.3,0.1-14.6,0.1-21.8l-0.2,0.2c4.4-0.5,7.4,0.3,7.1,5.9
	c-0.4,7.3-0.1,14.6-0.1,21.8C281.9,213.1,282,212.9,282,212.9z"/>
<path class="st3" d="M219.6,219.9c-2.7-0.4-6.7,1.3-6.8-3.6c-0.2-6.8-0.2-13.7,0-20.5c0.1-4.8,4.1-3.2,6.8-3.6c0,0-0.1-0.1-0.1-0.1
	c5.3,8.5,4.1,17.3,1.6,26.2C220.6,218.9,220.1,219.4,219.6,219.9z"/>
<path class="st3" d="M247.3,192.2c2.7,0.4,6.7-1.3,6.8,3.6c0.2,6.8,0.2,13.7,0,20.5c-0.1,4.8-4.1,3.2-6.8,3.6
	c-0.5-0.5-0.9-1-1.4-1.6c-2.5-8.9-3.7-17.8,1.6-26.2L247.3,192.2z"/>
<path class="st3" d="M108.6,268.5c-0.4,2.7,1.3,6.7-3.6,6.8c-6.8,0.2-13.6,0.2-20.5,0c-4.8-0.1-3.2-4.1-3.6-6.8c0,0-0.1,0.1-0.1,0.1
	c9.3-5.4,18.6-5.4,27.9,0L108.6,268.5z"/>
<path class="st3" d="M364.8,247.8c0.1,2.2,0.1,4.4,0.2,6.5c-2.6,2.6-4.1,6.3-7.3,8.4c-2.3,0.8-4.4,0.6-6.2-1.3l-0.3,0.1
	c-2.2-2.4-4.5-4.7-6.9-6.9l0.1-0.3c-1.9-1.5-2-3.5-1.2-5.6c0.4-0.4,0.7-0.8,1.1-1.1c4.6-0.1,9.2-0.3,13.9-0.4
	C360.5,245.8,362.7,245.8,364.8,247.8z"/>
<path class="st3" d="M247.3,219.9c-0.4,2.7,1.3,6.7-3.6,6.8c-6.8,0.2-13.6,0.2-20.5,0c-4.8-0.1-3.2-4.1-3.6-6.8c0,0-0.1,0.1-0.1,0.1
	c9.3-5.4,18.6-5.4,27.9,0L247.3,219.9z"/>
<path class="st3" d="M531.5,226.9c0.4-2.7-1.3-6.7,3.6-6.8c6.8-0.2,13.6-0.2,20.5,0c4.8,0.1,3.2,4.1,3.6,6.8
	c-0.5,0.4-0.9,0.9-1.4,1.3c-8.3,2.6-16.5,2.6-24.8,0C532.5,227.8,532,227.4,531.5,226.9z"/>
<path class="st3" d="M447.9,268.4c0.2-4.5,0.4-9.1,0.7-13.6c2.2-2.1,4.4-2,6.7-0.1c0,0-0.1-0.1-0.1-0.1c0,7.3-0.3,14.5,0.1,21.8
	c0.3,5.5-2.6,6.4-7,6c-0.4-0.4-0.8-0.8-1.2-1.2c-1.1-2-1.4-4.3-1.4-6.5C445.7,272.3,446.6,270.3,447.9,268.4z"/>
<path class="st3" d="M559.2,254.6c-0.4,2.7,1.3,6.7-3.6,6.8c-6.8,0.2-13.6,0.2-20.5,0c-4.8-0.1-3.2-4.1-3.6-6.8
	c0.5-0.4,0.9-0.9,1.4-1.3c8.3-2.6,16.5-2.6,24.8,0C558.2,253.7,558.7,254.1,559.2,254.6z"/>
<path class="st3" d="M531.5,254.6c-2.7-0.4-6.7,1.3-6.8-3.6c-0.2-6.8-0.2-13.7,0-20.5c0.1-4.8,4.1-3.2,6.8-3.6c0,0-0.1-0.1-0.1-0.1
	c5.4,9.3,5.3,18.6,0,27.9L531.5,254.6z"/>
<path class="st3" d="M559.2,226.9c2.7,0.4,6.7-1.3,6.8,3.6c0.2,6.8,0.2,13.7,0,20.5c-0.1,4.8-4.1,3.2-6.8,3.6c0,0,0.1,0.1,0.1,0.1
	c-1.8-2-2.8-4.3-3-7c-0.4-2.6-0.2-5.2-0.2-7.8c-0.1-4.7-0.2-9.3,3.2-13.1L559.2,226.9z"/>
<path class="st3" d="M81,240.8c0.4-2.7-1.3-6.7,3.6-6.8c6.8-0.2,13.6-0.2,20.5,0c4.8,0.1,3.2,4.1,3.6,6.8c0,0,0.1-0.1,0.1-0.1
	c-9.3,5.4-18.6,5.4-27.9,0L81,240.8z"/>
<path class="st3" d="M531.5,331c0.4-2.7-1.3-6.7,3.6-6.8c6.8-0.2,13.6-0.2,20.5,0c4.8,0.1,3.2,4.1,3.6,6.8c-0.5,0.4-0.9,0.9-1.4,1.3
	c-8.3,2.6-16.5,2.6-24.8,0C532.5,331.9,532,331.5,531.5,331z"/>
<path class="st3" d="M531.5,358.7c-2.7-0.4-6.7,1.3-6.8-3.6c-0.2-6.8-0.2-13.7,0-20.5c0.1-4.8,4.1-3.2,6.8-3.6c0,0-0.1-0.1-0.1-0.1
	c5.3,8.5,4,17.3,1.6,26.3C532.5,357.7,532,358.2,531.5,358.7z"/>
<path class="st3" d="M559.2,331c2.7,0.4,6.7-1.3,6.8,3.6c0.2,6.8,0.2,13.7,0,20.5c-0.1,4.8-4.1,3.2-6.8,3.6c-0.5-0.5-0.9-1-1.4-1.6
	c-2.5-8.9-3.7-17.8,1.6-26.2L559.2,331z"/>
<path class="st3" d="M559.2,358.7c-0.4,2.7,1.3,6.7-3.6,6.8c-6.8,0.2-13.6,0.2-20.5,0c-4.8-0.1-3.2-4.1-3.6-6.8c0,0-0.1,0.1-0.1,0.1
	c9.3-5.4,18.6-5.4,27.9,0L559.2,358.7z"/>
<path class="st3" d="M136.3,372.5c-1.3,7.3-10.3,12.1-6.9,21l0.2-0.2c-12.3,0.5-5.6-8.8-6.8-13.8c-1.4-5.3,1.6-7.6,7-7
	c2.2,0.2,4.5,0.1,6.8,0.1C136.5,372.7,136.3,372.5,136.3,372.5z"/>
<path class="st3" d="M74.1,386.5c0.4-2.7-1.3-6.7,3.6-6.8c6.8-0.2,13.6-0.2,20.5,0c4.8,0.1,3.2,4.1,3.6,6.8
	c-0.5,0.4-0.9,0.9-1.4,1.3c-8.3,2.6-16.5,2.6-24.8,0C75,387.4,74.5,387,74.1,386.5z"/>
<path class="st3" d="M178,407.3c0-9.3,0-18.6,0-27.8c0.5-0.4,1.1-0.7,1.6-1.1c6.5-1.2,7.5,3.3,8.2,8.1c0.3,4.4,0.2,8.7,0.1,13.1
	c-0.1,2.5-0.5,5-1.8,7.2c-1.8,2.3-4.1,2.6-6.7,1.7C179,408.1,178.5,407.7,178,407.3z"/>
<path class="st3" d="M524.5,379.6c2.7,0.3,6.7-1.3,6.8,3.5c0.2,6.8,0.2,13.7,0,20.5c-0.1,4.9-4.1,3.2-6.8,3.6l0.2,0.2
	c0-9.3,0-18.6,0-27.9L524.5,379.6z"/>
<path class="st3" d="M74.1,414.2c-2.7-0.4-6.7,1.3-6.8-3.6c-0.2-6.8-0.2-13.7,0-20.5c0.1-4.8,4.1-3.2,6.8-3.6l-0.1-0.1
	c5.3,8.5,4.1,17.3,1.6,26.3C75,413.2,74.5,413.7,74.1,414.2z"/>
<path class="st3" d="M101.7,386.5c2.7,0.4,6.7-1.3,6.8,3.6c0.2,6.8,0.2,13.7,0,20.5c-0.1,4.8-4.1,3.2-6.8,3.6
	c-0.5-0.5-0.9-1-1.4-1.6c-2.5-8.9-3.7-17.8,1.6-26.2L101.7,386.5z"/>
<path class="st3" d="M115.5,442.1c6.9-1.2,7.1,3,7.1,8.1c0,5.8-3.4,5.8-7.5,5.7c-1.5-0.1-3.1,0.2-4.5-0.1c-3-0.6-7.9,2-8.4-3
	c-0.6-5.7,4.7-3.9,7.5-3.8c5.6,0.2,6.2-2.9,6-7.2L115.5,442.1z"/>
<path class="st3" d="M101.7,414.2c-0.4,2.7,1.3,6.7-3.6,6.8c-6.8,0.2-13.6,0.2-20.5,0c-4.8-0.1-3.2-4.1-3.6-6.8c0,0-0.1,0.1-0.1,0.1
	c9.3-5.4,18.6-5.4,27.9,0L101.7,414.2z"/>
<path class="st3" d="M150.4,393.5c-0.2-1.9,0.1-4.1-0.8-5.5c-1.5-2.4-8-1.1-5.6-6.4c1.8-3.8,6.1-1.9,9.3-1.8
	c5.5,0.2,3.5,4.7,3.9,7.8c0.7,5.5-2.6,6.3-7,5.8L150.4,393.5z"/>
<path class="st3" d="M157.2,213c-1.2-9.2,5.6-6.9,10.4-6.9c4.7,0,11.5-2.4,10.4,6.9c-0.4,0.4-0.9,0.9-1.3,1.3
	c-6,2.3-12.1,2.3-18.1,0C158.1,213.9,157.7,213.5,157.2,213z"/>
<path class="st3" d="M129.4,393.5c7,0,14,0,21,0c0,0-0.2-0.2-0.2-0.2c1.3,9.3-5.6,6.9-10.3,6.9c-4.7,0-11.6,2.4-10.3-6.9
	C129.5,393.3,129.4,393.5,129.4,393.5z"/>
<path class="st3" d="M337.5,213.1c0-7,0-14,0-21l-0.2,0.2c9.3-1.3,6.9,5.6,6.9,10.3c0,4.7,2.4,11.6-6.9,10.3L337.5,213.1z"/>
<path class="st3" d="M448.6,212.9c-0.2-4.5-0.5-9.1-0.7-13.6c-1.3-1.8-1.7-3.7-0.8-5.9c0.4-0.4,0.7-0.8,1.1-1.1
	c4.4-0.5,7.4,0.3,7,5.9c-0.3,4.9-0.1,9.9-0.1,14.9c0,0,0.1-0.1,0.1-0.1C453,214.8,450.8,215,448.6,212.9z"/>
<path class="st3" d="M503.8,379.6c-1.3-9.3,5.6-6.9,10.3-6.9c4.7,0,11.6-2.4,10.3,6.9c0,0,0.2-0.2,0.2-0.2c-7,0-14,0-21,0
	L503.8,379.6z"/>
<path class="st3" d="M337.3,212.9c1.3,9.3-5.6,6.9-10.3,6.9c-4.7,0-11.6,2.4-10.3-6.9l-0.2,0.2c7,0,14,0,21,0
	C337.5,213.1,337.3,212.9,337.3,212.9z"/>
<path class="st3" d="M441.7,303c0-6.8,0-13.6,0-20.5c2.2-2.1,4.4-2,6.7-0.1c0,0-0.1-0.1-0.1-0.1c0,7,0,13.9,0,20.9
	c-0.4,0.4-0.8,0.7-1.1,1.1C445.1,305.1,443.2,305,441.7,303z"/>
<path class="st3" d="M510.6,289.4c9.3-1.3,6.9,5.6,6.9,10.3c0,4.7,2.4,11.6-6.9,10.3l0.2,0.2c0-7,0-14,0-21L510.6,289.4z"/>
<path class="st3" d="M490,317.2c-0.5-4.4,0.3-7.5,5.9-7.1c4.9,0.4,9.9,0.1,14.9,0.1c0,0-0.2-0.2-0.2-0.2c0.5,4.4-0.3,7.5-5.9,7.1
	c-4.9-0.4-9.9-0.1-14.9-0.1C489.8,317,490,317.2,490,317.2z"/>
<path class="st3" d="M164.2,317.1c-8-1.3-12.6-5.9-13.9-13.9c0.4-0.4,0.8-0.8,1.2-1.2c2-1.1,4.3-1.4,6.6-1.3c2.3,0.1,4.4,0.8,6,2.7
	l0,0c1.9,1.9,2.8,4.2,2.8,6.9C166.9,312.9,165.9,315.1,164.2,317.1L164.2,317.1z"/>
<path class="st3" d="M115.7,441.9c-7,0-14,0-21,0l0.2,0.2c-1.3-9.3,5.6-6.9,10.3-6.9c4.7,0,11.6-2.4,10.3,6.9
	C115.5,442.1,115.7,441.9,115.7,441.9z"/>
<path class="st3" d="M268,164.5c4.4-0.5,7.5,0.3,7.1,5.9c-0.3,5-0.1,9.9-0.1,14.9c0,0,0.2-0.2,0.2-0.2c-4.4,0.5-7.5-0.3-7.1-5.9
	c0.4-4.9,0.1-9.9,0.1-14.9L268,164.5z"/>
<path class="st3" d="M94.9,462.7c-9.3,1.3-6.9-5.6-6.9-10.3c0-4.7-2.4-11.6,6.9-10.3c0,0-0.2-0.2-0.2-0.2c0,7,0,14,0,21L94.9,462.7z
	"/>
<path class="st3" d="M226.4,157.4c1.3,9.3-5.6,6.9-10.3,6.9c-4.7,0-11.6,2.4-10.3-6.9l-0.2,0.2c7,0,14,0,20.9,0L226.4,157.4z"/>
<path class="st3" d="M233.2,275.3c-2.2,0-4.5-0.1-6.7-0.1c-2.8-1.8-4.4-4.6-6.7-6.8l-0.3,0.1c-1.7-1.7-1.9-3.6-1-5.7
	c0.4-0.4,0.7-0.8,1.1-1.2c4.6,0,9.3,0,13.9,0c0.4,0.4,0.8,0.8,1.2,1.2c1.1,2.1,1.4,4.3,1.3,6.6C235.8,271.7,235.2,273.8,233.2,275.3
	z"/>
<path class="st3" d="M538.5,448.9c-5,0-10-0.2-14.9,0.1c-5.6,0.4-6.4-2.7-5.9-7.1c0,0-0.2,0.2-0.2,0.2c5,0,10,0.2,14.9-0.1
	c5.6-0.4,6.4,2.7,5.9,7.1C538.3,449,538.5,448.9,538.5,448.9z"/>
<path class="st3" d="M261.1,143.7c4.4-0.5,7.5,0.3,7.1,5.9c-0.3,5-0.1,9.9-0.1,14.9c0,0,0.2-0.2,0.2-0.2c-4.4,0.5-7.5-0.3-7.1-5.9
	c0.4-5,0.1-9.9,0.1-14.9L261.1,143.7z"/>
<path class="st3" d="M226.6,157.6c0-7,0-14,0-21l-0.2,0.2c9.3-1.3,6.9,5.6,6.9,10.3c0,4.7,2.4,11.6-6.9,10.3
	C226.4,157.4,226.6,157.6,226.6,157.6z"/>
<path class="st3" d="M233.5,261.6c-0.4-4.4,0.4-7.4,6-7c4.9,0.4,9.9,0.1,14.9,0.1c0.4,0.6,0.7,1.1,1.1,1.7c-0.3,11-8.8,7.3-14.8,8.2
	C237.9,264.5,235.5,263.4,233.5,261.6L233.5,261.6z"/>
<path class="st3" d="M226.6,136.6c-1.9,0.2-4.1-0.1-5.5,0.8c-2.4,1.5-1.1,8-6.4,5.6c-3.8-1.8-1.9-6.1-1.8-9.3
	c0.2-5.5,4.7-3.5,7.8-3.9c5.5-0.7,6.3,2.6,5.8,7C226.4,136.8,226.6,136.6,226.6,136.6z"/>
<path class="st3" d="M538.3,476.6c1.3,9.3-5.6,6.9-10.3,6.9c-4.7,0-11.6,2.4-10.3-6.9c0,0-0.2,0.2-0.2,0.2c7,0,14,0,21,0
	C538.5,476.8,538.3,476.6,538.3,476.6z"/>
<path class="st3" d="M108.6,324c0,4.7,0,9.4,0,14l0.2-0.2c-5.4,0.9-7.2-1.4-7.2-6.9c0-5.4,1.7-7.8,7.2-6.9L108.6,324z"/>
<path class="st3" d="M330.5,240.8c4.8,2,14.2-5.3,13.9,6.9c0,0,0.1-0.1,0.1-0.1c-2,1.8-4.3,2.7-6.9,2.7c-2.7,0.1-5-0.9-7-2.6
	l0.1-0.3C328.6,245.3,328.6,243,330.5,240.8L330.5,240.8z"/>
<path class="st3" d="M490,296.2c-5.4,0.9-7.2-1.4-7.2-6.9c0-5.4,1.7-7.8,7.2-6.9l-0.2-0.2c0,4.7,0,9.4,0,14L490,296.2z"/>
<path class="st3" d="M171.1,421.2c1.9-4.8-5.2-14.2,6.9-13.9c0,0-0.1-0.1-0.1-0.1c1.7,1.8,2.6,4,2.7,6.6c0.1,2.5-0.3,4.9-1.6,7
	c-1.8,2.1-4.1,2.4-6.6,1.5C172,422,171.5,421.6,171.1,421.2z"/>
<path class="st3" d="M510.8,414.3c-0.5-12.5,9.1-5,13.9-6.9c0,0-0.2-0.2-0.2-0.2c0.4,12.5-9.1,5-13.9,6.9
	C510.6,414.2,510.8,414.3,510.8,414.3z"/>
<path class="st3" d="M476,344.9c4.8,2,14.3-5.6,13.9,6.9l0.2-0.2c-4.8-2-14.3,5.5-13.9-6.9C476.1,344.8,476,344.9,476,344.9z"/>
<path class="st3" d="M164.2,435.1c1.9-4.8-5.2-14.2,6.9-13.9c0,0-0.1-0.1-0.1-0.1c1.8,2,2.8,4.4,2.8,7.1c0,2.7-0.5,5.3-2.4,7.4
	C168.8,437.2,166.4,436.9,164.2,435.1L164.2,435.1z"/>
<path class="st3" d="M205.7,247.8c-5.4,0.8-7.7-1.6-7.3-6.9c-1.3-1.8-1.8-3.8-0.8-5.9c0.4-0.4,0.7-0.8,1.1-1.1
	C211,233.5,203.7,243.1,205.7,247.8z"/>
<path class="st3" d="M261.2,247.8c-0.4-12.4,9.1-4.9,13.8-7c0,0-0.1-0.1-0.1-0.1c1.9,2.2,2.1,4.6,0.7,7.2c-4.1,3.2-8.5,3-13,1.2
	C262.2,248.7,261.7,248.2,261.2,247.8z"/>
<path class="st11" d="M364.8,247.8c-2.2-0.2-4.4-0.3-6.6-0.5c0.1-4.5,0.3-9,0.4-13.6c2.1-1.8,4.2-1.9,6.4-0.1
	C364.9,238.4,364.9,243.1,364.8,247.8z"/>
<path class="st3" d="M399.6,191.9c-2.2,0.2-4.5,0.5-6.7,0.7c-1.8,1.3-3.7,1.7-5.8,0.8c-0.4-0.4-0.8-0.7-1.1-1.1
	c-0.4-12.4,9.1-4.9,13.8-7c0,0-0.1-0.1-0.1-0.1C401.6,187.5,401.7,189.7,399.6,191.9z"/>
<path class="st3" d="M295.9,199.2c2-4.8-5.6-14.3,6.9-13.9c0,0-0.2-0.2-0.2-0.2c-2,4.8,5.5,14.3-6.9,13.9L295.9,199.2z"/>
<path class="st3" d="M122.5,324.1c6,1.3,9.5,8.1,6.2,12.2c-0.6,0.7-1.8,1.3-2.8,1.3c-2.3,0.1-3.2-1.5-3.3-3.6c-0.1-3.4,0-6.7,0-10.1
	L122.5,324.1z"/>
<path class="st3" d="M143.4,296.2c-12.4,0.4-4.9-9.1-7-13.8c0,0-0.1,0.1-0.1,0.1c2.3-1.9,4.6-1.9,6.8,0.1l0.3-0.1
	c3.1,3.9,3.3,8.1,1.3,12.5C144.3,295.3,143.8,295.8,143.4,296.2z"/>
<path class="st3" d="M365.2,220c2-4.8-5.2-14.2,6.9-13.9c0.4,0.4,0.8,0.8,1.2,1.2c1.1,2,1.4,4.3,1.3,6.6c0,2.4-0.9,4.4-2.5,6.1
	l-0.3-0.1c-1.5,1.9-3.5,2-5.6,1.2C365.9,220.7,365.5,220.3,365.2,220z"/>
<path class="st3" d="M316.7,212.9c-5.4,0.9-7.2-1.4-7.2-6.9c0-5.4,1.7-7.8,7.2-6.9l-0.2-0.2c0,4.7,0,9.4,0,14
	C316.5,213.1,316.7,212.9,316.7,212.9z"/>
<path class="st3" d="M289,213.1c2-4.8-5.5-14.4,6.9-13.9c0,0-0.2-0.2-0.2-0.2c-2,4.8,5.5,14.3-6.9,13.9
	C288.8,212.9,289,213.1,289,213.1z"/>
<path class="st3" d="M364.9,233.7c-2.1,0-4.3,0-6.4,0.1c1.4-5-5.7-14,6.6-13.8c0,0-0.1-0.1-0.1-0.1c1.8,2,2.7,4.3,2.7,6.9
	c0.1,2.7-0.9,5-2.6,7L364.9,233.7z"/>
<path class="st3" d="M448.3,303.2c12.2-0.3,5,9.1,6.9,13.9c0,0,0.1-0.1,0.1-0.1c-2.3,1.9-4.7,2.1-7.3,0.6c-1.9-2.1-2.4-4.6-2.5-7.3
	C445.5,307.6,446.5,305.2,448.3,303.2L448.3,303.2z"/>
<path class="st3" d="M143.4,220c-0.3-12.2,9.1-5,13.9-6.9c0,0-0.1-0.1-0.1-0.1c1.9,2.3,1.9,4.6-0.1,6.8l0.1,0.3
	c-1.7,1.6-3.8,2.4-6.1,2.5c-2.3,0.1-4.5-0.2-6.6-1.3C144.1,220.8,143.8,220.4,143.4,220z"/>
<path class="st3" d="M490,282.5c-0.9-5.4,1.4-7.2,6.9-7.2c5.4,0,7.8,1.7,6.9,7.2l0.2-0.2c-4.7,0-9.3,0-14,0
	C489.8,282.3,490,282.5,490,282.5z"/>
<path class="st3" d="M503.7,379.5c0,1.5,0.3,3.1,0,4.5c-0.7,3.2,2.4,8.1-3.3,9.2c-3,0.6-3.4-2.1-3.5-4.5c-0.2-5-0.9-10.3,7-9
	C503.8,379.6,503.7,379.5,503.7,379.5z"/>
<path class="st3" d="M233.4,122.9c4.8,2,14.3-5.6,13.9,6.9l0.2-0.2c-4.8-2-14.3,5.5-13.9-6.9C233.5,122.7,233.4,122.9,233.4,122.9z"
	/>
<path class="st3" d="M136.4,233.9c2-4.8-5.2-14.2,6.9-13.9c0,0-0.1-0.1-0.1-0.1c1.8,2,2.7,4.3,2.7,6.9c0.1,2.7-0.9,5-2.6,7l-0.3-0.1
	C140.9,235.8,138.7,235.7,136.4,233.9L136.4,233.9z"/>
<path class="st3" d="M108.8,324.1c-0.9-5.4,1.4-7.2,6.9-7.2c5.4,0,7.7,1.7,6.8,7.2c0,0,0.2-0.2,0.2-0.2c-4.7,0-9.3,0-14,0
	C108.6,324,108.8,324.1,108.8,324.1z"/>
<path class="st3" d="M247.2,129.8c5.5-0.9,7.8,1.4,6.9,6.9l0.2-0.2c-5.5,0.9-7.8-1.4-6.9-6.9C247.4,129.7,247.2,129.8,247.2,129.8z"
	/>
<path class="st3" d="M254.2,136.8c5.5-0.9,7.8,1.4,6.9,6.9c0,0,0.2-0.2,0.2-0.2c-5.5,0.9-7.8-1.4-6.9-6.9
	C254.3,136.6,254.2,136.8,254.2,136.8z"/>
<path class="st3" d="M205.8,157.4c-5.5,0.9-7.8-1.4-6.9-6.9c0,0-0.2,0.2-0.2,0.2c5.5-0.9,7.8,1.4,6.9,6.9
	C205.6,157.6,205.8,157.4,205.8,157.4z"/>
<path class="st3" d="M337.5,192.1c-5.5,0.9-7.8-1.4-6.9-6.9c0,0-0.2,0.2-0.2,0.2c5.5-0.9,7.8,1.4,6.9,6.9
	C337.3,192.3,337.5,192.1,337.5,192.1z"/>
<path class="st3" d="M108.6,338c5.5-0.9,7.8,1.4,6.9,6.9c0,0,0.2-0.2,0.2-0.2c-5.5,0.9-7.8-1.4-6.9-6.9
	C108.8,337.8,108.6,338,108.6,338z"/>
<path class="st3" d="M441.4,185.3c5.5-0.8,7.8,1.5,6.9,7c0,0,0.1-0.1,0.1-0.1c-2.3,2-4.6,1.9-7,0.1l0.1-0.3
	C439.5,189.8,439.6,187.5,441.4,185.3L441.4,185.3z"/>
<path class="st3" d="M316.7,199.2c0.4-2.6-1.4-6.4,3.3-6.8c2.2-0.2,3.5,1.1,3.3,3.3c-0.4,4.7-4.2,3-6.8,3.3
	C316.5,199.1,316.7,199.2,316.7,199.2z"/>
<path class="st3" d="M379.1,199.2c-0.9-5.5,1.5-7.8,6.9-6.9c0,0-0.1-0.1-0.1-0.1c1.9,2.3,2,4.6-0.1,6.9l0,0
	c-1.5,1.9-3.5,2.1-5.6,1.2C379.8,199.9,379.4,199.5,379.1,199.2z"/>
<path class="st3" d="M372.1,206.1c-0.8-5.5,1.5-7.8,7-6.9l-0.1-0.1c2,2.3,1.9,4.6,0.1,7l-0.3-0.1C376.6,208,374.3,207.9,372.1,206.1
	L372.1,206.1z"/>
<path class="st3" d="M489.8,351.9c2.6,0.4,6.4-1.4,6.8,3.3c0.2,2.2-1.1,3.5-3.3,3.3c-4.7-0.4-3-4.2-3.3-6.8
	C490,351.7,489.8,351.9,489.8,351.9z"/>
<path class="st3" d="M178,213c5.5-0.8,7.8,1.5,6.9,7c-0.4,0.4-0.8,0.7-1.2,1.1c-2.1,0.9-4.1,0.6-5.7-1l0.1-0.3
	C176.1,217.5,176.2,215.3,178,213L178,213z"/>
<path class="st3" d="M184.9,220c5.5-0.9,7.8,1.4,7,6.9c-0.4,0.4-0.8,0.7-1.1,1.1c-2.1,0.8-4,0.7-5.6-1.2l-0.3,0.1
	c-1.8-2.4-1.8-4.7,0.1-7L184.9,220z"/>
<path class="st3" d="M178,379.5c-5.5,0.9-7.8-1.4-7-6.9c0,0-0.1,0.1-0.1,0.1c2.4-1.9,4.8-2.1,7.4-0.4c1.7,2.6,1.4,5.1-0.5,7.4
	L178,379.5z"/>
<path class="st3" d="M191.8,226.9c5.5-0.8,7.8,1.5,6.9,6.9c0,0,0.1-0.1,0.1-0.1c-2.3,1.9-4.7,1.9-7,0l0.1,0.1
	C190,231.5,190,229.2,191.8,226.9L191.8,226.9z"/>
<path class="st3" d="M448.3,386.5c5.5-0.9,7.8,1.4,6.9,6.9c-0.5,0.4-1.1,0.7-1.6,1.1c-6.7,0.4-8.2-2.4-5.2-8.2L448.3,386.5z"/>
<path class="st3" d="M455.2,393.5c5.5-0.9,7.8,1.4,7,6.9c0,0,0.1-0.1,0.1-0.1c-2.4,1.9-4.8,2.1-7.4,0.4c-1.7-2.6-1.4-5.1,0.5-7.4
	L455.2,393.5z"/>
<path class="st3" d="M212.7,254.8c-5.5,0.7-7.8-1.6-7.1-7.1C211.1,246.9,213.5,249.3,212.7,254.8z"/>
<path class="st3" d="M254.3,254.7c-0.9-5.5,1.4-7.8,6.9-6.9c0,0-0.1-0.1-0.1-0.1c2.7,7.4,0.4,9.7-6.9,6.9L254.3,254.7z"/>
<path class="st3" d="M212.8,261.3c-0.1-2.2-0.2-4.5-0.3-6.7c5.4-0.7,8,1.4,7,7c0,0,0.1-0.1,0.1-0.1
	C217.3,263.4,215,263.5,212.8,261.3z"/>
<path class="st3" d="M503.7,282.5c5.5-0.9,7.8,1.4,6.9,6.9c0,0,0.2-0.2,0.2-0.2c-5.5,0.9-7.8-1.4-6.9-6.9
	C503.8,282.3,503.7,282.5,503.7,282.5z"/>
<path class="st3" d="M150.3,303.2c-5.5,0.8-7.8-1.5-6.9-7c0,0-0.1,0.1-0.1,0.1c2.3-1.9,4.8-2.2,7.4-0.5
	C152.4,298.4,152.1,300.9,150.3,303.2L150.3,303.2z"/>
<path class="st3" d="M101.8,469.7c-5.5,0.9-7.8-1.4-6.9-6.9c0,0-0.2,0.2-0.2,0.2c5.5-0.9,7.8,1.4,6.9,6.9
	C101.7,469.8,101.8,469.7,101.8,469.7z"/>
<path class="st3" d="M489.8,296.4c2.6,0.4,6.4-1.4,6.8,3.3c0.2,2.2-1.1,3.5-3.3,3.3c-4.7-0.4-3-4.2-3.3-6.8
	C490,296.2,489.8,296.4,489.8,296.4z"/>
<path class="st3" d="M177.9,476.6c0,2.4,0.1,4.7,0.1,7.1c-5.3,0.6-7.9-1.5-7-7.1c0,0-0.1,0.1-0.1,0.1c1.6-1.8,3.6-2,5.7-1.2
	C177.1,475.9,177.5,476.3,177.9,476.6z"/>
<path class="st3" d="M462.1,476.7c0.8,5.5-1.5,7.8-7,6.9c-0.4-0.4-0.7-0.8-1.1-1.2c-0.9-2.1-0.6-4.1,1-5.7l0.3,0.1
	C457.7,474.8,459.9,474.9,462.1,476.7L462.1,476.7z"/>
<path class="st3" d="M177.9,483.6c5.4-0.7,7.8,1.7,7.1,7.1C179.6,491.3,177.2,489,177.9,483.6z"/>
<path class="st3" d="M448.3,490.7c0.1-2.3,0.1-4.6,0.2-6.9c0,0-0.1-0.3-0.1-0.3c2.4-1.8,4.7-1.8,7,0.1c0,0-0.1-0.1-0.1-0.1
	C456.1,489.1,453.6,491.3,448.3,490.7z"/>
<path class="st10" d="M455.3,393.4c0.1,2.3,0.1,4.5,0.2,6.8c1.4,1.7,1.9,3.5,1.3,5.7c-0.4,1-1,1.8-1.8,2.4c-1.9,1-3.9,1-5.9,0.3
	c-0.9-0.4-1.6-1-2.3-1.8c-1.3-2-2.9-3.7-4.9-4.9c-0.8-0.6-1.4-1.2-2-2c-1.2-2-2.8-3.7-4.7-5.3c-0.3-0.4-0.5-0.8-0.8-1.2
	c2.5-8.6-2.6-14.7-8.2-19.1c-8.2-6.5-8.8-11.3,0.1-17.3c1.1-0.7,0.8-3.5,1.2-5.4l-0.1,0.1c11.3-0.1,5.4-8.9,7-14
	c0.2-0.4,0.5-0.8,0.7-1.2c1.5-1.5,1.4-3-0.1-4.5c-0.2-0.4-0.4-0.8-0.7-1.2c0.6-7.6,10.7-12,7.1-21c2.2-1.6,4.4-1.7,6.4,0.3
	c0.2,2.2,0.4,4.4,0.6,6.6c4.3,7.1,4.3,14.1,0,21.2c-0.2,2.2-0.4,4.4-0.6,6.7c-2.1,2.4-4.4,4.7-6.3,7.2c-0.2,2.2-0.4,4.4-0.6,6.7
	c-4.5,4.7-4.5,9.4,0,14.1c2.7,4.4-5.1,14.5,7.4,13.7C447.4,392,449.8,394.3,455.3,393.4z"/>
<path class="st11" d="M399.6,275.2c-4.5,0-8.9,0-13.4,0c-2.6-2.1-4.9-4.4-6.9-7c0-2.3,0.1-4.6,0.1-6.8c4.7-3.6,2.8-10,6.1-14.2
	c5.2-3.1,3.5-9.8,7.4-13.6l-0.2,0.2c3.6-3.1,7.6-3.2,11.9-1.9c2.9,0.8,5.1,6.3,8.8,1.3c3.2-2,5.1-5.4,8.3-7.5
	c2.4-0.8,4.7-0.7,6.7,1.2c1.4,2.5,1,4.8-0.5,7.1c2.4,7.2-9.8,6.3-7.5,13.5c-1.9,2.6-4.6,4.6-6.4,7.3c2.4,7.2-9.8,6.3-7.5,13.5
	C404.4,270.9,402.1,273.2,399.6,275.2z"/>
<path class="st10" d="M177.9,379.6c-0.1-2.3-0.1-4.6-0.2-6.8c-3.6-4.6-2.7-10.1-3-15.3c-0.3-4.5,0.7-9.2-3.3-12.7c0-2.2,0-4.5,0-6.7
	c2.6-2.4,2.6-4.8,0-7.1c-0.2-4.5-0.4-9.1-0.6-13.6c-1.3-1.6-1.8-3.3-1.3-5.3c0.4-0.9,1-1.6,1.8-2.1c6.5,3.2,14.1,6.2,13.4,15.1
	c-0.5,6.4,9.7,6,7.1,12.9c-0.2,0.4-0.5,0.8-0.7,1.2c-1.5,1.5-1.4,3,0.1,4.5c0.2,0.4,0.4,0.8,0.7,1.2c0.6,8.7-3.4,19.4,1.8,25.6
	c4.7,5.6,4.9,10.3,5.1,16.1c-0.4,0.4-0.8,0.8-1.2,1.2c-2,1.1-4.2,1.3-6.4,1.3c-2.3-0.1-4.3-0.8-5.9-2.6
	C185.5,381.2,183.5,378.5,177.9,379.6z"/>
<path class="st3" d="M323.9,400.5c0.5,5.3-1.9,7.6-7.1,7.1c-2.5,1.5-4,3.6-4.3,6.5c-0.3,2-0.5,3.9-1.2,5.8c-0.5,1-1.2,1.7-2.1,2.3
	c-2.1,0.9-4.2,0.9-6.2-0.2c-0.8-0.7-1.5-1.5-1.9-2.5c-1.5-4.1-0.5-9.4-5.3-12c-4.7-2.4-14.2,4.7-14.1-7.1c-3.3-4.8-3.3-9.5,0.4-14.1
	l-0.1,0.1c4.7-3.6,11.4-3.8,15.3-8.8c6.7-1.9,13.3-2.7,19.4,1.8l-0.1,0.3c1.8,1.6,2,3.6,1.1,5.6c-0.2,0.6-0.7,1-1.4,1
	c1.2,0.7,0.9-1.1,1.9-1.1c2.2-0.8,4-0.4,5.5,1.2l-0.1-0.1C327.1,391,327.2,395.7,323.9,400.5z"/>
<path class="st11" d="M205.4,289.2c0.9,4.6-0.4,7.8-5.8,7c-8.2-1.2-17.2,3.5-24.8-5.8c-2-2.5-10-5-15-8c-3.1-1.9-2.2-4.5-2.8-6.9
	c-3.4-6.5-5.3-12.6,4.5-15.3c4.3,0.8,6,5.2,9.4,7.3c2.7,4.4,5.4,2.2,8.1,0c7.4-2.2,8.8,5.2,13,8.1l-0.2-0.2c1.7,1.7,2,3.7,1.1,5.8
	c-0.2,0.6-0.7,1-1.4,1.2c1.2,0.8,0.9-1.2,1.8-1c2.2-0.8,4-0.3,5.6,1.2l-0.2-0.2C200.9,284.6,203.1,287,205.4,289.2z"/>
<path class="st3" d="M399.5,310.3c0.1,2.2,0.1,4.4,0.2,6.5c-8,5.9-16.8,3.7-25.5,2.4c-3.9-1.3-5.5-6.9-10.8-5.8
	c-8.1-0.4-16.2,1-24.2-1.4c-2.5-1.1-3.5-3.1-3.6-5.7c0.1-1.1,0.4-2.1,0.9-3.1c2.4-2.5,5.5-4.2,8-6.7c11.5,0,22.9,0,34.4,0
	c2.3,2.4,5,3.8,8.4,3.9c2.1,0.3,4,1.1,5.6,2.6l-0.1,0.3C395.2,305.5,397.4,307.8,399.5,310.3z"/>
<path class="st3" d="M192,275.5c-7.4,3.1-6.8-9.9-14.1-7c-0.4-0.3-0.8-0.5-1.2-0.8c-1.5-1.7-3.1-3.3-5.1-4.5c-0.8-0.5-1.4-1.2-2-1.9
	c-1.3-1.7-2.6-1.9-4.2-0.4c-0.4,0.2-0.8,0.4-1.2,0.6c-11.7-0.2-5.2,9.1-7.2,14c-4.3,0.4-7.2-0.2-6.9-5.8c0.5-7.2,0.2-14.4,0.3-21.6
	c2.1-2.6,4.4-5,7-7c4.4,0,8.9,0,13.3,0c2.6,2,4.8,4.5,7.2,6.7l-0.1,0.3c2.5,2.1,4.7,4.5,7.1,6.8l-0.1-0.1c2.2,2.4,4.6,4.6,6.6,7.1
	C191.7,266.3,191.9,270.9,192,275.5z"/>
<path class="st3" d="M240.5,296.6c6.8,0,13.7,0,20.5,0c1.9,1.8,2.7,4.1,2.8,6.7c0,2.6-0.9,4.9-2.8,6.7l0,0c-8.2,4.3-18,4.1-25.7,9.8
	c-4.7-0.4-6.7,3.7-9.9,5.8c-4.4,1.7-8.7,1.7-12.9-0.8c-2-2-2.6-4.6-2.7-7.3c-0.1-2.8,1-5.3,2.9-7.3l0,0c1.4-1.7,3.4-2.5,5.5-2.8
	c4,0.2,6-2.8,8.3-5.3c1.8-1.1,3.8-1.5,5.9-1.7C235.6,300.3,238.3,299,240.5,296.6z"/>
<path class="st10" d="M372.2,316.8c9.1,0,18.3,0,27.4,0c0.8,5.7-2,7.3-7.3,7.3c-15.8-0.2-31.5,0.3-47.3-0.2
	c-8.2-0.3-12.7-6-14.3-13.9c2.3-1.8,4.6-1.6,6.9,0c9.1,0.2,18.3,0.4,27.4,0.6C367.5,312.6,369.7,314.9,372.2,316.8z"/>
<path class="st3" d="M427.6,227.2c-2.4-0.1-4.7-0.3-7.1-0.4c-0.4-0.2-0.8-0.4-1.2-0.6c-1.5-1.3-2.9-1.2-4.1,0.4
	c-0.6,0.7-1.3,1.3-2,1.8c-2,1.2-3.7,2.8-5.2,4.6c-0.4,0.3-0.8,0.5-1.2,0.8c-4.7,0-9.4,0-14.1,0.1c0.1-7.7,6.9-10.2,11.7-13.7
	c3-2.2,1.6-4.6,2.5-6.8c2.1-2.6,4.4-5,7-7c4.4,0,8.9,0,13.3,0c2.6,2.1,5,4.4,7,7c0,4.4,0,8.9,0,13.3
	C432.2,228.8,430,228.8,427.6,227.2z"/>
<path class="st3" d="M337.3,449.3c-5.3,0.3-7.9-1.8-6.9-7.4c4.6-3.9,9.3-3.4,14-0.3c11.5,0.2,23,0.5,34.4,0.7c2,2.1,2,4.2,0,6.3
	c-2.2,0.2-4.5,0.5-6.7,0.7c-2.6,1.9-4.8,4.2-7,6.6l-0.3-0.1c-1.7,1.8-3.7,2.1-6,1.4c-1.5,0-2.6-3.5-4.1-1.1
	c-1.3,2.1,1.2,3.8,2.6,5.5c0.2,0.4,0.4,0.9,0.7,1.3c1.4,7.1-3.1,6.7-8,6.9c-5.7,0.3-6.1-2.8-5.8-7.1c0.1-2.3-0.2-4.5-0.3-6.8
	C342.1,453.4,339.9,451.2,337.3,449.3z"/>
<path class="st10" d="M254.2,254.6c5.6,0.9,7.9-1.4,6.9-6.9c4.6-0.1,9.2-0.1,13.7-0.2c1.6-1.3,3.3-1.8,5.3-1.3
	c0.9,0.4,1.6,1,2.1,1.8c-0.5,2.5-0.1,6.6-3.6,6.2c-9.3-1-11.8,8.1-17.9,11c-8.8,4.1-16.4,12.4-27.6,10.1c0.2-2.2,0.4-4.4,0.6-6.7
	c2-2.4,4.3-4.6,6.7-6.7C244.9,259.2,255,267,254.2,254.6z"/>
<path class="st10" d="M177.7,421c0.2-2.2,0.4-4.4,0.6-6.7c2.1-2.4,4.4-4.7,6.3-7.2c0.2-2.2,0.4-4.4,0.6-6.7c1.2-1.8,2.9-2,4.9-1.6
	c0.9,0.3,1.6,0.9,2,1.8c-0.1,4.8-0.1,9.6-0.3,14.4c-0.3,5.1,2.7,6.3,7,6.1l-0.1-0.1c0,2.2,0.1,4.4,0.1,6.6c-3.2,4-7.8,3.1-12,3.4
	c-2.4-0.1-4.9-0.3-7.2-1.2c-1.1-0.5-2-1.2-2.7-2.3C175.8,425.3,176.2,423.1,177.7,421z"/>
<path class="st3" d="M268,462.7c0.5,4.3,0.3,7.4-5.6,7.2c-5-0.2-9.3-0.2-8.5-7c-1.9-2.5-4.1-4.8-6.7-6.7c-4.6-0.2-9.2-0.4-13.8-0.6
	c-1.8-1.6-1.8-3.4-1.1-5.5c0.3-0.4,0.7-0.7,1-1.1c6.9-0.1,13.8-0.3,20.8-0.4c1.9-1.3,3.9-1.8,6.1-1c1,0.5,1.7,1.1,2.3,2
	c1.8,3.9,0.7,8.9,4.8,11.9C267.5,461.9,267.8,462.3,268,462.7z"/>
<path class="st10" d="M461.8,428c0,13.9,0,27.7,0,41.6c-2.1,2-4.2,1.9-6.4,0.3c-1.6-5.2,3.9-14.1-7.3-14.3c-1.6-1.9-1.7-4-0.6-6.2
	c2.4-2.8,5.5-5.2,4.7-9.5c0.2-4.2-0.2-8.5,2.6-12.1C457.2,426.2,459.5,426.2,461.8,428z"/>
<path class="st10" d="M316.8,441.8c-7.1,0-14.1,0-21.2,0c-1.7-2-2.5-4.3-2.5-7c0-2.7,1-4.9,2.7-6.9l-0.2,0.2
	c1.9-1.8,4.2-2.7,6.8-2.9c2.5-0.2,5-0.2,7.5,0c2.6,0.1,4.8,1.2,6.8,2.9l-0.2-0.2c1.8,1.9,2.7,4.2,2.7,6.8
	C319.4,437.4,318.6,439.8,316.8,441.8z"/>
<path class="st10" d="M136.7,275.3c0-11.5,0-23,0-34.5c2.1-2,4.2-1.9,6.4-0.3c0,11.7,0,23.4,0,35
	C140.9,277.3,138.8,277.4,136.7,275.3z"/>
<path class="st10" d="M233.5,317.5c8.2-6,17.3-9,27.5-7.4c-0.3,1.9-0.6,5.3-1,5.3c-9.8,0.1-15.8,11.3-26.4,9c-0.4-0.3-0.8-0.7-1.2-1
	C231.5,321.1,231.6,319.1,233.5,317.5z"/>
<path class="st11" d="M378.9,448.6c0-2.1,0-4.2,0-6.3c4.9,0.2,7.8-1.6,7.3-7c2.2-2.1,4.3-2.1,6.5,0c0,9.1,0,18.2,0,27.3
	c-2.1,2.1-4.4,2.2-6.6,0.2C384.4,457.7,390.3,448.8,378.9,448.6z"/>
<path class="st3" d="M219.4,442.3c-0.1,9.1-0.1,18.2-0.2,27.3c-2.1,2.1-4.4,2.1-6.9,0.7c-0.9-1-1.5-2.1-2-3.3
	c-0.9-8.4-2.7-17,1.9-25C214.7,440.2,217.1,440,219.4,442.3z"/>
<path class="st3" d="M275.4,449c-2.9,4.3,5.4,14.7-7.4,13.7l0.2,0.2c-4.4-3.7-1.9-10.8-7.1-14l0.1,0.1c-1.9-2.3-2-4.6,0.2-6.8
	c2.2-0.2,4.4-0.4,6.5-0.5c1.9-1.3,3.9-1.8,6.1-1c1,0.5,1.7,1.3,2.3,2.2C277.2,445.1,276.7,447.1,275.4,449z"/>
<path class="st11" d="M323.6,462.7c-9.3,0-18.6,0-27.9,0c-0.3-0.4-0.7-0.8-1-1.2c-0.8-2.1-0.7-4,1.4-5.5c7.2-0.1,14.4,0.1,21.5-0.3
	c5.5-0.3,6.3,2.7,5.9,7.1L323.6,462.7z"/>
<path class="st10" d="M212.8,323.8c4.5,0,9,0,13.5,0c2.3-1.5,4.6-1.8,6.8,0c0,0,0.6,0.5,0.6,0.6c-3.4,12.9-13.7,4.5-20.7,6.5
	c-5,1.4-8-1.3-7.2-6.9C208.2,322.1,210.5,322.2,212.8,323.8z"/>
<path class="st3" d="M226.7,366c9.2-0.1,18.4-0.2,27.6-0.2c0.3,0.4,0.7,0.8,1,1.1c0.8,2.1,0.7,4-1.2,5.5l0.1,0.3
	c-1.9,1.6-4.1,2.6-6.6,2.8c-2.4,0.2-4.8,0.2-7.3,0.2c-2.4,0.1-4.9,0-7.3-0.2c-2.6-0.2-4.8-1.2-6.6-2.9l0.1,0.1
	C224.7,370.4,224.6,368.2,226.7,366z"/>
<path class="st3" d="M344.4,365.6c9.3,0.1,18.5,0.1,27.8,0.2c0.4,0.5,0.7,0.9,1.1,1.4c0.8,2.4,0.6,4.6-1.4,6.5
	c-2.1,1.3-4.4,1.7-6.8,1.9c-2.4,0.2-4.7,0.1-7.1,0.1c-2.4,0.1-4.8,0-7.2-0.1c-2.5-0.2-4.7-1.2-6.6-2.9l0.1,0.1
	c-1.8-1.7-2-3.7-1.1-5.9C343.6,366.4,344,366,344.4,365.6z"/>
<path class="st10" d="M316.6,379.5c-6.9,0.1-13.8,0.2-20.6,0.4c-2.6,1.5-5,1.8-7.3-0.6c0.1-0.7-0.1-1.6,0.3-2.2
	c5.5-8.9,14.1-2.7,21.2-4.3C315.1,371.7,316.9,374.9,316.6,379.5z"/>
<path class="st3" d="M420.7,414.3c-1-12.7,9.4-4.5,13.7-7.4c2.1-1.5,4.4-2.4,7-2.4c2.6,0,4.9,0.9,6.9,2.6l-0.2,0.5
	c2.2,1.9,2.2,4.2,1,6.6c-0.9,0.9-1.9,1.6-3.1,2c-8,1.2-16,2-23.9-0.7C421.6,415.2,421.1,414.8,420.7,414.3z"/>
<path class="st10" d="M288.9,351.8c-0.7-9.1,6.1-6.7,10.9-6.9c4.9-0.2,10.6-1.1,9.8,6.9l0.1-0.1
	C302.8,351.7,295.8,351.7,288.9,351.8L288.9,351.8z"/>
<path class="st10" d="M150.1,296.5c-2.3-0.1-4.5-0.1-6.8-0.2c0-4.7,0.1-9.3,0.1-14c7.6,1.5,11.7,6.7,14.1,13.6
	c-0.4,0.4-0.7,0.9-1.1,1.3C154.1,298.4,152,298,150.1,296.5z"/>
<path class="st3" d="M407.1,441.9c0-6.9,0-13.7,0-20.6c2-2,4.3-2.1,6.7-0.8c0.9,0.9,1.6,1.9,2,3.1c1.1,6.3,2.1,12.6-1.8,18.5
	C411.7,443.8,409.3,444,407.1,441.9z"/>
<path class="st3" d="M185.1,428.4c4.6-0.2,9.2-0.4,13.8-0.6c2.2,0.2,4.4,0.4,6.6,0.5c2.3,2.5,2.1,4.9,0,7.4
	c-6.7,3.6-13.4,3.5-20.1,0.1C183.1,433.4,182.9,430.9,185.1,428.4z"/>
<path class="st10" d="M357.9,261.4c-0.5-5.2,1.9-7.5,7-7c0,7,0.1,14.1,0.1,21.1l0.1-0.1c-5.3,0.6-7.5-1.8-7-7
	C356.3,266.2,356.3,263.8,357.9,261.4z"/>
<path class="st3" d="M441.3,455.5c-6.8,0-13.7,0-20.5,0c-2.2-2.5-1.9-5,0.3-7.4c6.7-3.4,13.3-3.4,20,0
	C443.2,450.5,443.4,453,441.3,455.5z"/>
<path class="st11" d="M178,213c0,2.3,0.1,4.5,0.1,6.8c-7,0-14,0-21.1,0c0-2.3,0.1-4.5,0.1-6.8C164.1,213,171.1,213,178,213z"/>
<path class="st11" d="M323.9,400.5c-0.1-4.7-0.3-9.4-0.4-14.1c4.5-0.4,7.2,0.8,7.1,6.3C330.5,397.6,329.9,401.1,323.9,400.5z"/>
<path class="st11" d="M295.7,407.6c12.6-0.8,4.8,9,7.1,13.6c-2.2,1.9-4.4,1.8-6.7,0.1C296,416.8,295.8,412.2,295.7,407.6z"/>
<path class="st10" d="M282.1,241.1c4.6,0,9.2,0,13.8,0c-0.3,10.8-9,4.9-13.7,6.9c0,0-0.5-0.5-0.5-0.5
	C280.1,245.3,280,243.1,282.1,241.1z"/>
<path class="st11" d="M337.2,352c0.2,2.2,0.3,4.4,0.5,6.5c1.6,2.5,1.8,4.9-0.3,7.2c-11.4-0.1-5.5-8.7-6.7-13.8
	C332.9,349.9,335,349.9,337.2,352z"/>
<path class="st3" d="M275.3,435.2c4.6,0,9.1-0.1,13.7-0.1c0.3,0.4,0.7,0.8,1,1.1c0.8,2.1,0.7,4-1.3,5.4c-2.2,0.2-4.4,0.5-6.7,0.7
	c-2.5,1.6-4.9,1.5-7.1-0.4l0.2,0.2C273.2,439.7,273.1,437.5,275.3,435.2z"/>
<path class="st10" d="M344.4,441.6c-4.7,0.1-9.4,0.2-14,0.3c0,0,0.1,0.2,0.1,0.2c-1.9-2.2-2-4.5-0.3-6.9c4.8-0.1,9.6-0.2,14.4-0.3
	l-0.1-0.1C344.5,437.1,344.5,439.3,344.4,441.6z"/>
<path class="st10" d="M233.3,302.9c-2.2,0.2-4.4,0.4-6.7,0.6c-1.6,1.3-3.3,1.8-5.3,1.3c-0.9-0.3-1.6-1-2.1-1.8
	c0.9-10.9,9.1-5.3,14.4-6.4C235.3,298.7,235.4,300.8,233.3,302.9z"/>
<path class="st3" d="M372.1,365.7c-1.2-5.6,1.4-7.7,6.7-7.4c1.9-1.4,3.9-1.8,6.1-1c1,0.5,1.8,1.3,2.3,2.3c0.7,2.3,0.5,4.3-1.5,6l0,0
	c-1.9,1.9-4.2,2.8-6.9,2.8c-2.7,0-5-1-6.9-2.8L372.1,365.7z"/>
<path class="st11" d="M282,386.4c-0.1,4.7-0.3,9.4-0.4,14.1c-6,0.6-6.6-2.9-6.7-7.8C274.8,387.3,277.5,386.1,282,386.4z"/>
<path class="st11" d="M372,365.6c2.4,0.1,4.7,0.3,7.1,0.4c1.9,2.2,1.7,4.5,0.2,6.7c0.1,4.8-1.6,7.7-7,6.6c-2.1-2.2-2-4.5-0.3-6.8
	C372,370.2,372,367.9,372,365.6z"/>
<path class="st11" d="M295.7,462.7c0.8,10.4-6.6,6.5-11.6,6.5c-1.6,0-2.1-2-1.8-3.6c0.7-3.9,4.1-2.4,6.4-3.1
	c2.5-1.6,4.8-1.6,7.1,0.3L295.7,462.7z"/>
<path class="st10" d="M386,462.8c2.2-0.1,4.4-0.1,6.6-0.2c0.8,9.9-6.1,7-11.2,6.6c-1.4-0.1-2.3-1.9-1.8-3.5
	C380.5,462.1,383.6,463.1,386,462.8z"/>
<path class="st3" d="M385.9,247.7c-2.1,4.6,5.4,13.9-6.6,13.8c-0.1-4.5-0.1-9-0.2-13.5c1.4-2.1,3.4-2.2,5.6-1.4
	C385.1,247,385.5,247.3,385.9,247.7z"/>
<path class="st11" d="M288.7,379.2c2.4,0.2,4.8,0.4,7.3,0.6c-0.3,11.5-9.2,4.8-14.1,6.7C281.2,381.3,283.6,379,288.7,379.2z"/>
<path class="st3" d="M392.9,233.7c-2,4.8,5.2,14.3-7,14c0,0,0.1,0.1,0.1,0.1c-2-2.3-2.1-4.6-0.5-7.1
	C385.2,235.4,387.4,232.8,392.9,233.7z"/>
<path class="st10" d="M212.8,310.2c-0.2,2.2-0.3,4.5-0.5,6.7c-2,2-4.2,1.9-6.4,0.3C205.1,311.9,207.4,309.6,212.8,310.2z"/>
<path class="st11" d="M205.9,317.3c2.1-0.1,4.3-0.2,6.4-0.3c0.2,2.3,0.4,4.5,0.5,6.8c-2.3,0-4.6,0-6.9,0
	C205.9,321.7,205.9,319.5,205.9,317.3z"/>
<path class="st10" d="M306,323.6c-1.8-0.2-2.9-1.3-2.8-3c0.1-2.3,1.4-3.5,3.8-3c1.8,0.4,2.4,1.7,2.2,3.4
	C309.1,323,307.6,323.4,306,323.6z"/>
<path class="st10" d="M434.5,337.9c-2.8-0.3-6.9,0.9-6.4-4c0.4-3.8,3.9-2.6,6.4-2.9c0,0-0.1-0.1-0.1-0.1
	C436.3,333.3,436.3,335.6,434.5,337.9L434.5,337.9z"/>
<path class="st11" d="M399.6,191.9c0-2.2,0.1-4.4,0.1-6.6c2.4,0.1,4.7,0.3,7.1,0.4c1.7,2.2,1.8,4.3-0.3,6.4
	C404.2,191.9,401.9,191.9,399.6,191.9z"/>
<path class="st10" d="M191.8,338c2.8,0.3,6.9-0.9,6.4,4c-0.4,3.8-3.9,2.6-6.4,2.9c0,0,0.1,0.1,0.1,0.1
	C190,342.6,190,340.2,191.8,338L191.8,338z"/>
<path class="st10" d="M406.5,192c0.1-2.1,0.2-4.2,0.3-6.4c2.3,0,4.6,0,6.9,0C414.1,190.9,411.5,192.9,406.5,192z"/>
<path class="st10" d="M427.4,185.6c2.3,0,4.6,0,6.9,0c2,2.1,1.9,4.2,0.3,6.5C429.6,192.8,427.1,190.9,427.4,185.6z"/>
<path class="st11" d="M434.6,192c-0.1-2.2-0.2-4.3-0.3-6.5c2.4-0.1,4.7-0.2,7.1-0.3c0,2.3,0.1,4.5,0.1,6.8
	C439.2,192,436.9,192,434.6,192z"/>
<path class="st10" d="M337.2,352c-2.2,0-4.3,0-6.5,0c0-2.8-1-6.6,3.2-6.6C338.2,345.4,337.1,349.3,337.2,352z"/>
<path class="st10" d="M385.8,351.2c0.5-2.4-0.4-5.9,3.4-5.9c4.6,0.1,3.3,4,3.5,6.7c-1.5,1.4-3.2,1.7-5.1,1.2
	C386.6,352.8,386.1,352.2,385.8,351.2z"/>
<path class="st10" d="M427.6,351.7c-2.8-0.3-6.8,0.9-6.4-4.1c0.1-0.8,1.4-2.1,2.2-2.2C428.4,345.1,427.1,349,427.6,351.7
	C427.5,351.8,427.6,351.7,427.6,351.7z"/>
<path class="st10" d="M385.8,199c0-2.3,0-4.6,0.1-6.9c2.4,0.1,4.7,0.3,7.1,0.4C393.3,197.8,390.7,199.7,385.8,199z"/>
<path class="st10" d="M441.4,192.3c2.3,0,4.7-0.1,7-0.1c-0.1,2.4-0.3,4.7-0.4,7.1C442.9,199.6,440.9,197.2,441.4,192.3z"/>
<path class="st10" d="M379.1,206.1c0-2.3-0.1-4.7-0.1-7c2.3,0,4.6,0,6.9-0.1C386.5,204.2,384.3,206.6,379.1,206.1z"/>
<path class="st11" d="M205.9,358.5c0.1-2.7-1.2-6.5,3.3-6.4c4.5,0.1,3,4,3.5,6.6C210.4,360.7,208.2,360.6,205.9,358.5z"/>
<path class="st10" d="M261.1,358.6c0.4-2.4-0.7-6.1,3.1-6.3c4.9-0.3,3.5,3.8,3.6,6.6c-1.7,1.5-3.6,1.8-5.7,0.8
	C261.8,359.4,261.5,359,261.1,358.6z"/>
<path class="st10" d="M288.8,351.7c-0.3,2.8,0.9,6.8-4.1,6.4c-0.8-0.1-2.1-1.4-2.2-2.2C282.2,350.9,286.1,352.2,288.8,351.7
	C288.9,351.8,288.8,351.7,288.8,351.7z"/>
<path class="st10" d="M309.6,351.8c2.8,0.3,6.8-0.9,6.4,4.1c-0.1,0.8-1.4,2.1-2.2,2.2C308.8,358.5,310.1,354.6,309.6,351.8
	C309.7,351.7,309.6,351.8,309.6,351.8z"/>
<path class="st11" d="M372,206c2.3,0,4.5-0.1,6.8-0.1c0,2.3,0,4.6,0,6.8c-2,2.1-4.1,2.1-6.4,0.3C372.3,210.8,372.2,208.4,372,206z"
	/>
<path class="st11" d="M386,358.8c-2.4-0.1-4.7-0.2-7.1-0.4c-0.7-5.3,2.4-7,6.9-7.1c0,0,0.2,1,0.2,1
	C387.8,354.4,387.9,356.6,386,358.8z"/>
<path class="st3" d="M386,358.8c0-2.2,0-4.3,0-6.5c2.2-0.1,4.4-0.1,6.7-0.2c0,2.1,0,4.3,0,6.4c-2.2,2.2-4.5,2.1-6.8,0.2L386,358.8z"
	/>
<path class="st10" d="M413.9,206.2c0.5,5.1-1.9,7.5-7,7C406.1,207.8,408.4,205.5,413.9,206.2z"/>
<path class="st10" d="M205.9,358.5c2.3,0.1,4.6,0.1,6.8,0.2c0,0-0.1,0-0.1,0c1.8,2.3,2,4.6,0.1,6.9
	C207.4,366.2,205,363.9,205.9,358.5z"/>
<path class="st3" d="M212.8,365.6c0-2.3-0.1-4.6-0.1-6.9c5.5-0.8,7.8,1.5,7,7C217.3,367.6,215,367.5,212.8,365.6L212.8,365.6z"/>
<path class="st3" d="M254.3,365.7c-1.1-5.6,1.3-7.9,6.8-7.1c0,0-0.2,0.5-0.2,0.5c2.2,2.2,2,4.5,0.2,6.8c-2.4,1.7-4.7,1.6-7-0.3
	L254.3,365.7z"/>
<path class="st11" d="M260.9,365.4c0-2.1,0-4.2,0-6.2c2.3-0.1,4.6-0.1,6.9-0.2c0,2.2,0,4.3,0,6.5c-1.6,2.1-3.6,2.2-5.9,1.2
	C261.6,366.2,261.3,365.8,260.9,365.4z"/>
<path class="st10" d="M337.4,365.8c0.1-2.4,0.2-4.8,0.3-7.2c5-0.3,7.2,2.1,6.7,7c0,0,0.2,0.5,0.2,0.5c-2.5,1.6-5,1.4-7.3-0.4
	L337.4,365.8z"/>
<path class="st10" d="M434.3,213.3c-5.1,0.5-7.5-1.9-7-7C432.7,205.5,435.1,207.8,434.3,213.3z"/>
<path class="st10" d="M385.8,358.6c2.3-0.1,4.6-0.1,6.8-0.2c0.8,5.4-1.4,7.8-6.9,7.1C385.8,363.3,385.8,361,385.8,358.6z"/>
<path class="st10" d="M372.4,213.1c2.1-0.1,4.2-0.2,6.4-0.3c0.9,5.3-1.3,7.7-6.6,7.2C372.2,217.7,372.3,215.4,372.4,213.1z"/>
<path class="st10" d="M212.7,365.5c2.3,0,4.6,0.1,6.9,0.1c0,0,0-0.1,0-0.1c1.8,2.3,1.9,4.5,0.1,6.9
	C214.4,373.2,212.1,370.9,212.7,365.5z"/>
<path class="st11" d="M219.8,372.4c0-2.3-0.1-4.6-0.1-6.9c2.3,0.1,4.7,0.3,7,0.4c0,2.2-0.1,4.4-0.1,6.7
	C224.3,372.6,222,372.5,219.8,372.4z"/>
<path class="st11" d="M448.6,212.9c2.2,0,4.4,0.1,6.6,0.1c-0.1,2.4-0.3,4.7-0.4,7.1c-2.2,1.7-4.3,1.8-6.4-0.3
	C448.6,217.4,448.6,215.1,448.6,212.9z"/>
<path class="st11" d="M254.2,365.6c2.2-0.1,4.5-0.1,6.7-0.2c0,0,0.6,0.6,0.6,0.6c1.6,2.3,1.5,4.4-0.6,6.4c-2.3,0-4.5,0-6.8,0
	C254.1,370.2,254.2,367.9,254.2,365.6z"/>
<path class="st10" d="M260.9,372.4c0.2-2.1,0.4-4.3,0.6-6.4c2.1-0.2,4.3-0.4,6.4-0.6C268.7,370.9,266.4,373.2,260.9,372.4z"/>
<path class="st11" d="M337.3,365.7c2.4,0.1,4.9,0.3,7.3,0.4c-0.1,2.2-0.1,4.4-0.2,6.6C339,373.4,336.8,370.9,337.3,365.7z"/>
<path class="st10" d="M150.4,220.3c2.3-0.1,4.6-0.2,6.8-0.2c0.6,5-1.8,7.3-6.7,7.1c-0.4-0.4-0.8-0.7-1.2-1.1
	C148.3,223.9,148.4,221.9,150.4,220.3z"/>
<path class="st10" d="M379.3,372.8c-0.1-2.2-0.1-4.5-0.2-6.7c2.2-0.2,4.5-0.3,6.7-0.5C386.5,370.6,384.4,373,379.3,372.8z"/>
<path class="st10" d="M185,219.9c0,2.3-0.1,4.7-0.1,7c-5.1,0.5-7.4-1.8-6.9-6.9C180.3,220,182.7,219.9,185,219.9z"/>
<path class="st11" d="M365.5,227c-0.1-2.4-0.3-4.7-0.4-7.1c2.3,0,4.5-0.1,6.8-0.1c0,2.3,0,4.6,0,6.8
	C369.8,228.8,367.7,228.7,365.5,227z"/>
<path class="st10" d="M448.5,219.7c2.1,0.1,4.2,0.2,6.4,0.3c0,2.3,0,4.6,0,6.9C449.6,227.3,447.7,224.8,448.5,219.7z"/>
<path class="st10" d="M143.4,233.8c0.1-2.3,0.2-4.6,0.2-6.8c2.1-2,4.2-1.9,6.5-0.3c0,0,0.4,0.4,0.4,0.4
	C150.6,232,148.4,234.5,143.4,233.8z"/>
<path class="st11" d="M226.5,372.6c2.4,0.1,4.7,0.3,7.1,0.4c1.7,2.2,1.8,4.4-0.3,6.4C227.6,380.5,226,377.5,226.5,372.6z"/>
<path class="st10" d="M233.2,379.3c0.1-2.1,0.2-4.3,0.3-6.4c2.2,0,4.5,0,6.7,0c2,2,1.9,4.2,0.3,6.4
	C238.1,379.3,235.7,379.3,233.2,379.3z"/>
<path class="st11" d="M240.6,379.3c-0.1-2.1-0.2-4.3-0.3-6.4c2.4,0,4.8,0,7.1,0c1.7,2.2,1.8,4.3-0.3,6.4
	C244.9,379.3,242.7,379.3,240.6,379.3z"/>
<path class="st10" d="M247.1,379.3c0.1-2.1,0.2-4.2,0.3-6.4c2.3-0.1,4.6-0.2,6.8-0.3C254.7,378,252.3,380.2,247.1,379.3z"/>
<path class="st11" d="M191.9,226.9c0,2.3,0,4.7,0,7c-5.3,0.6-7.9-1.5-6.8-7.1C187.4,226.8,189.6,226.8,191.9,226.9z"/>
<path class="st11" d="M344.3,372.6c2.4,0.1,4.7,0.3,7.1,0.4c1.7,2.2,1.8,4.4-0.3,6.4C345.4,380.5,343.8,377.5,344.3,372.6z"/>
<path class="st10" d="M351.1,379.3c0.1-2.1,0.2-4.3,0.3-6.4c2.2,0,4.5,0,6.7,0c2,2,1.9,4.2,0.3,6.4
	C356,379.3,353.5,379.3,351.1,379.3z"/>
<path class="st11" d="M358.4,379.3c-0.1-2.1-0.2-4.3-0.3-6.4c2.4,0,4.8,0,7.2,0c1.7,2.2,1.8,4.4-0.3,6.4
	C362.8,379.4,360.6,379.3,358.4,379.3z"/>
<path class="st10" d="M364.9,379.4c0.1-2.1,0.2-4.3,0.3-6.4c2.2-0.1,4.5-0.3,6.7-0.4c0.1,2.3,0.2,4.6,0.3,6.9
	C369.8,379.4,367.4,379.4,364.9,379.4z"/>
<path class="st10" d="M365.5,227c2.1-0.1,4.2-0.2,6.4-0.3c0.9,5.3-1.3,7.7-6.6,7.2C365.3,231.6,365.4,229.3,365.5,227z"/>
<path class="st10" d="M427.6,227.2c2.2-0.2,4.4-0.4,6.7-0.6c0.8,5.1-1.2,7.6-6.5,7.4C427.8,231.7,427.7,229.5,427.6,227.2z"/>
<path class="st11" d="M316.7,386.6c-0.1-2.3-0.1-4.6-0.2-6.8c5.6-1.1,7.7,1.5,7.1,6.8c-2.4,0-4.7-0.1-7.1-0.1L316.7,386.6z"/>
<path class="st11" d="M143.2,240.6c-2.1,0.1-4.3,0.2-6.4,0.3c-0.1-2.4-0.2-4.7-0.3-7.1c2.3,0,4.5-0.1,6.8-0.1
	C143.2,236,143.2,238.3,143.2,240.6z"/>
<path class="st11" d="M191.8,233.8c2.3,0,4.7,0,7,0c-0.1,2.4-0.2,4.7-0.4,7.1C193.1,241.5,191.2,238.8,191.8,233.8z"/>
<path class="st10" d="M157.5,240.9c0.5,5.1-1.9,7.5-7,7C149.6,242.5,152,240.1,157.5,240.9z"/>
<path class="st10" d="M178,247.6c-5.5,1.1-7.6-1.5-7.2-6.7C176,240.1,178.5,242.2,178,247.6z"/>
<path class="st10" d="M198.7,386.5c2.8,0.3,6.9-0.9,6.4,4c-0.4,3.8-3.9,2.6-6.4,2.9c-0.4-0.4-0.7-0.8-1.1-1.2
	C196.8,390,197,388.1,198.7,386.5L198.7,386.5z"/>
<path class="st10" d="M316.5,241.1c2.3,0,4.6,0,6.9,0c2,2.1,1.9,4.2,0.3,6.5C318.7,248.3,316.2,246.4,316.5,241.1z"/>
<path class="st11" d="M323.7,247.5c-0.1-2.2-0.2-4.3-0.3-6.5c2.4-0.1,4.7-0.2,7.1-0.3c0,2.3,0.1,4.5,0.1,6.8
	C328.3,247.5,326,247.5,323.7,247.5z"/>
<path class="st10" d="M385.6,240.7c0.1,2.4,0.3,4.7,0.4,7.1c-2.3,0.1-4.6,0.1-6.8,0.2C378.4,243,380.2,240.3,385.6,240.7z"/>
<path class="st10" d="M454.9,240.7c0,2.3,0,4.6,0,6.9c-2.1,2-4.2,1.9-6.4,0.3C447.7,242.9,449.6,240.3,454.9,240.7z"/>
<path class="st10" d="M198.7,393.4c0.7,5.1-1.7,7.3-6.6,7.3c0,0-0.5-0.5-0.5-0.5c-1.8-2.4-1.8-4.8,0-7.2
	C194.1,391.3,196.5,391.6,198.7,393.4L198.7,393.4z"/>
<path class="st10" d="M434.5,400.3c-2.8-0.4-6.9,0.9-6.4-4c0.4-3.7,3.9-2.6,6.4-2.9c0,0-0.1-0.1-0.1-0.1c1.8,1.6,2,3.6,1.2,5.8
	C435.2,399.6,434.8,399.9,434.5,400.3z"/>
<path class="st3" d="M247.2,404.2c-0.1,2.4-1.6,3.1-3.7,3c-2.5-0.1-3.1-1.6-3-3.8c0.1-2.5,1.6-3.1,3.8-3
	C246.7,400.6,247.4,402,247.2,404.2z"/>
<path class="st10" d="M441.5,406.9c-2.4,0-4.8,0-7.1,0c0-2.2,0.1-4.4,0.1-6.6c0,0-0.1,0.1-0.1,0.1c2.3-1.9,4.7-1.9,7,0l-0.1-0.1
	C443.2,402.5,443.3,404.7,441.5,406.9z"/>
<path class="st11" d="M185,254.7c-5.1,0.6-7.7-1.5-7.1-6.8C183.4,246.8,185.5,249.3,185,254.7z"/>
<path class="st3" d="M274.9,410.3c0.1,2.8-1.1,3.9-3.4,3.9c-2.3,0-3.4-1.1-3.4-3.4c0-2.3,1.1-3.4,3.4-3.4
	C273.8,407.4,275.1,408.4,274.9,410.3z"/>
<path class="st11" d="M310,414.3c-1.2-5.7,1.1-7.8,6.7-6.7c-0.1,2.1-0.2,4.2-0.4,6.4C314.4,416.1,312.3,416.1,310,414.3z"/>
<path class="st3" d="M340.9,407.4c2.3-0.1,3.4,1.1,3.4,3.4c0,2.3-1.1,3.4-3.4,3.4c-2.3,0-3.4-1.1-3.4-3.4
	C337.5,408.5,338.6,407.3,340.9,407.4z"/>
<path class="st10" d="M330.5,247.8c2.3,0.1,4.6,0.2,6.8,0.2c2,2.1,1.9,4.2,0.3,6.5C332.4,255.3,330,253.1,330.5,247.8z"/>
<path class="st11" d="M337.6,254.5c-0.1-2.2-0.2-4.3-0.3-6.5c2.4-0.1,4.7-0.2,7.1-0.3c0,2.3,0.1,4.5,0.1,6.8
	C342.2,254.5,339.9,254.5,337.6,254.5z"/>
<path class="st10" d="M414,254.8c-1.2-5.3,1.3-7.5,6.4-7.3C421.3,252.6,419.1,255,414,254.8z"/>
<path class="st11" d="M448.5,247.9c2.1-0.1,4.3-0.2,6.4-0.3c0.1,2.4,0.2,4.7,0.3,7.1c-2.2,0.1-4.4,0.1-6.7,0.1
	C448.6,252.5,448.5,250.2,448.5,247.9z"/>
<path class="st10" d="M198.8,421.2c0.3-2.8-0.9-6.8,4.1-6.4c0.8,0.1,2.1,1.4,2.2,2.2C205.5,422.1,201.6,420.8,198.8,421.2
	C198.7,421.1,198.8,421.2,198.8,421.2z"/>
<path class="st10" d="M310,414.3c2.1-0.1,4.2-0.2,6.4-0.3c0,2.5,0,5,0,7.5c-2.3,1.7-4.6,1.7-6.8-0.2
	C309.7,419,309.9,416.6,310,414.3z"/>
<path class="st11" d="M413.7,421.2c-2.2,0-4.4,0.1-6.6,0.1c-1.2-5.7,1.1-7.9,6.7-6.7C415.5,416.8,415.6,419,413.7,421.2z"/>
<path class="st3" d="M413.7,421.2c0-2.2,0.1-4.4,0.1-6.6c2.3-0.1,4.6-0.2,6.9-0.3l-0.2-0.1C423.2,421.5,420.9,423.8,413.7,421.2
	L413.7,421.2z"/>
<path class="st11" d="M191.5,261.7c-5.4,0.6-7.2-2.1-6.6-7.1C190.2,254.1,192.8,256,191.5,261.7z"/>
<path class="st3" d="M258.1,421.3c2.4,0.1,3.1,1.6,3,3.8c-0.1,2.5-1.6,3.1-3.8,3c-2.5-0.1-3.1-1.6-3-3.8
	C254.5,421.8,255.9,421.1,258.1,421.3z"/>
<path class="st3" d="M296.1,421.3c2.2,0,4.5-0.1,6.7-0.1c0,0-0.1-0.1-0.1-0.1c1.9,2.3,2,4.6-0.1,6.8c-2.3,0.1-4.6,0.2-6.9,0.3
	C295.8,425.9,296,423.6,296.1,421.3z"/>
<path class="st3" d="M309.6,421.3c2.3,0.1,4.6,0.1,6.8,0.2c0.1,2.2,0.2,4.5,0.3,6.7c-2.3-0.1-4.6-0.2-6.9-0.3
	c-2.1-2.2-2-4.5-0.1-6.8L309.6,421.3z"/>
<path class="st3" d="M378.9,425.1c-0.1,2.4-1.6,3.1-3.7,3c-2.5-0.1-3.1-1.6-3-3.8c0.1-2.5,1.6-3.1,3.8-3
	C378.4,421.4,379.1,422.9,378.9,425.1z"/>
<path class="st10" d="M344.3,254.7c5.5-0.9,7.8,1.4,6.9,6.9C346.1,262.1,343.8,259.8,344.3,254.7z"/>
<path class="st10" d="M205.8,435.1c-0.1-2.3-0.2-4.5-0.4-6.8c5-0.9,7.5,1.3,7.6,6.3c-0.3,0.5-0.7,0.9-1,1.4c-1.6,0.8-3.3,0.9-5,0.3
	C206.7,435.8,206.2,435.5,205.8,435.1z"/>
<path class="st3" d="M295.9,428c-0.1,2.3-0.2,4.6-0.3,6.9c-2.2,2.1-4.5,2-6.7,0.1c0,0,0.1,0.1,0.1,0.1
	C287.8,429.4,290.4,427.3,295.9,428z"/>
<path class="st3" d="M316.9,434.9c-0.1-2.3-0.2-4.6-0.3-6.9c5.4-0.7,7.8,1.6,7.2,7.1C321.4,437,319.1,437,316.9,434.9z"/>
<path class="st3" d="M344.6,434.9c0.1-2.7-2-6.5,3.2-6.7c2.3-0.1,3.5,1.1,3.4,3.4c-0.3,5.2-4,3.1-6.7,3.2
	C344.5,434.8,344.6,434.9,344.6,434.9z"/>
<path class="st10" d="M392.6,435.3c-2.2,0-4.3,0-6.5,0c0-2.8-1-6.6,3.2-6.6C393.6,428.6,392.6,432.5,392.6,435.3z"/>
<path class="st10" d="M212.8,261.3c2.3,0.1,4.6,0.1,6.8,0.2c0,2.3-0.1,4.7-0.1,7C214.1,269,212,266.5,212.8,261.3z"/>
<path class="st10" d="M309.3,265.2c-0.2,1.8-1.3,2.9-3,2.8c-2.3-0.1-3.5-1.4-3-3.8c0.4-1.8,1.7-2.4,3.4-2.2
	C308.6,262.2,309.1,263.6,309.3,265.2z"/>
<path class="st11" d="M357.9,261.4c0.1,2.3,0.2,4.7,0.3,7c-5.5,0.8-7.7-1.5-6.7-7C353.6,261.4,355.8,261.4,357.9,261.4z"/>
<path class="st10" d="M219.4,442.3c-2.3-0.1-4.5-0.2-6.8-0.4c-0.3-0.4-0.7-0.7-1-1.1c-0.9-2-0.7-3.9,0.8-5.5c0,0,0.7-0.7,0.7-0.7
	C218,434.8,220.3,437.2,219.4,442.3z"/>
<path class="st11" d="M226.8,442.1c-1.1-5.3,0.7-7.9,6.4-6.9c2.2,2.1,2.2,4.4,0.8,6.9l-0.8-0.2C231.1,443.9,229,443.9,226.8,442.1z"
	/>
<path class="st10" d="M234,442.2c-0.3-2.3-0.5-4.6-0.8-6.9c2.8,0.1,6.6-1.2,6.7,3.5C239.9,442.5,236.3,441.7,234,442.2z"/>
<path class="st10" d="M275.3,435.2c-0.1,2.3-0.1,4.6-0.2,6.8c-2.4-0.1-4.7-0.3-7.1-0.4C267.6,436.3,270.3,434.5,275.3,435.2z"/>
<path class="st11" d="M288.8,435c2.2-0.1,4.5-0.1,6.7-0.2c0,2.3,0,4.6,0,7c-2.3,0-4.6-0.1-6.9-0.1
	C288.8,439.5,288.8,437.2,288.8,435z"/>
<path class="st11" d="M316.9,434.9c2.3,0.1,4.6,0.1,6.9,0.2c0,0-0.2-0.2-0.2-0.2c1.8,2.2,1.9,4.5,0.2,6.8c-2.3,0-4.6,0.1-6.9,0.1
	C316.9,439.5,316.9,437.2,316.9,434.9z"/>
<path class="st3" d="M323.7,441.7c-0.1-2.3-0.1-4.5-0.2-6.8c2.2,0.1,4.4,0.2,6.6,0.3c0.1,2.3,0.2,4.6,0.3,6.9
	C328.3,442,326,441.8,323.7,441.7z"/>
<path class="st11" d="M219.8,268.4c5-0.5,7.5,1.5,6.7,6.8c0,0,0.3,0.8,0.3,0.8c-2.5,1.4-4.8,1.4-6.9-0.8
	C219.8,273,219.8,270.7,219.8,268.4z"/>
<path class="st10" d="M379.2,268.3c4.9-0.3,7.2,2,6.9,7C380.7,276.1,378.4,273.8,379.2,268.3z"/>
<path class="st10" d="M399.6,275.2c-0.3-4.9,2-7.2,6.9-7C407.4,273.8,405,276.1,399.6,275.2z"/>
<path class="st10" d="M447.9,268.4c0,2.3,0,4.6,0,6.9c-2.1,2-4.2,1.9-6.4,0.3C440.8,270.7,442.7,268.1,447.9,268.4z"/>
<path class="st11" d="M136.7,275.3c2.1,0.1,4.3,0.2,6.4,0.3c0,2.3,0,4.6,0,6.9c-2.3,0-4.5-0.1-6.8-0.1
	C136.5,280.1,136.6,277.7,136.7,275.3z"/>
<path class="st3" d="M191.9,282.5c0-2.4,0-4.8-0.1-7.2c5.5-0.8,7.8,1.6,7.1,7.1c-2.4,0-4.8-0.1-7.2-0.1L191.9,282.5z"/>
<path class="st3" d="M226.8,442.1c2.1,0,4.2-0.1,6.4-0.1c0.1,2.3,0.1,4.7,0.2,7c0,0,0.1-0.1,0.1-0.1c-2.2,1.8-4.5,2-6.7-0.1
	C226.8,446.6,226.8,444.4,226.8,442.1z"/>
<path class="st10" d="M261.4,442.2c-0.1,2.3-0.1,4.6-0.2,6.8c-2.4-0.1-4.7-0.3-7.1-0.4C253.8,443.2,256.5,441.4,261.4,442.2z"/>
<path class="st10" d="M219.8,275.2c2.3,0.3,4.6,0.5,6.9,0.8c-0.5,2.4,0.3,5.9-3.5,5.9C218.6,281.9,219.9,278,219.8,275.2z"/>
<path class="st10" d="M274.9,441.9c2.4,0.1,4.7,0.3,7.1,0.4c0.4,4.8-1.8,7.1-6.7,6.7C275.2,446.7,275.1,444.3,274.9,441.9z"/>
<path class="st10" d="M365.1,275.5c2.8,0.3,6.8-0.9,6.4,4.1c-0.1,0.8-1.4,2.1-2.2,2.2C364.3,282.2,365.5,278.2,365.1,275.5
	C365.2,275.4,365.1,275.5,365.1,275.5z"/>
<path class="st11" d="M407.1,441.9c2.2,0,4.5,0.1,6.7,0.1c0.3,0.4,0.7,0.8,1,1.2c0.6,1.6,0.7,3.2,0.2,4.8c-0.5,1-1.3,1.7-2.2,2.3
	c-2.2,0.6-4.3,0.5-5.8-1.6C407,446.4,407,444.1,407.1,441.9z"/>
<path class="st11" d="M441.5,275.6c2.1-0.1,4.3-0.2,6.4-0.3c0.1,2.4,0.2,4.7,0.3,7.1c-2.2,0.1-4.4,0.1-6.7,0.1
	C441.6,280.3,441.6,278,441.5,275.6z"/>
<path class="st11" d="M226.8,448.8c2.2,0,4.4,0.1,6.7,0.1c0,2.2-0.1,4.5-0.1,6.7c0,0,0.3,0.8,0.3,0.8c-2.5,1.4-4.8,1.4-6.9-0.8
	C226.8,453.4,226.8,451.1,226.8,448.8z"/>
<path class="st10" d="M337.3,449.3c5.8-1.3,8,0.9,6.7,6.7C339.1,456.4,336.9,454.1,337.3,449.3z"/>
<path class="st3" d="M205.4,289.2c-5.7,1-7.1-2.1-6.6-7C203.8,281.9,207.1,283.2,205.4,289.2z"/>
<path class="st10" d="M365.2,455.9c-0.8-5.5,1.2-8.1,7-6.6C372.6,454.4,370.1,456.4,365.2,455.9z"/>
<path class="st10" d="M285.7,288.9c-1.6-0.1-3-0.6-3.2-2.5c-0.3-2.4,0.9-3.6,3.3-3.6c1.8,0,2.8,1.4,2.8,3
	C288.5,287.5,287.5,288.7,285.7,288.9z"/>
<path class="st10" d="M406.9,448.7c2.1,0.2,4.3,0.4,6.4,0.5c2.3,2,2.1,4.1,0.6,6.4C408.4,456.5,406.1,454.2,406.9,448.7z"/>
<path class="st11" d="M413.9,455.6c-0.2-2.1-0.4-4.3-0.6-6.4c0,0,0.6-0.6,0.6-0.6c1.7-1.5,3.5-1.7,5.5-0.9c0.4,0.3,0.7,0.7,1.1,1
	c0,2.3,0.1,4.5,0.1,6.8C418.4,455.6,416.2,455.6,413.9,455.6z"/>
<path class="st10" d="M424.5,282.9c1.9,0.2,2.7,1.5,2.6,3.1c-0.2,2.3-1.7,3.3-4,2.7c-1.8-0.5-2.3-1.9-2-3.5
	C421.4,283.3,422.8,282.9,424.5,282.9z"/>
<path class="st11" d="M441.3,455.5c0-2.3,0.1-4.5,0.1-6.8c0.3-0.3,0.7-0.6,1-1c1.3-0.6,2.7-0.7,4.2-0.4c0.9,0.3,1.6,1,2,1.8
	c-0.2,2.1-0.4,4.3-0.5,6.4C445.8,455.6,443.5,455.6,441.3,455.5z"/>
<path class="st10" d="M226.7,455.6c2.3,0.3,4.6,0.5,6.9,0.8c-0.5,2.4,0.3,5.9-3.5,5.9C225.5,462.3,226.8,458.4,226.7,455.6z"/>
<path class="st10" d="M247.2,456.2c5.8-1.3,8,0.9,6.7,6.7C249,463.3,246.8,461.1,247.2,456.2z"/>
<path class="st10" d="M295.9,462.9c-2.4-0.1-4.8-0.2-7.1-0.3c-0.2-5.2,2.2-7.3,7.3-6.4C296,458.3,295.9,460.6,295.9,462.9z"/>
<path class="st11" d="M358.6,455.8c2.1,0,4.2-0.1,6.4-0.1c1.1,5.6-1.6,7.6-6.8,7.2c0,0,0,0.1,0,0.1
	C356.4,460.5,356.1,458.1,358.6,455.8z"/>
<path class="st10" d="M164,303.3c-2.2-0.2-4.5-0.3-6.7-0.5c-2-2-1.9-4.2-0.3-6.4c0,0,0.5-0.5,0.5-0.5
	C162.5,295.9,164.8,298.2,164,303.3z"/>
<path class="st11" d="M233.3,302.9c0.1-2.1,0.2-4.2,0.3-6.4c2.3,0,4.6,0.1,6.8,0.1C240.9,301.9,238.7,304.2,233.3,302.9z"/>
<path class="st11" d="M261.5,303.3c-0.2-2.2-0.3-4.5-0.5-6.7c5.3-1.1,7.9,0.7,6.8,6.4C265.9,305.1,263.7,305.1,261.5,303.3z"/>
<path class="st11" d="M323.5,462.9c2.8,0.3,6.6-1.3,6.7,3.7c0,1.8-1.1,2.9-2.8,2.8c-5-0.1-3.4-4-3.7-6.7
	C323.6,462.7,323.5,462.9,323.5,462.9z"/>
<path class="st10" d="M330.7,303.4c-0.8-5.5,1.5-7.8,7-6.9c1.7,2.3,1.6,4.6-0.2,6.8l0.1-0.1C335.3,305.1,333,305.2,330.7,303.4z"/>
<path class="st11" d="M337.4,303.3c0.1-2.3,0.1-4.5,0.2-6.8c2.3,0,4.6,0.1,6.8,0.1C345,301.9,342.4,303.8,337.4,303.3z"/>
<path class="st11" d="M386,302.9c-5.3,1.3-7.6-1-7.2-6.3c2.3,0,4.6-0.1,6.8-0.1C387.8,298.5,387.8,300.6,386,302.9z"/>
<path class="st10" d="M386,302.9c-0.1-2.1-0.2-4.2-0.3-6.4c5.3-0.9,7.7,1.3,7.2,6.6C390.6,303,388.3,303,386,302.9z"/>
<path class="st10" d="M164.5,310c-0.2-2.2-0.3-4.5-0.5-6.7c5.1-0.8,7.4,1.6,7.3,6.6c0,0-0.5,0.5-0.5,0.5
	C168.6,312,166.5,312.1,164.5,310z"/>
<path class="st11" d="M212.6,469.7c2.2,0,4.4-0.1,6.6-0.1c1.5,5.7-1.7,7.3-6.5,7.6c0,0-0.2-1-0.2-1
	C210.8,474,210.7,471.9,212.6,469.7z"/>
<path class="st11" d="M455.4,469.9c2.1-0.1,4.3-0.2,6.4-0.3c0.1,2.4,0.2,4.7,0.3,7.1c-2.3,0-4.5,0.1-6.8,0.1
	C455.4,474.5,455.4,472.2,455.4,469.9z"/>
<path class="st10" d="M219.5,309.8c-2.2,0.2-4.5,0.3-6.7,0.5c-0.8-5.1,1.6-7.4,6.6-7.4c0,0,0.5,0.6,0.5,0.6
	C221.4,305.7,221.5,307.8,219.5,309.8z"/>
<path class="st10" d="M261.5,303.3c2.1-0.1,4.2-0.2,6.4-0.3c0.9,5.4-1.5,7.7-6.8,7.1C261.2,307.8,261.4,305.6,261.5,303.3z"/>
<path class="st11" d="M330.7,303.4c2.3-0.1,4.5-0.1,6.8-0.2c0,2.2,0.1,4.5,0.1,6.7c-2.3,0-4.6,0-6.9,0
	C330.7,307.8,330.7,305.6,330.7,303.4z"/>
<path class="st10" d="M410.6,483.2c-1.7,0.1-3-0.4-3.4-2.3c-0.4-2.4,0.8-3.7,3-3.7c1.7,0,2.9,1.1,2.9,2.9
	C413.2,481.6,412.6,483,410.6,483.2z"/>
<path class="st10" d="M455.3,483.7c-2.3,0-4.7-0.1-7-0.1c-0.5-5.1,1.8-7.4,6.9-6.9C455.2,479,455.3,481.4,455.3,483.7z"/>
<path class="st11" d="M399.5,310.3c-5.1,0.5-7.2-1.9-6.7-6.9C398.3,302.5,400.7,304.6,399.5,310.3z"/>
<path class="st10" d="M260.7,487.5c-0.2,1.9-1.5,2.7-3.1,2.6c-2.3-0.2-3.3-1.7-2.7-4c0.5-1.8,1.9-2.3,3.5-2
	C260.2,484.5,260.7,485.8,260.7,487.5z"/>
<path class="st10" d="M368.5,484c1.6,0.2,3,0.8,3.1,2.7c0.1,2.3-1.1,3.5-3.5,3.4c-1.9-0.1-2.6-1.6-2.5-3.2
	C365.6,485.1,366.8,484.2,368.5,484z"/>
<path class="st11" d="M448,310.3c-2.1-0.1-4.3-0.2-6.4-0.3c0-2.3,0.1-4.6,0.1-6.9c2.2,0.1,4.4,0.1,6.7,0.1
	C448.2,305.6,448.1,307.9,448,310.3z"/>
<path class="st3" d="M192,483.6c0-2.2-0.1-4.3-0.1-6.5c3.6-4,7.9-3.4,12.3-1.7c0.5,0.4,0.9,0.9,1.4,1.3
	C206.2,489,196.7,481.6,192,483.6z"/>
<path class="st3" d="M212.6,469.7c0,2.2,0,4.3,0,6.5c-2.3,0.1-4.6,0.3-6.9,0.4c0,0,0.1,0.1,0.1,0.1
	C203.1,469.5,205.4,467.1,212.6,469.7C212.7,469.8,212.6,469.7,212.6,469.7z"/>
<path class="st12" d="M212.7,469.8c-5.6-0.9-7.9,1.4-6.9,7c-4.6,0.1-9.2,0.2-13.9,0.3c-2.3-0.2-4.7-0.4-7-0.6
	c-2.1-2.4-5.1-3.9-7-6.7c0.1-9.3,0.1-18.5,0.2-27.8c0.3-0.4,0.5-0.8,0.8-1.2c1.7-1.5,3.3-3.1,4.8-4.9c0.4-0.3,0.8-0.5,1.2-0.7
	c7,0,13.9-0.1,20.9-0.1c0,0-0.2-0.1-0.2-0.1c2.4,2.4,4.7,4.7,7.1,7.1c0,0-0.1-0.2-0.1-0.2C212.6,451.2,212.7,460.5,212.7,469.8z"/>
<path class="st3" d="M177.9,469.8c5.3-0.9,7.9,1,7,6.7c-2.3,0.1-4.7,0.1-7,0.2c0,0,0.2,0.1,0.2,0.1
	C176.1,474.4,176.1,472.1,177.9,469.8L177.9,469.8z"/>
<path class="st9" d="M461.8,428c-2.1,0-4.1,0-6.2,0c-4.3-3.7-3.4-8.6-3.4-13.4c0.1-2.9,1.2-5.3,3.2-7.4l-0.1,0.1
	c2.2-1.9,4.4-2,6.6,0.1C461.9,414.3,461.8,421.2,461.8,428z"/>
<path class="st11" d="M461.9,407.5c-2.2,0-4.4,0-6.6-0.1c0.1-2.4,0.2-4.8,0.2-7.3c2.2,0.1,4.5,0.1,6.7,0.2
	C462.1,402.7,462,405.1,461.9,407.5z"/>
<path class="st11" d="M171.4,344.7c4.7-0.2,6.8,1.7,6.6,6.6c-0.3,7.1-0.2,14.3-0.3,21.4c-2.2,0-4.5-0.1-6.7-0.1
	C171.2,363.3,171.3,354,171.4,344.7z"/>
<path class="st11" d="M171.4,330.9c2.7,0.5,6.6-0.6,6.1,4.1c-0.4,3.7-3.8,2.6-6.1,3C171.4,335.6,171.4,333.3,171.4,330.9z"/>
<path class="st11" d="M164.5,310c2.1,0.1,4.3,0.2,6.4,0.3c0,2.3,0,4.6,0,6.9c-2.2-0.1-4.5-0.1-6.7-0.2
	C164.2,314.8,164.3,312.4,164.5,310z"/>
<path class="st11" d="M164.1,435c2.3,0,4.6-0.1,6.9-0.1c1.8-1.7,3.8-2,6.1-1.2c1,0.5,1.8,1.3,2.3,2.3c0.7,2.3,0.4,4.4-1.4,6.1
	c0,0,0.2-0.2,0.2-0.2c-9.2-1-6.5,5.8-7.2,10.6c-0.5,3.4,2.3,9.3-3,9.4c-6.6,0.1-3.3-6.3-3.7-9.8C163.7,446.5,164.1,440.8,164.1,435z
	"/>
<path class="st11" d="M178,469.7c0,2.4,0,4.7,0,7.1c-2.3,0-4.7,0-7-0.1C170.3,471.4,172.7,469,178,469.7z"/>
<path class="st11" d="M448.6,338.1c0-7.1,0-14.1,0-21.2c2.2,0,4.5,0.1,6.7,0.1c0,4.9-0.3,9.8,0,14.6
	C455.7,336.9,453,338.3,448.6,338.1z"/>
<path class="st11" d="M441.7,352c-1-5.1,1-7.6,6.3-7.2c0.1,2.4,0.3,4.7,0.4,7.1C446.1,351.9,443.9,351.9,441.7,352z"/>
<path class="st11" d="M282.1,241.1c-0.1,2.1-0.2,4.3-0.3,6.4c-2.3,0-4.6,0-6.9,0c0.1-2.2,0.1-4.5,0.2-6.7
	C277.4,240.9,279.7,241,282.1,241.1z"/>
<path class="st11" d="M441,372.7c-5.6,0.5-6.7-2.7-6.7-7.6c0-4.9,2.1-6.7,6.7-6.5C441,363.3,441,368,441,372.7z"/>
<path class="st13" d="M164.2,122.9c-9.3,0-18.6,0-27.9,0c0-9.3,0-18.6,0-27.9c9.3,0,18.6,0,27.9,0
	C164.2,104.3,164.2,113.6,164.2,122.9z"/>
<path class="st14" d="M372.2,122.9c-9.3,0-18.6,0-27.9,0c0-9.3,0-18.6,0-27.9c9.3,0,18.6,0,27.9,0
	C372.2,104.3,372.2,113.6,372.2,122.9z"/>
<path class="st15" d="M448.4,143.7c-9.3,0-18.6,0-27.9,0c0-9.3,0-18.6,0-27.9c9.3,0,18.6,0,27.9,0
	C448.4,125.1,448.4,134.4,448.4,143.7z"/>
<path class="st16" d="M517.7,150.7c-9.3,0-18.6,0-27.9,0c0-9.3,0-18.6,0-27.9c9.3,0,18.6,0,27.9,0
	C517.7,132,517.7,141.3,517.7,150.7z"/>
<path class="st15" d="M80.9,240.7c9.3,0,18.6,0,27.9,0c0,9.3,0,18.6,0,27.9c-9.3,0-18.6,0-27.9,0C80.9,259.3,80.9,250,80.9,240.7z"
	/>
<path class="st16" d="M108.8,185.3c-9.3,0-18.6,0-27.9,0c0-9.3,0-18.6,0-27.9c9.3,0,18.6,0,27.9,0
	C108.8,166.7,108.8,176,108.8,185.3z"/>
<path class="st15" d="M247.4,220c-9.3,0-18.6,0-27.9,0c0-9.3,0-18.6,0-27.9c9.3,0,18.6,0,27.9,0C247.4,201.4,247.4,210.7,247.4,220z
	"/>
<path class="st14" d="M559.3,226.8c-0.2,4.7-0.3,9.3-0.5,14c-3.7,5.3-10.2-5.3-13.7,2.5c4.1,3.3,10.2,0,13.7,4.4
	c0.2,2.3,0.3,4.7,0.5,7c-9.3,0-18.6,0-27.9,0c0-9.3,0-18.6,0-27.9C540.7,226.8,550,226.8,559.3,226.8z"/>
<path class="st15" d="M558.8,247.7c-3,0-6.1,0.3-9.1-0.1c-3.5-0.4-8.3,2-10.3-2.3c-2.4-5.2,4.9-4.3,6.1-8c1.6-4.8,4.8-4.4,6.7,0.2
	c1.4,3.2,3.9,3.1,6.5,3.2C558.8,243.1,558.8,245.4,558.8,247.7z"/>
<path class="st17" d="M559.3,358.8c-9.3,0-18.6,0-27.9,0c0-9.3,0-18.6,0-27.9c9.3,0,18.6,0,27.9,0
	C559.3,340.2,559.3,349.5,559.3,358.8z"/>
<path class="st17" d="M101.8,414.3c-9.3,0-18.6,0-27.9,0c0-9.3,0-18.6,0-27.9c9.3,0,18.6,0,27.9,0
	C101.8,395.7,101.8,405,101.8,414.3z"/>
<path class="st11" d="M192.1,393.3c-0.2,2.3-0.3,4.5-0.5,6.8c-2.1,0.1-4.2,0.2-6.3,0.4c0-4.7,0-9.4,0-14.1c2.2,0,4.4,0.1,6.5,0.1
	C193.7,388.7,193.7,391,192.1,393.3z"/>
<path class="st11" d="M184.6,407.1c1,5.1-1,7.6-6.3,7.2c-0.1-2.4-0.3-4.7-0.4-7.1C180.2,407.2,182.4,407.2,184.6,407.1z"/>
<path class="st11" d="M157,296.5c0.1,2.1,0.2,4.3,0.3,6.4c-2.4,0.1-4.7,0.2-7.1,0.4c-0.1-2.2-0.1-4.5-0.2-6.7
	C152.4,296.5,154.7,296.5,157,296.5z"/>
<path class="st11" d="M240.5,261.9c0.4,4.9-1.8,7.1-6.7,6.7c-0.1-2.4-0.3-4.7-0.4-7.1C235.8,261.7,238.1,261.8,240.5,261.9z"/>
<path class="st11" d="M177.7,421c0.1,2.4,0.2,4.8,0.3,7.2c-2.2,1.9-4.4,1.8-6.6,0.1c-0.1-2.4-0.3-4.7-0.4-7.1
	C173.3,421.1,175.5,421,177.7,421z"/>
<path class="st10" d="M171.4,428.2c2.2,0,4.4,0,6.6-0.1c0,0-0.1-0.1-0.1-0.1c1.9,2.3,2,4.6-0.3,6.7c-2.2,0.1-4.5,0.1-6.7,0.2
	C171.1,432.7,171.3,430.5,171.4,428.2z"/>
<path class="st11" d="M150.1,226.7c-2.2,0.1-4.3,0.2-6.5,0.3c-0.1-2.4-0.2-4.7-0.3-7.1c2.4,0.1,4.7,0.2,7.1,0.3
	C150.3,222.4,150.2,224.6,150.1,226.7z"/>
<path class="st9" d="M434.4,338c0-2.3,0-4.7,0-7c2.7,0.5,6.9-0.8,6.4,4.1C440.4,338.7,436.8,337.5,434.4,338z"/>
<path class="st9" d="M441.4,400.4c-2.3,0-4.7,0-7,0c0-2.3,0-4.7,0-7C439.6,392.9,441.9,395.2,441.4,400.4z"/>
<path class="st9" d="M441.5,406.9c0-2.2-0.1-4.4-0.1-6.6c5-0.4,7.6,1.6,6.9,6.9C446,407.1,443.7,407,441.5,406.9z"/>
<path class="st11" d="M455.4,407.3c-0.2,2.4-0.3,4.7-0.5,7.1c-2.2,1.7-4.4,1.8-6.6-0.1c-0.1-2.2-0.1-4.4-0.2-6.5
	C450.5,407.6,452.9,407.4,455.4,407.3z"/>
<path class="st3" d="M420.5,226.8c0.8,5.4-1.5,7.8-6.9,6.9c-0.4-0.4-0.7-0.8-1.1-1.2c-0.8-2.2-0.6-4.1,1.2-5.8l-0.2,0.2
	c2.4-2,4.7-2,7.1,0L420.5,226.8z"/>
<path class="st3" d="M413.6,233.8c-0.3,2.7,1.2,6.7-3.4,6.7c-4.6,0-3.1-4-3.4-6.7c0,0-0.2,0.2-0.2,0.2c2.4-2,4.7-2,7.1,0
	L413.6,233.8z"/>
<path class="st3" d="M403.4,248c2.2,0.2,3.3,1.4,3.1,3.6c-0.2,2.3-1.7,3-3.8,2.8c-1.8-0.2-2.5-1.4-2.6-3
	C400,249.2,401.1,248,403.4,248z"/>
<path class="st9" d="M191.9,337.9c0,2.3,0,4.7,0,7c-2.7-0.5-6.9,0.8-6.4-4.1C185.9,337.1,189.5,338.3,191.9,337.9z"/>
<path class="st9" d="M192.1,393.3c-0.1-2.3-0.2-4.5-0.3-6.8c2.3,0,4.7,0,7,0c0,2.3,0,4.7,0,7C196.6,393.4,194.3,393.3,192.1,393.3z"
	/>
<path class="st11" d="M316.5,386.4c-0.3,2.8,1.3,6.6-3.7,6.7c-1.8,0-2.9-1.1-2.8-2.8c0.1-5,4-3.4,6.7-3.7
	C316.7,386.6,316.5,386.4,316.5,386.4z"/>
<path class="st11" d="M309.7,421.1c0,2.3,0.1,4.5,0.1,6.8c-2.4,0-4.9,0-7.3,0c0-2.3,0.1-4.5,0.1-6.8
	C305,421.1,307.4,421.1,309.7,421.1z"/>
<path class="st3" d="M171.1,268.4c-5.4,0.8-7.8-1.5-6.9-6.9c0,0-0.2,0.2-0.2,0.2c2.4-2,4.7-2,7.1,0l-0.2-0.2
	c1.8,1.6,2.1,3.6,1.2,5.8C171.8,267.7,171.5,268.1,171.1,268.4z"/>
<path class="st3" d="M177.9,268.4c-0.3,2.7,1.2,6.7-3.4,6.7c-4.6,0-3.1-4-3.4-6.7c0,0-0.2,0.2-0.2,0.2c2.4-2,4.7-2,7.1,0
	L177.9,268.4z"/>
<path class="st3" d="M191.8,282.3c-0.3,2.8,1.3,6.6-3.7,6.7c-1.8,0-2.9-1.1-2.8-2.8c0.1-5,4-3.4,6.7-3.7
	C191.9,282.5,191.8,282.3,191.8,282.3z"/>
<path class="st11" d="M372.2,316.8c-5.1,1-7.6-1-7.2-6.3C370.4,309.2,372.6,311.6,372.2,316.8z"/>
<path class="st11" d="M171.1,261.7c-2.4,0-4.7,0-7.1,0c0.5-2.6-1-6.7,3.5-6.7C172.2,255,170.6,259,171.1,261.7z"/>
<path class="st11" d="M178.1,268.6c-2.4,0-4.7,0-7.1,0c0-2.4,0-4.7,0-7.1C176.3,260.9,178.7,263.2,178.1,268.6z"/>
<path class="st11" d="M233.2,323.8c-2.3,0-4.6,0-6.8,0c-0.3-5.2,1.8-7.6,7.2-6.3C233.4,319.6,233.3,321.7,233.2,323.8z"/>
<path class="st11" d="M219.5,309.8c0.1-2.1,0.2-4.2,0.4-6.3c2.3,0,4.6,0,6.8,0C227,308.7,224.9,311.1,219.5,309.8z"/>
<path class="st11" d="M420.7,227c-2.4,0-4.7,0-7.1,0c0.5-2.6-1-6.7,3.5-6.7C421.7,220.3,420.2,224.3,420.7,227z"/>
<path class="st11" d="M413.7,233.9c-2.4,0-4.7,0-7.1,0c-0.6-5.4,1.7-7.7,7.1-7.1C413.7,229.2,413.7,231.5,413.7,233.9z"/>
<path class="st18" d="M358.6,455.8c-0.1,2.4-0.3,4.8-0.4,7.2c-5.8-1.4-9.3-8.6-6.3-12.8c1.2-1.7,2.8-1.3,4.1-1
	C359.8,450,357.4,453.7,358.6,455.8z"/>
<path class="st11" d="M177.7,434.8c0.1-2.2,0.2-4.5,0.3-6.7c2.4,0.1,4.8,0.2,7.2,0.3c-0.1,2.3-0.1,4.5-0.2,6.8c0,0,0.2-0.2,0.2-0.2
	c-2.2,1.8-4.5,2-6.8,0.3L177.7,434.8z"/>
<path class="st18" d="M261.1,448.9c12.6-0.5,4.8,9.3,7.1,14C255.6,463.4,263.3,453.6,261.1,448.9z"/>
<path class="st3" d="M448.3,414.3c2.2,0,4.4,0.1,6.6,0.1c0.2,4.6,0.5,9.1,0.7,13.7c-0.2,4.6-0.4,9.2-0.6,13.8
	c-2.7,2.3-5.2,1.9-7.6-0.5C443.9,432.1,443,423,448.3,414.3L448.3,414.3z"/>
<path class="st11" d="M448.2,442c2.3-0.1,4.5-0.1,6.8-0.2c1.1,5.3-1.3,7.4-6.3,7.4c0,0-0.6-0.6-0.6-0.6c-1.5-1.7-1.7-3.5-0.9-5.6
	C447.5,442.8,447.8,442.4,448.2,442z"/>
<path class="st12" d="M448.4,414.2c-0.1,9.3-0.1,18.5-0.2,27.8c0,0,0.2-0.2,0.2-0.2c-2.3,2.4-4.7,4.8-7.1,7.1c0,0,0.2-0.2,0.2-0.2
	c-6.9,0-13.9,0-20.8,0c0,0,0.2,0.2,0.2,0.2c-2.4-2.3-4.8-4.7-7.1-7.1c0,0,0.2,0.2,0.2,0.2c-0.1-7-0.1-13.9-0.2-20.9
	c5.6,0.9,7.9-1.4,6.9-7C429.8,414.2,439.1,414.2,448.4,414.2z"/>
<path class="st3" d="M212.7,442.1c-5.5,0.8-7.9-1.6-7.1-7.1c2.3,0.1,4.5,0.2,6.8,0.3C212.5,437.6,212.6,439.8,212.7,442.1z"/>
<path class="st3" d="M413.6,441.8c5.4-0.7,7.8,1.7,7.1,7.1c-2.3-0.1-4.6-0.2-6.8-0.3C413.8,446.4,413.7,444.1,413.6,441.8z"/>
<path class="st3" d="M441.2,448.9c-0.7-5.4,1.7-7.8,7.1-7.1c-0.1,2.3-0.2,4.6-0.3,6.8C445.8,448.8,443.5,448.9,441.2,448.9z"/>
<path class="st3" d="M178.2,435.3c2.3-0.1,4.6-0.2,6.8-0.3c0.7,5.4-1.7,7.8-7.1,7.1C178.1,439.9,178.2,437.6,178.2,435.3z"/>
<path class="st15" d="M154.1,102.5c1.8,0.2,2.7,1.5,2.6,3.1c-0.2,2.2-1.7,3.3-3.9,2.7c-1.7-0.5-2.3-1.8-2-3.5
	C151.2,103,152.5,102.5,154.1,102.5z"/>
<path class="st15" d="M364.5,104.6c0.3,3.5-1.9,4.2-4.3,4.2c-2.8,0-6.4,1.3-8-2.3c-1.2-2.8,1-4.3,3.5-4.3
	C358.8,102.1,362.6,100.7,364.5,104.6z"/>
<path class="st15" d="M545.7,344.8c-2.6-0.4-6.7,0.9-6.5-3.8c0.2-3.6,3.7-3,6.3-3c2.5,0,6-0.5,6.1,3.2
	C551.8,345,548.4,344.6,545.7,344.8z"/>
<path class="st15" d="M94.4,396.8c-0.2,1.6-0.9,3-2.7,3c-2.3,0.1-3.5-1.1-3.3-3.4c0.1-1.9,1.5-2.5,3.1-2.5
	C93.3,393.9,94.1,395.1,94.4,396.8z"/>
</svg>
