<?xml version="1.0" encoding="utf-8"?>
<!-- Generator: Adobe Illustrator 26.5.1, SVG Export Plug-In . SVG Version: 6.00 Build 0)  -->
<svg version="1.1" id="Layer_1" xmlns="http://www.w3.org/2000/svg" xmlns:xlink="http://www.w3.org/1999/xlink" x="0px" y="0px"
	 viewBox="0 0 1719.2 534" style="enable-background:new 0 0 1719.2 534;" xml:space="preserve">
<style type="text/css">
	.st0{fill:#FEFEFE;}
	.st1{fill:#10012E;}
	.st2{fill:#570065;}
	.st3{fill:#FE4A87;}
	.st4{fill:#800799;}
	.st5{fill:#CF1DCC;}
	.st6{fill:#FEE800;}
</style>
<g>
	<g>
		<path class="st0" d="M24.2,196.7c0-32,0.8-64.1-0.4-96.1C23.3,87.7,26.1,85.3,39,85.4c110.9,0.7,221.9,0.7,332.8,0
			c12.8-0.1,15.3,2.4,15.2,15.2c-0.7,110.9-0.7,221.8,0,332.6c0.1,12.8-2.4,15.3-15.2,15.2c-110.9-0.7-221.9-1-332.8,0.2
			c-18.5,0.2-14.7-9.3-14.8-19.1c-0.1-48,0-96.1,0-144.1c6-5.6,12.7-6.1,20.1-3.1c9.6,7.3,16.5,17.4,26.7,24.2
			c9.8,16.7,30.3,12,43.5,21.8c9.9,17.2,31.9,11.2,44.4,23.2c8,21.4,19.6,40.9,30.9,60.4c21.4-28.1,26.9-28.1,45.6,0.9
			c3.4-20-3.4-41.4,8.3-60.4c12.2-13,34.4-7.2,44.6-23.9c13.1-10.3,33.7-5.3,43.7-21.8c9.3-6.8,17.4-14.9,24.3-24.3
			c21.5-18.4,12.4-41.4,11.6-64.5c-17.4,4.3-23.5,19.7-35.7,27.1c-12.9,5.9-25.7,6-38.6,0.2c-10.2-8.2-19.5-17.4-28.5-27
			c-3.3-7.1-3-14.1,1-20.9c26.4-9.1,42.9-23.7,37.1-55.5c-4.7-25.6-13.3-30.5-32-10.9c-9.9,7-17.9,15.9-25.4,25.3
			c-39.1,36.4-49.3,36.4-87.7,0.6c-7.7-9.1-15.1-18.6-25.1-25.4c-7.5-8.1-17.6-19.8-26.6-7.9c-12,15.9-9.1,34.2,7.4,48.2
			c6.8,9.9,16.4,17.2,24.1,26.3c3.5,6.9,3.7,13.8,0.2,20.8c-8.9,9.2-18.1,18.1-27.9,26.4c-12.7,6-25.6,6-38.4,0.4
			C53.9,231.2,39.3,213.6,24.2,196.7z"/>
		<path class="st1" d="M46.3,285.5c-7.4,0-14.7-0.1-22.1-0.1c0-29.6,0-59.1,0-88.7c24.4,5.3,39.5,19.8,44.2,44.6
			c-0.9,1.3-1.7,2.6-2.5,3.9c-6,5-10.3,10.9-10.9,19c-0.8,6.3-1.7,12.6-5,18.2C48.7,283.3,47.5,284.4,46.3,285.5z"/>
		<path class="st1" d="M246.1,352c0,23.2,0.3,46.4-0.3,69.6c-0.2,7.4,4.2,18.1-9.9,18.9c-13.7,0.8-10.5-9.1-12.4-17.1
			c-2.1-9.2,8.6-25.2-9.2-26.4c-22-1.5-10.2,17.1-12.3,26.9c-1.8,8.2,0.8,17.7-12.8,16.7c-11-0.8-10.5-8.8-9.6-15.7
			c3.6-27.9-36.4-42-22.5-72.9c1.3-1.2,2.6-2.4,3.9-3.6c7.1-3,13.8-2.3,20.2,1.8c13.5,17.7,27.1,17.5,40.6,0
			c6.4-4.1,13.2-4.9,20.3-1.8C243.5,349.5,244.8,350.8,246.1,352z"/>
		<path class="st2" d="M268.2,130.1c-4.4-22.4,9.6-21.8,25.7-22.7c18.8-1,19.6,9.1,18.8,22.7c-0.5,7.4-1.2,15,0.1,22.1
			c7,37.1-7.8,51.7-44.7,44.3c-1.1-1.3-2.2-2.5-3.4-3.8c-2.7-6.6-1.9-12.9,2-18.7c5.7-6.4,14.8-10.6,14.1-21.3
			c0.5-8.4-4.7-13.6-10.3-18.6C269.8,132.8,269,131.5,268.2,130.1z"/>
		<path class="st2" d="M157.3,152.3c29.6,24.3,59.2,24.3,88.8,0c1.2,1.2,2.5,2.4,3.7,3.6c3.5,6.4,4.1,13.3,4.2,20.4
			c-0.2,7.4-1.3,14.5-5.5,20.9c-2.7,2.7-5.8,4.7-9.4,6c-24.4,4.6-48.9,4.2-73.4,0.5c-3.7-1.1-7-2.9-9.9-5.4
			c-4.8-6.2-6.1-13.5-6.5-21.1c-0.2-7.4,0.6-14.6,4.2-21.2C154.7,154.8,156,153.6,157.3,152.3z"/>
		<path class="st1" d="M335,241.2c-4.3-25,25.4-26.2,31.6-44.2c0.4-1.1,11-1.6,11.1,4.8c0.5,26.6,0.2,53.3-1.2,79.9
			c-0.1,1.6-12.7,2.5-19.5,3.7c-1.2-1.1-2.4-2.2-3.6-3.3c-3.4-5.6-4.1-12-5-18.3c-0.7-8-5.1-13.9-11.1-18.8
			C336.6,243.8,335.8,242.5,335,241.2z"/>
		<path class="st2" d="M113,174.4c-41.7,1.2-16.3-30.3-21.7-46.3c-4.9-14.4,2.9-20.9,19.1-20.6c16.6,0.3,28.7,1.7,24.6,22.7
			c-0.8,1.3-1.7,2.6-2.5,3.9c-5.9,5-10.5,10.7-11.1,18.9c-0.8,6.3-1.7,12.6-4.9,18.2C115.4,172.2,114.2,173.3,113,174.4z"/>
		<path class="st1" d="M112.6,240.7c-3-17.5,4.6-24.7,21.9-22.5c7.1-5.3,14.9-8.4,23.9-8.1c16.7,2,29.8,7.1,24.1,28.2
			c-4.8,7.7-12.5,10.1-20.8,11.4c-7.8,0.9-15.6,0.9-23.4,0.5c-7.6-0.3-15.1-1.3-21.9-5.3C115.1,243.5,113.8,242.1,112.6,240.7z"/>
		<path class="st1" d="M268.9,218.2c17.3-2.3,24.8,5.1,21.9,22.5c-1.3,1.3-2.5,2.7-3.8,4c-6.7,3.9-14,4.7-21.5,5.2
			c-7.7,0.5-15.4,0.5-23.1-0.2c-8.3-1.1-16.1-3.5-21.2-10.9c-6.3-21.2,6.5-26.6,23.5-28.8C253.8,209.4,261.7,212.8,268.9,218.2z"/>
		<path class="st1" d="M68.3,241.2c14.8-0.2,29.5-0.4,44.3-0.6c0,0,0.6,0.6,0.6,0.6c5.6,6.6,6.1,13.6,1.8,21.1
			c-5.3,6.3-12.6,8.2-20.3,9c-7.6,0.6-15-0.1-22.2-2.9c-3.5-1.6-6.1-4.1-7.9-7.5c-2.6-7.6-1.8-14.4,4.3-20.2
			C68.8,240.8,68.3,241.2,68.3,241.2z"/>
		<path class="st1" d="M290.8,240.7c14.8,0.2,29.5,0.4,44.3,0.6c0,0-0.5-0.5-0.5-0.5c6,5.5,6.8,12.2,4.5,19.6
			c-1.7,3.3-4.2,5.9-7.5,7.7c-7.1,3-14.5,3.7-22.1,3.3c-7.9-0.6-15.2-2.5-20.8-8.7c-4.6-7.5-4.1-14.7,1.5-21.5
			C290.2,241.2,290.8,240.7,290.8,240.7z"/>
		<path class="st1" d="M112.6,330.1c-14.5-7.8-46,17.7-44.1-22.4c1.2-1.3,2.4-2.5,3.6-3.8c6.4-3.6,13.4-4.3,20.6-4.3
			c7.3,0.3,14.3,1.6,20.3,6.4c5.5,6,6.3,12.8,3.4,20.2C115.1,327.4,113.8,328.7,112.6,330.1z"/>
		<path class="st1" d="M334.9,307.6c1.9,40.2-29.6,14.6-44.1,22.4c-1.2-1.3-2.5-2.6-3.7-3.9c-2.9-7.3-2.2-14.1,3.2-20.1
			c5.9-4.9,12.9-6.2,20.2-6.6c7.2-0.2,14.3,0.6,20.8,4.3C332.5,305,333.7,306.3,334.9,307.6z"/>
		<path class="st1" d="M157.2,352c-14.9-7.2-45.6,17.6-44.6-21.9c0,0,0.6-0.6,0.6-0.6c6.4-5.5,13.8-8.4,22.3-8.4
			c8.5,0.2,16.4,2,22.7,8.1c5.3,7.7,5,15.3-0.8,22.6L157.2,352z"/>
		<path class="st1" d="M290.8,330.1c1,39.6-29.7,14.7-44.6,21.9l-0.2-0.2c-5.9-7.3-6.1-14.7-0.9-22.5c6.3-6.2,14.2-7.9,22.7-8.3
			c8.6-0.2,16,2.9,22.5,8.4L290.8,330.1z"/>
		<path class="st2" d="M157.9,217.9c-7.8,0.1-15.6,0.1-23.4,0.2c0.3-7.2,0.5-14.4,0.8-21.6c1.2-1.1,2.5-2.3,3.7-3.4
			c6.8-2.8,13-2.1,18.3,3.4l0.2,0.2C163.2,203.7,163.4,210.7,157.9,217.9z"/>
		<path class="st2" d="M268.9,218.2c-7.8-0.1-15.6-0.2-23.4-0.2c-5.4-7.2-5.3-14.3,0.5-21.2l0.2-0.2c7.5-5.8,14.9-5.8,22.2,0.3
			c0,0-0.3-0.3-0.3-0.3C268.4,203.7,268.6,211,268.9,218.2z"/>
		<path class="st2" d="M135.1,130.1c17.9-3.2,25.3,4.2,22.2,22.2l0,0c-7.4,6-15,6.3-22.7,0.5C128.8,145.1,129.2,137.5,135.1,130.1
			L135.1,130.1z"/>
		<path class="st2" d="M246.1,152.3c-3.2-17.9,4.2-25.3,22.2-22.2l0,0c5.7,5.4,6.6,11.9,4.4,19.2c-1.6,3.2-4,5.7-7.2,7.3
			C258.1,158.9,251.5,158,246.1,152.3L246.1,152.3z"/>
		<path class="st1" d="M68.4,307.6c-17.9,3.1-25.3-4.3-22.2-22.2c0,0,0.2-0.2,0.2-0.2c5.4-5.6,11.9-6.4,19.1-4.2
			c3.2,1.6,5.6,4,7.3,7.2c2.3,7.2,1.4,13.7-4.2,19.2L68.4,307.6z"/>
		<path class="st1" d="M357.1,285.5c3.1,17.9-4.3,25.3-22.2,22.2l-0.2-0.2c-5.6-5.4-6.4-11.9-4.2-19.1c1.6-3.2,4-5.6,7.2-7.3
			c7.2-2.3,13.7-1.4,19.2,4.2L357.1,285.5z"/>
		<path class="st2" d="M135.2,196.5c-18.1,3.3-25.5-4.1-22.2-22.2c0,0-0.3,0.3-0.3,0.3c5.4-5.9,12-6.7,19.3-4.5
			c3.3,1.6,5.7,4.1,7.4,7.3c2.3,7.3,1.4,13.9-4.4,19.4L135.2,196.5z"/>
		<path class="st3" d="M68.8,240.8c0.1,7.5,0.2,14.9,0.4,22.4c-7.4,6.2-14.6,6.2-21.7-0.4C42.1,243.4,52.5,239.2,68.8,240.8z"/>
		<path class="st4" d="M47.4,262.8c7.2,0.1,14.5,0.2,21.7,0.4c0,0-0.6-0.5-0.6-0.5c5.7,7.6,6.5,15.2,0.1,22.9
			c-7.4-0.1-14.8-0.2-22.2-0.3C46.8,277.8,47.1,270.3,47.4,262.8z"/>
		<path class="st4" d="M245.9,329.6c0,7.4,0,14.8,0,22.2c-7.1,0.3-14.2,0.6-21.3,0.8c-15.3,10.9-30.6,10.9-45.9,0
			c-7.1-0.3-14.2-0.6-21.3-0.8c0-7.4,0-14.8,0-22.2c1.3-1.3,2.6-2.6,3.9-3.9c6.6-3.7,13.9-4.5,21.2-5c12.7-0.4,25.4-0.4,38.1-0.1
			c7.4,0.3,14.7,1.3,21.4,5C243.3,326.9,244.6,328.3,245.9,329.6z"/>
		<path class="st2" d="M178.7,352.6c15.3,0,30.6,0,45.9,0c0.7,17.5-8.6,21.9-24.7,21.8C183.7,374.4,178.7,366.8,178.7,352.6z"/>
		<path class="st5" d="M267.8,152.3c0.1-7.4,0.2-14.8,0.4-22.2c16.8-1.7,25.5,4.1,21,22.3C282.1,158.3,274.9,158.6,267.8,152.3z"/>
		<path class="st3" d="M267.8,152.3c7.1,0,14.3,0.1,21.4,0.1c4.7,18.3-4.3,23.8-20.8,22.3c-1.2-1.2-2.4-2.5-3.6-3.7
			c-3-7.1-2.2-13.5,3.4-19C268.2,152,267.8,152.3,267.8,152.3z"/>
		<path class="st3" d="M268.4,196.8c-7.4-0.1-14.8-0.2-22.2-0.3c0.3-7.3,0.6-14.6,0.9-21.9c6.9-6.2,14-5.9,21.1-0.3
			c0,0,0.3,0.3,0.3,0.3C268.4,182.1,268.4,189.4,268.4,196.8z"/>
		<path class="st4" d="M246,196.7c-0.2,7.1-0.3,14.1-0.5,21.2c-16.9-0.9-24.1,6.9-21.5,23.7c-1.3,1.2-2.7,2.4-4,3.6
			c-12.2,5.2-24.4,5.2-36.6,0.1c-1.3-1.2-2.6-2.4-4-3.6c2.6-16.8-4.7-24.6-21.5-23.7c-0.2-7.1-0.3-14.1-0.5-21.2
			C186.9,196.7,216.4,196.7,246,196.7z"/>
		<path class="st5" d="M135.7,151.8c7.2,0.2,14.4,0.3,21.7,0.5c-0.4,7.5-0.7,14.9-1.1,22.4c-7.2,6.1-14.4,5.7-21.6-0.1l0.4,0.4
			c-5.6-5.7-6.4-12.3-3.2-19.5C133.1,154.2,134.4,153,135.7,151.8z"/>
		<path class="st5" d="M268.1,174.4c-7,0.1-14.1,0.2-21.1,0.3c-0.3-7.4-0.7-14.9-1-22.3c7.4-0.1,14.8-0.2,22.2-0.3
			C268.2,159.5,268.1,166.9,268.1,174.4z"/>
		<path class="st3" d="M134.6,174.5c7.2,0,14.4,0.1,21.6,0.1c0.3,7.3,0.6,14.6,0.9,21.9c-7.4,0.1-14.8,0.2-22.2,0.2
			C134.9,189.4,134.8,182,134.6,174.5z"/>
		<path class="st3" d="M334.2,263.1c0.1-7.5,0.2-14.9,0.4-22.4c16.3-1.6,26.7,2.6,21.4,22C348.8,269.3,341.5,269.3,334.2,263.1z"/>
		<path class="st4" d="M334.2,263.1c7.2-0.1,14.5-0.2,21.7-0.4c0.3,7.5,0.6,15,1,22.5c-7.4,0.1-14.8,0.2-22.2,0.3
			c-6.4-7.7-5.6-15.3,0.1-22.9L334.2,263.1z"/>
		<path class="st5" d="M135.1,130.1c0.2,7.2,0.4,14.4,0.5,21.7c0,0-0.9,0.9-0.9,0.9c-7,5.5-13.9,5.7-20.8-0.2
			C109.8,134.4,118.3,128.3,135.1,130.1z"/>
		<path class="st3" d="M113.9,152.4c6.9,0.1,13.9,0.1,20.8,0.2c0.1,7.4,0.2,14.8,0.3,22.2c-7.4-0.1-14.8-0.2-22.3-0.3
			C113.2,167.2,113.5,159.8,113.9,152.4z"/>
		<path class="st2" d="M112.8,263.7c0.1-7.5,0.2-15,0.3-22.5c7.6,0.2,15.1,0.3,22.7,0.5c5.2,6.5,5.9,13.5,2,20.9
			c-5.8,6.4-12.9,7.1-20.6,4.5C115.8,266,114.3,264.9,112.8,263.7z"/>
		<path class="st3" d="M135.9,262.4c0-6.9,0-13.8,0-20.7c7.1,0.2,14.3,0.3,21.4,0.5c6.2,7.2,5.9,14.4,0.2,21.7
			C149.9,269.1,142.6,269.5,135.9,262.4z"/>
		<path class="st6" d="M157.5,263.4c-0.1-7.1-0.1-14.1-0.2-21.2c7.4-0.2,14.7-0.4,22.1-0.6c0,0-0.5-0.6-0.5-0.6
			c6.5,5.9,6.9,12.8,3.2,20.3c-5.4,6.8-12.3,8.1-20.2,5.5C160.4,265.8,158.9,264.6,157.5,263.4z"/>
		<path class="st6" d="M223.9,241.6c7.4,0.2,14.7,0.4,22.1,0.6c6.3,7.4,5.8,14.7-0.1,22c-7.8,5.2-15.4,5-22.8-0.9
			c-5.4-7.8-5.3-15.3,1.3-22.3L223.9,241.6z"/>
		<path class="st3" d="M245.5,262.6c0.2-6.8,0.4-13.6,0.5-20.3c7.1-0.2,14.3-0.3,21.4-0.5c6.8,6,7.2,13.1,3.5,20.9
			c-6.1,6.6-13.3,7.1-21.3,4C248.3,265.3,246.9,263.9,245.5,262.6z"/>
		<path class="st2" d="M267.5,262.4c0-6.9,0-13.8,0-20.7c7.6-0.2,15.2-0.3,22.7-0.5c0.1,7.5,0.2,15,0.3,22.5
			c-1.4,1.1-2.7,2.2-4.1,3.3C279.2,269.4,272.5,269.2,267.5,262.4z"/>
		<path class="st3" d="M68.7,285.5c0-7.6-0.1-15.3-0.1-22.9c7.3,0.5,14.5,1.1,21.8,1.6c6.6,7.2,6.2,14.5,0.5,22
			c-7.7,5.4-15.2,5-22.4-1L68.7,285.5z"/>
		<path class="st4" d="M90.8,285.4c-0.2-7.1-0.3-14.1-0.5-21.2c7.5-0.2,15-0.4,22.5-0.6c0,0-0.4-0.5-0.4-0.5
			c6.4,6,6.8,12.9,3.1,20.4c-5.5,6.7-12.4,8-20.3,5.4C93.7,287.8,92.3,286.6,90.8,285.4z"/>
		<path class="st4" d="M290.5,263.7c7.5,0.2,15,0.4,22.5,0.6c5.8,7.5,5.6,14.9-0.5,22.2c-7.8,5.2-15.4,5-22.8-0.9
			c-5.4-7.8-5.3-15.3,1.3-22.4L290.5,263.7z"/>
		<path class="st3" d="M313,285.4c0-7.1,0-14.1,0-21.2c7.3-0.5,14.5-1.1,21.8-1.6c0,7.6-0.1,15.3-0.1,22.9c0,0,0.2-0.2,0.2-0.2
			c-5.2,5.7-11.4,6.3-18.2,3.6C315.4,287.8,314.2,286.6,313,285.4z"/>
		<path class="st4" d="M68.4,285.3c7.5,0.1,14.9,0.1,22.4,0.2c0,0-0.1-0.1-0.1-0.1c5.9,6.9,6.1,14,0.6,21.2
			c-7.5,0.3-15.1,0.6-22.6,1C68.6,300,68.5,292.7,68.4,285.3z"/>
		<path class="st5" d="M91.3,306.5c-0.2-7.1-0.4-14.1-0.6-21.2c7.5,0,14.9,0,22.4-0.1c1.2,1.3,2.3,2.6,3.5,3.9
			c2.1,5,2.1,10.1,0,15.1c-1.2,1.3-2.3,2.6-3.5,3.9C105.8,307.5,98.6,307,91.3,306.5z"/>
		<path class="st2" d="M135.7,328.8c-7.5,0.2-15,0.5-22.5,0.7c0-7.2,0-14.3,0-21.5c0,0-1.2-1.9-1.2-1.9c7.7-4.6,15.4-5.2,23.1,0.3
			C141.1,313.7,141.4,321.1,135.7,328.8z"/>
		<path class="st5" d="M290.2,285.2c7.6,0.1,15.2,0.1,22.7,0.2c0,0-0.4-0.4-0.4-0.4c5.8,7.3,6.3,14.5-0.5,21.5
			c-7.3,0.5-14.6,1-21.8,1.5c-1.1-1.3-2.3-2.6-3.5-3.9c-2.1-5-2.1-10.1,0-15.1C287.9,287.8,289.1,286.5,290.2,285.2z"/>
		<path class="st4" d="M312,306.5c0.2-7.2,0.3-14.3,0.5-21.5c7.4,0.1,14.9,0.2,22.3,0.2c-0.1,7.4-0.1,14.8-0.2,22.1
			C327.1,307.1,319.6,306.8,312,306.5z"/>
		<path class="st2" d="M290.2,329.5c-7.5-0.2-15-0.5-22.5-0.7c-5.7-7.7-5.4-15.1,0.7-22.4c7.6-5.5,15.3-4.9,23.1-0.3
			c0,0-1.2,1.9-1.2,1.9C290.2,315.2,290.2,322.3,290.2,329.5z"/>
		<path class="st4" d="M135.7,328.8c-0.2-7.1-0.3-14.3-0.5-21.4c1.3-1.2,2.6-2.3,3.9-3.5c5-2.2,10.1-2.3,15.3-0.6
			c3.2,1.6,5.6,4.1,7.2,7.3c2.2,7.3,1.3,13.8-4.4,19.2c0,0,0.2-0.2,0.2-0.2C150.2,329.3,142.9,329.1,135.7,328.8z"/>
		<path class="st4" d="M268.1,307.4c-0.2,7.1-0.3,14.3-0.5,21.4c-7.2,0.3-14.5,0.5-21.7,0.8c0,0,0.2,0.2,0.2,0.2
			c-5.4-4.6-6.5-10.6-5.1-17.2c1.1-3.1,2.8-5.7,5.3-7.8c6-3.3,12.2-3.5,18.4-0.7C265.8,305.2,267,306.3,268.1,307.4z"/>
		<path class="st1" d="M223.1,329c-14.3,0-28.6,0-42.9,0c-8.4-6.4-15.3-14.3-22.9-21.5l0,0c-5.8-5.7-6.6-12.4-4.1-19.8
			c1.8-3.3,4.4-5.7,7.7-7.4c6.8-2.8,14-3.6,21.3-3.9c12.6-0.3,25.2-0.3,37.8-0.1c7.4,0.2,14.6,1,21.6,3.6c3.5,1.5,6.2,4,8.1,7.3
			c2.9,7.5,2.1,14.4-3.7,20.3l0,0C238.4,314.7,231.5,322.6,223.1,329z"/>
		<path class="st2" d="M157.4,307.5c16.2-1.9,23.6,5.5,22.9,21.5c-7.7,0.3-15.3,0.5-23,0.8C157.3,322.3,157.3,314.9,157.4,307.5z"/>
		<path class="st2" d="M223.1,329c-0.7-16,6.7-23.5,22.9-21.5c0,7.4,0.1,14.9,0.1,22.3C238.4,329.5,230.8,329.2,223.1,329z"/>
		<path class="st1" d="M224.4,241.1c-0.1,6.9-0.1,13.8-0.2,20.7c-0.9,1.4-1.9,2.9-2.8,4.3c-11.3,6.6-23.1,5.9-35.1,2.6
			c-3.2-1.5-5.6-3.8-7.2-7c-0.1-6.9-0.1-13.8-0.2-20.7C194.1,241.1,209.2,241.1,224.4,241.1z"/>
		<path class="st1" d="M113.1,285.2c-0.2-7.3-0.4-14.7-0.7-22c7.8-0.3,15.6-0.5,23.4-0.8c7.2,0.3,14.4,0.7,21.6,1
			c0,0-0.5-0.4-0.5-0.4c6.4,7.3,6.3,14.7,0.4,22.3l-0.1,0.1c-6.3,5.5-13.6,8.6-22.1,8.6C126.5,294.1,119.3,291,113.1,285.2
			L113.1,285.2z"/>
		<path class="st3" d="M157.4,285.3c-0.1-7.4-0.3-14.8-0.4-22.3c7.4-0.4,14.8-0.9,22.2-1.3c0,0,2.4,2.2,2.4,2.2
			c4.8,7.3,3.7,14-2.1,20.2C172.1,284.5,164.7,284.9,157.4,285.3z"/>
		<path class="st3" d="M246,285.3c-7.4-0.4-14.7-0.8-22.1-1.2c-5.8-6.2-7-12.9-2.1-20.2c0,0,2.4-2.2,2.4-2.2
			c7.1,0.3,14.2,0.6,21.3,0.9c0,0,1.1,1.2,1.1,1.2C251.9,271.1,252.4,278.3,246,285.3z"/>
		<path class="st1" d="M246,285.3c0.2-7.2,0.4-14.4,0.7-21.5c7-0.4,13.9-0.9,20.9-1.3c7.8,0.3,15.6,0.5,23.4,0.8
			c-0.2,7.3-0.4,14.7-0.7,22c0,0,0,0,0,0c-6.2,5.8-13.5,8.8-22,8.8c-8.5,0.1-15.8-3-22.2-8.6L246,285.3z"/>
		<path class="st4" d="M113,285.2c7.2,0.3,14.4,0.6,21.6,0.8c6.6,7.1,6.3,14.3,0.4,21.6c0,0,0.2-0.2,0.2-0.2
			c-7.8-0.4-15.5-0.9-23.3-1.3C112.3,299.1,112.7,292.2,113,285.2z"/>
		<path class="st4" d="M268.7,286c7.2-0.3,14.4-0.6,21.6-0.8c0.4,7,0.7,13.9,1.1,20.9c-7.8,0.4-15.5,0.9-23.3,1.3
			c0,0,0.2,0.2,0.2,0.2C262.4,300.3,262.1,293.1,268.7,286z"/>
		<path class="st2" d="M135,307.6c-0.1-7.2-0.2-14.4-0.4-21.6c7.5-0.2,15.1-0.4,22.6-0.6c0,7.4,0.1,14.7,0.1,22.1
			C149.9,307.5,142.5,307.6,135,307.6z"/>
		<path class="st2" d="M268.7,286c-0.1,7.2-0.2,14.4-0.4,21.6c-7.4,0-14.9-0.1-22.3-0.1c0-7.4,0.1-14.7,0.1-22.1
			C253.6,285.6,261.2,285.8,268.7,286z"/>
		<path class="st5" d="M221.8,263.9c0.7,6.7,1.4,13.5,2.1,20.2c-14.8,0-29.6,0-44.5,0c0.7-6.8,1.4-13.5,2.1-20.3
			C195,263.9,208.4,263.9,221.8,263.9z"/>
	</g>
</g>
<g>
	<path d="M417,297.2v-150h37.5v37.5H567v-37.5h37.5v150H417z M567,259.7v-37.5H454.5v37.5H567z M642,409.7v-37.5H454.5v-37.5h225v75
		H642z M642,297.2v-150h37.5v37.5H717v37.5h-37.5v75H642z"/>
	<path d="M717,184.7v-37.5h187.5v37.5h-75v37.5H792v-37.5H717z M717,259.7v-37.5h75v37.5H717z M717,334.7v-37.5h187.5v37.5h-75v75
		H792v-75H717z M829.5,222.2h75v37.5h-75V222.2z M942,409.7V147.2h37.5v262.5H942z"/>
	<path d="M1129.5,372.2v-37.5h37.5v-150h-37.5v-37.5H1317v37.5h-37.5v150h37.5v37.5H1129.5z M1204.5,334.7h37.5v-150h-37.5V334.7z
		 M1354.5,409.7V147.2h37.5v262.5H1354.5z"/>
	<path d="M1429.5,297.2v-37.5h37.5v-37.5h37.5v-37.5H1467v-37.5h187.5v37.5H1617v37.5h37.5v37.5h37.5v37.5h-37.5v37.5H1542v-37.5
		H1429.5z M1654.5,372.2v37.5H1467v-75h75v37.5H1654.5z M1579.5,222.2v-37.5H1542v37.5H1579.5z"/>
</g>
</svg>
